<?xml version="1.0" encoding="UTF-8"?>
<svg xmlns="http://www.w3.org/2000/svg" viewBox="0 0 450 450">
  <defs>
    <style>
      .cls-1 {
        fill: #202e3b;
      }

      .cls-2 {
        fill: #e74c3c;
      }

      .cls-3 {
        fill: #f1e8c6;
      }

      .cls-4 {
        fill: #2c3e50;
      }

      .cls-5 {
        fill: #adbcc7;
      }

      .cls-6 {
        fill: #1c2833;
      }

      .cls-7 {
        fill: #186aa1;
      }

      .cls-8 {
        isolation: isolate;
      }

      .cls-9 {
        fill: #507191;
      }

      .cls-10 {
        fill: #2980b9;
      }

      .cls-11 {
        fill: #56799c;
      }

      .cls-12 {
        fill: #597da1;
      }

      .cls-13 {
        fill: #ced4d9;
      }

      .cls-14 {
        fill: #222f3d;
      }

      .cls-15 {
        fill: #f39c12;
      }

      .cls-16 {
        fill: #85271e;
      }

      .cls-17 {
        fill: #c7bfa3;
      }

      .cls-18 {
        fill: #34495e;
      }

      .cls-19 {
        fill: #f1c40f;
      }

      .cls-20 {
        fill: #e67e22;
      }

      .cls-21 {
        fill: #ffe066;
      }

      .cls-22 {
        fill: #d35400;
      }

      .cls-23 {
        fill: #7f8c8d;
      }

      .cls-24 {
        fill: #82271d;
      }

      .cls-25 {
        fill: #e3e7e8;
      }

      .cls-26 {
        fill: #95a5a6;
      }

      .cls-27 {
        fill: #233140;
      }

      .cls-28 {
        fill: #8f2a20;
      }

      .cls-29, .cls-30 {
        fill: #bdc3c7;
      }

      .cls-31 {
        fill: #def0ff;
      }

      .cls-32 {
        fill: #27ae60;
      }

      .cls-33 {
        fill: #c0392b;
      }

      .cls-34 {
        fill: #3b536b;
      }

      .cls-35 {
        fill: #ecf0f1;
      }

      .cls-30 {
        mix-blend-mode: multiply;
      }

      .cls-36 {
        fill: #ffe372;
      }
    </style>
  </defs>
  <g class="cls-8">
    <g id="Layer_2" data-name="Layer 2">
      <g id="Layer_1-2" data-name="Layer 1">
        <g>
          <g>
            <path class="cls-25" d="M293.68,81.26v184.73c0,16.54-13.46,30-30,30h-18.68c-5.51,0-10,4.49-10,10v144.01h-20v-144.01c0-16.54,13.46-30,30-30h18.68c5.51,0,10-4.49,10-10V81.26c0-5.51-4.49-10-10-10h-18.68c-16.54,0-30-13.46-30-30V0h20V41.26c0,5.51,4.49,10,10,10h18.68c16.54,0,30,13.46,30,30Z"/>
            <path class="cls-29" d="M293.68,81.26v184.73c0,16.54-13.46,30-30,30h-18.68c-5.51,0-10,4.49-10,10v144.01h-10v-144.01c0-11.03,8.97-20,20-20h18.68c11.03,0,20-8.97,20-20V81.26c0-11.03-8.97-20-20-20h-18.68c-11.03,0-20-8.97-20-20V0h10V41.26c0,5.51,4.49,10,10,10h18.68c16.54,0,30,13.46,30,30Z"/>
            <path class="cls-30" d="M245,71.26h8.87v-20h-8.87c-5.51,0-10-4.49-10-10v-7.01l-2.12,2.12c-6.13,6.13-14.22,3.19-17.88-2.42v7.31c0,16.54,13.46,30,30,30Z"/>
            <path class="cls-30" d="M263.68,51.26h-7.99v20h7.99c5.51,0,10,4.49,10,10v184.73c0,5.51-4.49,10-10,10h-18.68c-16.54,0-30,13.46-30,30v119.7c4.62-6.57,16.15-6.19,20,1.1v-120.8c0-5.51,4.49-10,10-10h18.68c16.54,0,30-13.46,30-30V81.26c0-16.54-13.46-30-30-30Z"/>
          </g>
          <g>
            <path class="cls-25" d="M450,215v20H245.5c-16.54,0-30-13.46-30-30V81.26c0-16.54,13.46-30,30-30h72c5.51,0,10-4.49,10-10V0h20V41.26c0,16.54-13.46,30-30,30h-72c-5.51,0-10,4.49-10,10v123.74c0,5.51,4.49,10,10,10h204.5Z"/>
            <path class="cls-29" d="M450,215v10H245.5c-11.03,0-20-8.97-20-20V81.26c0-11.03,8.97-20,20-20h72c11.03,0,20-8.97,20-20V0h10V41.26c0,16.54-13.46,30-30,30h-72c-5.51,0-10,4.49-10,10v123.74c0,5.51,4.49,10,10,10h204.5Z"/>
            <path class="cls-30" d="M232.88,190.9l2.62,2.62v-54.46c-3.99,7.16-15.5,7.39-20,.72v52.82c3.86-5.13,11.51-7.56,17.38-1.7Z"/>
          </g>
          <g>
            <path class="cls-25" d="M450,102.5v20h-92.5c-5.51,0-10,4.49-10,10v13.74c0,16.54-13.46,30-30,30H132.5c-5.51,0-10,4.49-10,10v131.26c0,16.54-13.46,30-30,30H0v-20H92.5c5.51,0,10-4.49,10-10V186.24c0-16.54,13.46-30,30-30h185c5.51,0,10-4.48,10-10v-13.74c0-16.54,13.46-30,30-30h92.5Z"/>
            <path class="cls-29" d="M450,112.5v10h-92.5c-5.51,0-10,4.49-10,10v13.74c0,16.54-13.46,30-30,30H132.5c-5.51,0-10,4.49-10,10v131.26c0,16.54-13.46,30-30,30H0v-10H92.5c11.03,0,20-8.97,20-20V186.24c0-11.03,8.97-20,20-20h185c11.03,0,20-8.97,20-20v-13.74c0-11.03,8.97-20,20-20h92.5Z"/>
            <path class="cls-30" d="M146.4,156.24c6.34,4.88,5.68,16.49-1.94,20h52.65c-8.9-2.36-10.36-14.44-4.39-20h-46.32Z"/>
            <path class="cls-30" d="M81.32,327.5H34.63c6.62,4.56,6.3,16.09-.93,20h48.53c-7.23-3.91-7.53-15.44-.91-20Z"/>
          </g>
          <g>
            <path class="cls-25" d="M450,327.5v20h-143.28c-5.51,0-10,4.49-10,10v23.64c0,16.54-13.46,30-30,30H75.54c-16.55,0-30-13.46-30-30V245.5c0-5.51-4.49-10-10-10H0v-20H35.54c16.54,0,30,13.46,30,30v135.64c0,5.51,4.48,10,10,10h191.18c5.52,0,10-4.49,10-10v-23.64c0-16.54,13.46-30,30-30h143.28Z"/>
            <path class="cls-29" d="M450,337.5v10h-143.28c-5.51,0-10,4.49-10,10v23.64c0,16.54-13.46,30-30,30H75.54c-16.55,0-30-13.46-30-30V245.5c0-5.51-4.49-10-10-10H0v-10H35.54c11.02,0,20,8.97,20,20v135.64c0,11.03,8.97,20,20,20h191.18c11.03,0,20-8.97,20-20v-23.64c0-11.03,8.97-20,20-20h143.28Z"/>
            <path class="cls-30" d="M361.78,327.5h-46.08c6.62,4.56,6.3,16.09-.93,20h47.92c-7.23-3.91-7.53-15.44-.91-20Z"/>
          </g>
          <g>
            <path class="cls-29" d="M347.5,305.99v144.01h-20v-144.01c0-5.51-4.49-10-10-10H188.09c-16.54,0-30-13.46-30-30V132.5c0-5.51-4.49-10-10-10H0v-20H148.09c16.54,0,30,13.46,30,30v133.49c0,5.51,4.48,10,10,10h129.41c16.54,0,30,13.46,30,30Z"/>
            <path class="cls-25" d="M347.5,305.99v144.01h-10v-144.01c0-11.03-8.97-20-20-20H188.09c-11.03,0-20-8.97-20-20V132.5c0-11.03-8.97-20-20-20H0v-10H148.09c16.54,0,30,13.46,30,30v133.49c0,5.51,4.48,10,10,10h129.41c16.54,0,30,13.46,30,30Z"/>
          </g>
        </g>
        <g>
          <g>
            <path class="cls-25" d="M234.95,311.59v62.24h-19.98v-10.14c0-4.42-3.58-8-8-8h-.63v-15.7h.63c.63,0,1.24-.07,1.83-.21,3.54-.83,6.17-4,6.17-7.79v-20.4h19.98Z"/>
            <path class="cls-29" d="M222.82,316.83v12.95c0,5.52-4.48,10-10,10h-4.02c3.54-.83,6.17-4,6.17-7.79v-15.16h7.85Z"/>
            <rect class="cls-18" x="213.99" y="373.83" width="22.24" height="10.26"/>
            <rect class="cls-18" x="213.06" y="311.59" width="19.52" height="11.17"/>
            <rect class="cls-14" x="226.95" y="311.59" width="10.2" height="11.17"/>
            <rect class="cls-19" x="213.06" y="313.26" width="24.09" height="1.66"/>
            <rect class="cls-15" x="226.95" y="313.26" width="10.2" height="1.66"/>
          </g>
          <g>
            <rect class="cls-1" x="190.5" y="343.13" width="16.34" height="9.43"/>
            <rect class="cls-18" x="197.3" y="340.89" width="9.54" height="13.91"/>
            <rect class="cls-12" x="205.98" y="339.78" width=".86" height="16.12"/>
            <polygon class="cls-12" points="198.06 339.78 199.53 355.77 198.04 355.9 196.57 339.92 198.06 339.78"/>
            <polygon class="cls-12" points="201.02 339.78 202.48 355.77 200.99 355.9 199.53 339.92 201.02 339.78"/>
            <polygon class="cls-12" points="203.97 339.78 205.44 355.77 203.95 355.9 202.48 339.92 203.97 339.78"/>
          </g>
          <g>
            <circle class="cls-24" cx="179.84" cy="347.84" r="20.76"/>
            <circle class="cls-19" cx="179.84" cy="347.84" r="19.3"/>
            <circle class="cls-33" cx="179.84" cy="347.84" r="18.33"/>
            <circle class="cls-35" cx="179.84" cy="347.84" r="15.84"/>
            <path class="cls-13" d="M179.84,332c8.75,0,15.84,7.09,15.84,15.84s-7.09,15.84-15.84,15.84v-31.68Z"/>
            <path class="cls-18" d="M182.09,347.84c0,1.25-1.01,2.26-2.26,2.26s-2.26-1.01-2.26-2.26,1.01-2.26,2.26-2.26,2.26,1.01,2.26,2.26Z"/>
            <path class="cls-18" d="M179.76,363.31v-4.81c.62,0,1.24-.06,1.85-.17l.84,4.74c-.88,.16-1.79,.24-2.7,.24Zm-7.79-2.06c-.78-.45-1.53-.97-2.22-1.55l3.08-3.7c.48,.4,.99,.76,1.54,1.07l-2.4,4.18Zm17.77-1.6l-3.1-3.68c.47-.4,.92-.85,1.32-1.33l3.69,3.09c-.58,.69-1.22,1.34-1.91,1.92Zm-24.64-6.51c-.31-.85-.55-1.73-.71-2.62l4.74-.85c.11,.61,.27,1.22,.49,1.8l-4.51,1.67Zm29.95-2.71l-4.74-.83c.11-.61,.16-1.24,.16-1.87l3.82-.12,.99,.02c0,1-.08,1.91-.23,2.8Zm-25.48-6.32l-4.54-1.61c.31-.86,.69-1.69,1.14-2.47l4.18,2.39c-.3,.53-.57,1.1-.78,1.69Zm19.41-1.85c-.32-.54-.69-1.06-1.1-1.53l3.66-3.13c.58,.68,1.11,1.42,1.57,2.19l-4.13,2.47Zm-14.72-3.8l-2.44-4.15c.78-.45,1.6-.85,2.44-1.16l1.69,4.51c-.59,.22-1.16,.49-1.69,.81Zm9.04-.87c-.59-.21-1.2-.37-1.81-.47l.79-4.75c.89,.15,1.77,.37,2.62,.67l-1.6,4.54Z"/>
            <path class="cls-18" d="M186.23,340.85l-5.24,7.37-1.89-1.34,5.24-7.37c.12-.16,.35-.2,.51-.09l1.29,.92c.16,.12,.2,.35,.09,.51Z"/>
            <path class="cls-19" d="M185.11,341.08l-4.76,6.69-.62-.44,4.76-6.69c.04-.05,.11-.07,.17-.03l.42,.3c.05,.04,.07,.11,.03,.17Z"/>
            <path class="cls-19" d="M180.62,347.84c0,.43-.35,.79-.79,.79s-.79-.35-.79-.79,.35-.79,.79-.79,.79,.35,.79,.79Z"/>
          </g>
          <path class="cls-29" d="M222.82,358.63v15.2h-7.85v-10.14c0-4.42-3.58-8-8-8h-.13v-7.06h5.98c5.52,0,10,4.47,10,10Z"/>
        </g>
        <g>
          <rect class="cls-1" x="382.74" y="78.34" width="7.6" height="13.7"/>
          <rect class="cls-18" x="380.93" y="84.4" width="11.21" height="7.63"/>
          <rect class="cls-25" x="377.72" y="91.69" width="17.63" height="11.56"/>
          <path class="cls-29" d="M377.72,103.25h5.81c1.66,0,3-1.34,3-3v-8.56h-8.81v11.56Z"/>
          <rect class="cls-12" x="378.79" y="91.35" width="15.48" height=".69"/>
          <rect class="cls-12" x="385.94" y="78.54" width="1.2" height="12.93" transform="translate(266.87 462.25) rotate(-84.8)"/>
          <rect class="cls-12" x="385.94" y="80.9" width="1.2" height="12.93" transform="translate(264.51 464.4) rotate(-84.8)"/>
          <rect class="cls-12" x="385.94" y="83.26" width="1.2" height="12.93" transform="translate(262.16 466.55) rotate(-84.8)"/>
          <path class="cls-19" d="M385.24,78.34h2.59c.43,0,.78-.35,.78-.78h0c0-.43-.35-.78-.78-.78h-2.59c-.43,0-.78,.35-.78,.78h0c0,.43,.35,.78,.78,.78Z"/>
          <polygon class="cls-33" points="359.01 83.38 361.33 81.05 396.75 81.05 397.6 81.9 399.29 80.2 397.74 78.65 360.34 78.65 357.31 81.68 359.01 83.38"/>
          <rect class="cls-2" x="381.69" y="78.65" width="9.7" height="2.4"/>
          <rect class="cls-25" x="368.69" y="103.25" width="35.69" height="19.4"/>
          <rect class="cls-29" x="368.69" y="112.95" width="35.69" height="9.7"/>
          <g>
            <polygon class="cls-15" points="409.4 103.33 409.4 122.58 408.32 126.95 400.45 126.95 399.37 122.58 399.37 103.33 399.64 102.25 400.45 98.96 408.32 98.96 409.13 102.25 409.4 103.33"/>
            <path class="cls-19" d="M408.22,119.13h-7.67c-1.3-4.01-1.3-8.34,0-12.35h7.67c1.3,4.01,1.3,8.34,0,12.35Z"/>
            <path class="cls-36" d="M409.13,102.25c-.13,1.53-.43,3.06-.91,4.53h-7.67c-.49-1.47-.79-3-.91-4.53l.81-3.29h7.87l.81,3.29Z"/>
            <path class="cls-22" d="M409.13,123.66c-.13-1.53-.43-3.06-.91-4.53h-7.67c-.49,1.47-.79,3-.91,4.53l.81,3.29h7.87l.81-3.29Z"/>
          </g>
          <g>
            <polygon class="cls-15" points="373.7 103.33 373.7 122.58 372.62 126.95 364.75 126.95 363.67 122.58 363.67 103.33 363.94 102.25 364.75 98.96 372.62 98.96 373.43 102.25 373.7 103.33"/>
            <path class="cls-19" d="M372.53,119.13h-7.67c-1.3-4.01-1.3-8.34,0-12.35h7.67c1.3,4.01,1.3,8.34,0,12.35Z"/>
            <path class="cls-36" d="M373.43,102.25c-.13,1.53-.43,3.06-.91,4.53h-7.67c-.49-1.47-.79-3-.91-4.53l.81-3.29h7.87l.81,3.29Z"/>
            <path class="cls-22" d="M373.43,123.66c-.13-1.53-.43-3.06-.91-4.53h-7.67c-.49,1.47-.79,3-.91,4.53l.81,3.29h7.87l.81-3.29Z"/>
          </g>
          <path class="cls-29" d="M377.72,99.68h0v3.57h-3.57c1.97,0,3.57-1.6,3.57-3.57Z"/>
          <path class="cls-25" d="M395.35,99.68h0v3.57h3.57c-1.97,0-3.57-1.6-3.57-3.57Z"/>
          <rect class="cls-18" x="373.67" y="101.1" width="1.14" height="23.71"/>
          <rect class="cls-18" x="398.15" y="101.1" width="1.14" height="23.71"/>
          <path class="cls-35" d="M386.54,119.8c-5.6,0-9.98-3.01-9.98-6.85s4.38-6.85,9.98-6.85,9.98,3.01,9.98,6.85-4.38,6.85-9.98,6.85Z"/>
          <path class="cls-10" d="M394.51,112.95c0,2.68-3.57,4.85-7.98,4.85s-7.98-2.17-7.98-4.85,3.57-4.85,7.98-4.85,7.98,2.17,7.98,4.85Z"/>
        </g>
        <g>
          <g>
            <path class="cls-25" d="M42.01,193.63h2.78v-18.87h-2.78c-16.26,0-29.5,13.23-29.5,29.5v3.17H31.38v-3.17c0-5.86,4.77-10.63,10.63-10.63Z"/>
            <path class="cls-29" d="M42.01,193.63h2.78v-9.43h-2.78c-11.07,0-20.06,9.01-20.06,20.06v3.17h9.43v-3.17c0-5.86,4.77-10.63,10.63-10.63Z"/>
          </g>
          <rect class="cls-34" x="9.66" y="207.43" width="24.55" height="6.59"/>
          <rect class="cls-4" x="23.5" y="207.43" width="10.71" height="6.59"/>
          <rect class="cls-34" x="81.09" y="171.83" width="6.59" height="24.55"/>
          <rect class="cls-4" x="81.09" y="186.62" width="6.59" height="9.76"/>
          <rect class="cls-4" x="87.68" y="173.42" width="2.09" height="21.36"/>
          <rect class="cls-6" x="87.68" y="186.3" width="2.09" height="8.49"/>
          <g>
            <polygon class="cls-15" points="102.38 172 102.38 196.21 101.02 201.71 91.12 201.71 89.76 196.21 89.76 172 90.1 170.64 91.12 166.5 101.02 166.5 102.04 170.64 102.38 172"/>
            <path class="cls-19" d="M100.9,191.87c-3.22,0-6.44,0-9.65,0-1.64-5.05-1.64-10.48,0-15.53h9.65c1.64,5.05,1.64,10.48,0,15.53Z"/>
            <path class="cls-36" d="M102.04,170.64c-.16,1.92-.54,3.85-1.14,5.7h-9.65c-.62-1.85-.99-3.77-1.14-5.7l1.02-4.14h9.9l1.02,4.14Z"/>
            <path class="cls-22" d="M102.04,197.57c-.16-1.92-.54-3.85-1.14-5.7h-9.65c-.62,1.85-.99,3.77-1.14,5.7l1.02,4.14h9.9l1.02-4.14Z"/>
          </g>
          <rect class="cls-19" x="11.86" y="213.95" width="20.23" height="1.38"/>
          <rect class="cls-25" x="44.78" y="174.76" width="36.3" height="18.94"/>
          <rect class="cls-29" x="44.78" y="184.23" width="36.3" height="9.47"/>
        </g>
        <g>
          <rect class="cls-25" x="374.67" y="264.72" width="17.79" height="56.44"/>
          <rect class="cls-25" x="377.29" y="289.72" width="42.39" height="17.79" transform="translate(-94.44 369.24) rotate(-45)"/>
          <path class="cls-29" d="M392.74,316.94h0c-3.45-3.45-3.45-9.05,0-12.5l20.78-20.78,6.25,6.25-27.03,27.03Z"/>
          <rect class="cls-29" x="374.67" y="264.72" width="8.89" height="56.44"/>
          <rect class="cls-34" x="407.76" y="275.55" width="6.69" height="20.89" transform="translate(-81.82 374.46) rotate(-45)"/>
          <rect class="cls-4" x="411.89" y="285.52" width="6.69" height="9.21" transform="translate(-83.53 378.6) rotate(-45)"/>
          <rect class="cls-34" x="373.18" y="276.78" width="20.76" height="5.57"/>
          <rect class="cls-4" x="373.18" y="276.78" width="8.25" height="5.57"/>
          <rect class="cls-4" x="374.53" y="275.02" width="18.07" height="1.76"/>
          <rect class="cls-6" x="374.53" y="275.02" width="7.18" height="1.76"/>
          <g>
            <polygon class="cls-15" points="393.8 264.35 373.32 264.35 368.68 265.5 368.68 273.87 373.32 275.02 393.8 275.02 394.95 274.73 398.45 273.87 398.45 265.5 394.95 264.64 393.8 264.35"/>
            <path class="cls-19" d="M376.99,265.6v8.16c4.27,1.39,8.87,1.39,13.14,0v-8.16c-4.27-1.39-8.87-1.39-13.14,0Z"/>
            <path class="cls-36" d="M394.95,264.64c-1.63,.14-3.26,.46-4.82,.97v8.16c1.56,.52,3.19,.84,4.82,.97l3.5-.86v-8.37l-3.5-.86Z"/>
            <path class="cls-22" d="M372.17,264.64c1.63,.14,3.25,.46,4.82,.97v8.16c-1.56,.52-3.19,.84-4.82,.97l-3.5-.86v-8.37l3.5-.86Z"/>
          </g>
          <rect class="cls-34" x="373.18" y="321.15" width="20.76" height="5.57"/>
          <rect class="cls-4" x="373.18" y="321.15" width="9.06" height="5.57"/>
          <rect class="cls-19" x="375.04" y="326.67" width="17.11" height="1.17"/>
        </g>
        <g>
          <g>
            <path class="cls-18" d="M198.24,201.86h-3.93v-2.98h3.93c.29,.29,.45,.45,.74,.74v1.51c-.29,.29-.45,.45-.74,.74Z"/>
            <path class="cls-18" d="M198.24,211h-3.93v-2.98h3.93c.29,.29,.45,.45,.74,.74v1.51c-.29,.29-.45,.45-.74,.74Z"/>
            <path class="cls-18" d="M198.24,220.14h-3.93v-2.98h3.93c.29,.29,.45,.45,.74,.74v1.51c-.29,.29-.45,.45-.74,.74Z"/>
            <path class="cls-29" d="M189.51,196.83v25.35h-4.37v-1.25c0-1.22-.99-2.21-2.21-2.21h-1.95c-1.22,0-2.21,1-2.21,2.21v15.22h-21.31v-53.31h21.31v15.22c0,1.22,1,2.21,2.21,2.21h1.95c1.22,0,2.21-.99,2.21-2.21v-1.24h4.37Z"/>
            <rect class="cls-25" x="166.59" y="182.85" width="9.5" height="53.31"/>
            <rect class="cls-29" x="190.42" y="196.83" width="4.24" height="25.36"/>
            <rect class="cls-25" x="191.19" y="196.83" width="2.7" height="25.36"/>
            <rect class="cls-18" x="189.51" y="198.07" width=".91" height="22.88"/>
            <rect class="cls-25" x="186.04" y="196.83" width="2.7" height="25.36"/>
            <g>
              <polygon class="cls-15" points="197.88 198.65 197.88 202.07 197.61 202.85 195.67 202.85 195.4 202.07 195.4 198.65 195.47 198.46 195.67 197.88 197.61 197.88 197.81 198.46 197.88 198.65"/>
              <path class="cls-19" d="M197.59,201.46h-1.89c-.32-.71-.32-1.48,0-2.19h1.89c.32,.71,.32,1.48,0,2.19Z"/>
              <path class="cls-36" d="M197.81,198.46c-.03,.27-.11,.54-.22,.8h-1.89c-.12-.26-.19-.53-.22-.8l.2-.58h1.94l.2,.58Z"/>
              <path class="cls-22" d="M197.81,202.27c-.03-.27-.11-.54-.22-.8h-1.89c-.12,.26-.19,.53-.22,.8l.2,.58h1.94l.2-.58Z"/>
            </g>
            <g>
              <polygon class="cls-15" points="197.88 207.79 197.88 211.21 197.61 211.99 195.67 211.99 195.4 211.21 195.4 207.79 195.47 207.6 195.67 207.02 197.61 207.02 197.81 207.6 197.88 207.79"/>
              <path class="cls-19" d="M197.59,210.6h-1.89c-.32-.71-.32-1.48,0-2.19h1.89c.32,.71,.32,1.48,0,2.19Z"/>
              <path class="cls-36" d="M197.81,207.6c-.03,.27-.11,.54-.22,.8h-1.89c-.12-.26-.19-.53-.22-.8l.2-.58h1.94l.2,.58Z"/>
              <path class="cls-22" d="M197.81,211.41c-.03-.27-.11-.54-.22-.8h-1.89c-.12,.26-.19,.53-.22,.8l.2,.58h1.94l.2-.58Z"/>
            </g>
            <g>
              <polygon class="cls-15" points="197.88 216.93 197.88 220.35 197.61 221.13 195.67 221.13 195.4 220.35 195.4 216.93 195.47 216.74 195.67 216.16 197.61 216.16 197.81 216.74 197.88 216.93"/>
              <path class="cls-19" d="M197.59,219.74h-1.89c-.32-.71-.32-1.48,0-2.19h1.89c.32,.71,.32,1.48,0,2.19Z"/>
              <path class="cls-36" d="M197.81,216.74c-.03,.27-.11,.54-.22,.8h-1.89c-.12-.26-.19-.53-.22-.8l.2-.58h1.94l.2,.58Z"/>
              <path class="cls-22" d="M197.81,220.55c-.03-.27-.11-.54-.22-.8h-1.89c-.12,.26-.19,.53-.22,.8l.2,.58h1.94l.2-.58Z"/>
            </g>
            <path class="cls-26" d="M185.15,215.22v5.72c0-1.22-.99-2.21-2.21-2.21h-1.95c-1.22,0-2.21,1-2.21,2.21v-5.72c0-1.22,1-2.21,2.21-2.21h1.95c1.22,0,2.21,1,2.21,2.21Z"/>
          </g>
          <rect class="cls-34" x="155.79" y="182.39" width="24.28" height="4.11"/>
          <rect class="cls-4" x="155.79" y="182.39" width="9.65" height="4.11"/>
          <rect class="cls-34" x="155.79" y="232.13" width="24.28" height="4.11"/>
          <rect class="cls-4" x="155.79" y="232.13" width="9.65" height="4.11"/>
        </g>
        <g>
          <path class="cls-25" d="M137.52,392.55h-7.56c-2.88-4.58-7.97-7.64-13.78-7.64s-10.9,3.06-13.78,7.64h-7.56v17.28h7.56c2.88,4.58,7.97,7.64,13.78,7.64s10.9-3.06,13.78-7.64h7.56v-17.28Z"/>
          <path class="cls-29" d="M94.84,401.57v8.25h7.56c2.88,4.58,7.97,7.64,13.78,7.64s10.9-3.06,13.78-7.64h7.56v-8.25h-42.68Z"/>
          <g>
            <polygon class="cls-26" points="96.94 391.56 96.94 410.81 95.03 415.18 81.11 415.18 79.2 410.81 79.2 391.56 79.67 390.48 81.11 387.19 95.03 387.19 96.46 390.48 96.94 391.56"/>
            <path class="cls-29" d="M94.85,407.36c-4.52,0-9.05,0-13.57,0-2.31-4.01-2.31-8.34,0-12.35h13.57c2.31,4.01,2.31,8.34,0,12.35Z"/>
            <path class="cls-35" d="M96.46,390.48c-.23,1.53-.76,3.06-1.61,4.53h-13.57c-.87-1.47-1.4-3-1.61-4.53l1.43-3.29h13.92l1.43,3.29Z"/>
            <path class="cls-23" d="M96.46,411.89c-.23-1.53-.76-3.06-1.61-4.53h-13.57c-.87,1.47-1.4,3-1.61,4.53l1.43,3.29h13.92l1.43-3.29Z"/>
          </g>
          <g>
            <polygon class="cls-26" points="151.59 391.56 151.59 410.81 149.68 415.18 135.76 415.18 133.85 410.81 133.85 391.56 134.33 390.48 135.76 387.19 149.68 387.19 151.11 390.48 151.59 391.56"/>
            <path class="cls-29" d="M149.51,407.36c-4.52,0-9.05,0-13.57,0-2.31-4.01-2.31-8.34,0-12.35h13.57c2.31,4.01,2.31,8.34,0,12.35Z"/>
            <path class="cls-35" d="M151.11,390.48c-.23,1.53-.76,3.06-1.61,4.53h-13.57c-.87-1.47-1.4-3-1.61-4.53l1.43-3.29h13.92l1.43,3.29Z"/>
            <path class="cls-23" d="M151.11,411.89c-.23-1.53-.76-3.06-1.61-4.53h-13.57c-.87,1.47-1.4,3-1.61,4.53l1.43,3.29h13.92l1.43-3.29Z"/>
          </g>
          <rect class="cls-1" x="112.39" y="371.21" width="7.6" height="13.7"/>
          <rect class="cls-18" x="110.58" y="377.27" width="11.21" height="7.63"/>
          <rect class="cls-12" x="108.44" y="384.22" width="15.48" height=".69"/>
          <rect class="cls-25" x="108.44" y="384.9" width="15.48" height="3.45"/>
          <rect class="cls-12" x="109.72" y="377.27" width="12.93" height="1.2" transform="translate(-33.75 12.08) rotate(-5.2)"/>
          <rect class="cls-12" x="109.72" y="379.64" width="12.93" height="1.2" transform="translate(-33.97 12.09) rotate(-5.2)"/>
          <rect class="cls-12" x="109.72" y="382" width="12.93" height="1.2" transform="translate(-34.18 12.1) rotate(-5.2)"/>
          <path class="cls-19" d="M117.48,371.21h-2.59c-.43,0-.78-.35-.78-.78h0c0-.43,.35-.78,.78-.78h2.59c.43,0,.78,.35,.78,.78h0c0,.43-.35,.78-.78,.78Z"/>
          <g>
            <polygon class="cls-33" points="123.81 371.52 107.45 371.52 105.9 373.07 107.6 374.77 108.44 373.92 123.81 373.92 123.81 371.52"/>
            <polygon class="cls-33" points="125.33 373.92 121.03 373.92 121.03 371.52 124.33 371.52 126.66 369.2 128.35 370.9 125.33 373.92"/>
            <polygon class="cls-33" points="129.68 366.17 151.11 366.17 151.11 368.57 130.68 368.57 128.35 370.9 126.66 369.2 129.68 366.17"/>
          </g>
          <rect class="cls-2" x="111.33" y="371.52" width="9.7" height="2.4"/>
          <rect class="cls-19" x="105.84" y="395.87" width="20.69" height="11.41" rx="4" ry="4"/>
          <rect class="cls-10" x="106.84" y="396.87" width="18.69" height="9.41" rx="3" ry="3"/>
        </g>
        <g>
          <g>
            <rect class="cls-25" x="215.72" y="86.91" width="19.56" height="53.81"/>
            <path class="cls-29" d="M235.28,98.26v39.08c-2.94,1.49-6.26,2.31-9.78,2.31s-6.84-.83-9.78-2.31v-39.08c2.94-1.49,6.26-2.31,9.78-2.31s6.84,.83,9.78,2.31Z"/>
            <rect class="cls-29" x="215.72" y="86.91" width="9.79" height="53.81"/>
            <rect class="cls-34" x="214.08" y="82.84" width="22.85" height="6.13"/>
            <rect class="cls-4" x="214.08" y="82.84" width="9.08" height="6.13"/>
            <rect class="cls-4" x="213.53" y="80.9" width="23.95" height="1.94"/>
            <rect class="cls-6" x="213.53" y="80.9" width="9.52" height="1.94"/>
            <rect class="cls-34" x="214.08" y="140.72" width="22.85" height="6.13"/>
            <rect class="cls-4" x="214.08" y="140.72" width="9.96" height="6.13"/>
            <rect class="cls-19" x="213.08" y="146.79" width="24.92" height="1.28"/>
          </g>
          <g>
            <circle class="cls-19" cx="225.5" cy="113.82" r="21.85"/>
            <circle class="cls-33" cx="225.5" cy="113.82" r="20.61"/>
            <path class="cls-3" d="M243.15,113.82c0,3.38-.95,6.53-2.59,9.22-3.1,5.06-8.69,8.43-15.06,8.43-2.08,0-4.07-.36-5.92-1.02-4.26-1.52-7.77-4.63-9.81-8.62-1.23-2.41-1.92-5.13-1.92-8.02,0-3.65,1.11-7.03,3-9.84,3.17-4.71,8.55-7.81,14.65-7.81,9.75,0,17.65,7.9,17.65,17.65Z"/>
            <path class="cls-17" d="M211.9,124.23c-1.23-2.41-1.92-5.13-1.92-8.02,0-3.65,1.1-7.03,3-9.84,3.17-4.71,8.55-7.81,14.65-7.81,4.67,0,8.92,1.82,12.07,4.78-3.21-4.35-8.38-7.18-14.21-7.18s-11.48,3.1-14.65,7.81c-1.89,2.81-3,6.2-3,9.84,0,2.89,.69,5.61,1.92,8.01,.93,1.83,2.19,3.46,3.67,4.85-.57-.77-1.09-1.59-1.53-2.45Z"/>
            <path class="cls-18" d="M226.02,130.53l-.07-2.25,.35-.02,.12,2.25c-.13,0-.27,.01-.4,.02Zm-3.2-.21c-.13-.02-.27-.04-.4-.07l.42-2.22c.11,.02,.23,.04,.34,.06l-.36,2.23Zm6.78-.29l-.55-2.19c.11-.03,.23-.06,.34-.09l.6,2.17c-.13,.04-.26,.07-.39,.1Zm-10.27-.67c-.13-.05-.25-.1-.37-.15l.88-2.07c.11,.05,.21,.09,.32,.13l-.83,2.1Zm13.66-.59l-1.01-2.01c.1-.05,.21-.11,.31-.16l1.06,1.99c-.12,.06-.24,.12-.36,.18Zm-16.85-1.1c-.11-.08-.22-.15-.33-.23l1.31-1.84c.09,.07,.19,.13,.29,.2l-1.26,1.87Zm19.88-.86l-1.42-1.75c.09-.07,.18-.15,.26-.22l1.46,1.71c-.1,.09-.21,.17-.31,.26Zm-22.64-1.48c-.09-.1-.18-.2-.27-.3l1.67-1.51c.08,.09,.16,.17,.24,.25l-1.63,1.55Zm25.19-1.08l-1.76-1.41c.07-.09,.14-.18,.21-.27l1.79,1.36c-.08,.11-.16,.21-.25,.32Zm-27.38-1.79c-.07-.11-.14-.23-.2-.35l1.96-1.12c.06,.1,.12,.2,.18,.3l-1.93,1.17Zm29.32-1.26l-2.02-.99c.05-.1,.1-.21,.15-.32l2.04,.95c-.06,.12-.11,.24-.17,.36Zm-30.84-2.01c-.04-.13-.08-.25-.12-.38l2.15-.68,.11,.34-2.14,.72Zm32.08-1.38l-2.19-.54c.03-.11,.05-.23,.08-.34l2.2,.48c-.03,.13-.06,.26-.09,.39Zm-32.86-2.14c-.01-.13-.03-.27-.04-.4l2.25-.19c0,.12,.02,.23,.03,.35l-2.24,.25Zm33.33-1.44l-2.25-.05c0-.12,0-.23,0-.35l2.25-.06v.06c0,.13,0,.27,0,.4Zm-31.1-1.94l-2.24-.24c.01-.13,.03-.27,.05-.4l2.24,.29c-.01,.12-.03,.23-.04,.35Zm28.57-1.29c-.02-.11-.05-.23-.07-.34l2.2-.49c.03,.13,.06,.26,.08,.39l-2.21,.44Zm-27.91-1.76l-2.14-.72c.04-.13,.09-.25,.13-.38l2.12,.77c-.04,.11-.08,.22-.11,.33Zm26.98-1.22c-.05-.11-.09-.21-.14-.31l2.04-.96c.06,.12,.11,.24,.17,.37l-2.06,.91Zm-25.67-1.62l-1.93-1.16c.07-.11,.14-.23,.21-.34l1.91,1.2c-.06,.1-.12,.2-.18,.3Zm24.11-1.09c-.07-.09-.14-.19-.21-.28l1.79-1.37c.08,.11,.16,.21,.24,.32l-1.82,1.33Zm-22.22-1.41l-1.64-1.55c.09-.1,.18-.19,.28-.29l1.6,1.58c-.08,.08-.16,.17-.24,.25Zm20.12-.91c-.09-.08-.17-.15-.26-.23l1.45-1.72c.1,.09,.2,.17,.31,.26l-1.5,1.69Zm-17.74-1.13l-1.27-1.86c.11-.08,.22-.15,.34-.22l1.22,1.89c-.1,.06-.19,.13-.29,.19Zm15.19-.68c-.1-.06-.2-.11-.31-.17l1.05-1.99c.12,.06,.24,.13,.36,.19l-1.1,1.97Zm-12.43-.79l-.84-2.09c.12-.05,.25-.1,.37-.15l.79,2.11c-.11,.04-.22,.08-.33,.13Zm9.55-.43c-.11-.03-.22-.07-.33-.1l.6-2.17c.13,.04,.26,.07,.39,.11l-.65,2.16Zm-6.54-.41l-.37-2.22c.13-.02,.27-.04,.4-.06l.31,2.23c-.11,.02-.23,.03-.34,.05Zm3.47-.15c-.11,0-.23-.02-.34-.02l.11-2.25c.14,0,.27,.02,.4,.03l-.17,2.25Z"/>
            <path class="cls-17" d="M238.67,115.15c0,1.1-11.96,1.99-13.06,1.99s-1.99-.89-1.99-1.99,.89-1.99,1.99-1.99,13.06,.89,13.06,1.99Z"/>
            <g>
              <path class="cls-4" d="M238.56,113.82c0,1.1-11.96,1.99-13.06,1.99s-1.99-.89-1.99-1.99,.89-1.99,1.99-1.99,13.06,.89,13.06,1.99Z"/>
              <path class="cls-18" d="M223.52,113.82c0-1.1,.89-1.99,1.99-1.99s13.06,.89,13.06,1.99h-15.04Z"/>
              <path class="cls-19" d="M235.42,114.02l-6.59,.44c-.71,.03-1.33-.26-1.33-.65h0c0-.39,.63-.68,1.33-.65l6.59,.44c.07,0,.12,.09,.12,.2h0c0,.11-.05,.2-.12,.2Z"/>
            </g>
            <circle class="cls-9" cx="225.5" cy="113.82" r="1.93"/>
            <path class="cls-4" d="M226.18,113.82c0,.38-.3,.68-.68,.68s-.68-.3-.68-.68,.3-.68,.68-.68,.68,.3,.68,.68Z"/>
          </g>
          <path class="cls-4" d="M227.12,122.94h0l-.02-.05c-.04-.12-.1-.24-.17-.35l-1.43-2.99-1.43,2.98c-.07,.11-.13,.23-.17,.35l-.02,.05h0c-.05,.16-.09,.34-.09,.52,0,.94,.76,1.71,1.71,1.71s1.71-.76,1.71-1.71c0-.18-.04-.36-.09-.52Z"/>
        </g>
        <g>
          <g>
            <path class="cls-10" d="M386.4,415.95h.01l-.04-.09c-.08-.22-.17-.43-.3-.62l-2.52-5.25-2.52,5.25c-.12,.19-.22,.4-.3,.62l-.04,.08h.01c-.09,.29-.16,.59-.16,.91,0,1.66,1.34,3,3,3s3-1.34,3-3c0-.32-.06-.62-.16-.91Z"/>
            <path class="cls-7" d="M386.4,415.95h.01l-.04-.09c-.08-.22-.17-.43-.3-.62l-2.52-5.25-.05,.1v9.76s.03,0,.05,0c1.66,0,3-1.34,3-3,0-.32-.06-.62-.16-.91Z"/>
            <path class="cls-35" d="M383.22,416.25c0,.57-.46,1.04-1.04,1.04s-1.04-.46-1.04-1.04,.46-1.04,1.04-1.04,1.04,.46,1.04,1.04Z"/>
          </g>
          <rect class="cls-1" x="359.8" y="370.18" width="5.32" height="9.59"/>
          <rect class="cls-18" x="358.53" y="374.42" width="7.85" height="5.34"/>
          <rect class="cls-25" x="356.29" y="379.53" width="12.34" height="6.75"/>
          <rect class="cls-29" x="356.29" y="379.53" width="6.17" height="6.75"/>
          <path class="cls-25" d="M389.73,399.63v9.05h-12.35v-7.92c0-1.55-1.25-2.8-2.8-2.8h-26.15v-12.34h27.29c7.73,0,14,6.27,14,14Z"/>
          <path class="cls-29" d="M382.98,400.76v7.92h-5.6v-7.92c0-1.55-1.25-2.8-2.8-2.8h-26.15v-5.6h26.15c4.64,0,8.4,3.77,8.4,8.4Z"/>
          <path class="cls-15" d="M377.57,405.79h11.96c.8,0,1.44,.65,1.44,1.44h0c0,.8-.65,1.45-1.44,1.45h-11.96c-.8,0-1.44-.65-1.44-1.44h0c0-.8,.65-1.45,1.44-1.45Z"/>
          <path class="cls-19" d="M379.03,405.79h9.04c.6,0,1.09,.32,1.09,.72h0c0,.4-.49,.72-1.09,.72h-9.04c-.6,0-1.09-.32-1.09-.72h0c0-.4,.49-.72,1.09-.72Z"/>
          <rect class="cls-12" x="357.04" y="379.29" width="10.84" height=".48"/>
          <rect class="cls-12" x="357.93" y="374.42" width="9.06" height=".84" transform="translate(-32.46 34.37) rotate(-5.2)"/>
          <rect class="cls-12" x="357.93" y="376.08" width="9.06" height=".84" transform="translate(-32.61 34.38) rotate(-5.2)"/>
          <rect class="cls-12" x="357.93" y="377.74" width="9.06" height=".84" transform="translate(-32.77 34.39) rotate(-5.2)"/>
          <path class="cls-19" d="M363.37,370.18h-1.81c-.3,0-.54-.24-.54-.54h0c0-.3,.24-.54,.54-.54h1.81c.3,0,.54,.24,.54,.54h0c0,.3-.24,.54-.54,.54Z"/>
          <polygon class="cls-33" points="381.73 373.7 380.11 372.08 355.31 372.08 354.71 372.67 353.53 371.48 354.61 370.4 380.8 370.4 382.92 372.52 381.73 373.7"/>
          <rect class="cls-2" x="359.06" y="370.4" width="6.79" height="1.68"/>
          <circle class="cls-35" cx="362.46" cy="391.79" r="8.89"/>
          <circle class="cls-10" cx="362.46" cy="391.79" r="6.17"/>
          <rect class="cls-18" x="347.5" y="383.99" width=".93" height="15.66"/>
        </g>
        <g>
          <g>
            <rect class="cls-34" x="100.63" y="295.06" width="23.33" height="6.26"/>
            <rect class="cls-4" x="100.63" y="295.06" width="9.27" height="6.26"/>
            <rect class="cls-4" x="102.15" y="301.32" width="20.3" height="1.98"/>
            <rect class="cls-6" x="102.15" y="301.32" width="8.07" height="1.98"/>
            <rect class="cls-34" x="100.63" y="245.2" width="23.33" height="6.26"/>
            <rect class="cls-4" x="100.63" y="245.2" width="10.18" height="6.26"/>
            <rect class="cls-19" x="100.71" y="243.95" width="23.25" height="1.31"/>
          </g>
          <circle class="cls-25" cx="112.34" cy="274.14" r="15.14" transform="translate(-179.87 323) rotate(-77.21)"/>
          <circle class="cls-18" cx="112.34" cy="274.14" r="11.63"/>
          <polygon class="cls-15" points="107.02 283.35 101.71 274.14 107.02 264.93 117.65 264.93 122.97 274.14 117.65 283.35 107.02 283.35"/>
          <circle class="cls-19" cx="112.3" cy="274.14" r="9.03"/>
          <rect class="cls-33" x="99.37" y="269.45" width="54.73" height="9.38" rx="2.25" ry="2.25"/>
          <path class="cls-28" d="M151.85,269.45h-27.48v9.38h27.48c1.24,0,2.25-1.01,2.25-2.25v-4.89c0-1.24-1.01-2.25-2.25-2.25Z"/>
          <path class="cls-2" d="M151.85,269.45h-15.59v9.38h15.59c1.24,0,2.25-1.01,2.25-2.25v-4.89c0-1.24-1.01-2.25-2.25-2.25Z"/>
          <path class="cls-33" d="M118.69,274.14c0,3.53-2.86,6.4-6.4,6.4s-6.4-2.86-6.4-6.4,2.86-6.4,6.4-6.4,6.4,2.86,6.4,6.4Z"/>
          <circle class="cls-18" cx="112.3" cy="274.14" r="4.23"/>
          <circle class="cls-35" cx="112.3" cy="274.14" r="3.02"/>
        </g>
        <g>
          <path class="cls-25" d="M411.86,213.63h-10.09c-3.85-6.12-10.64-10.21-18.41-10.21s-14.56,4.08-18.41,10.21h-10.09v23.08h10.09c3.85,6.12,10.64,10.21,18.41,10.21s14.56-4.08,18.41-10.21h10.09v-23.08Z"/>
          <rect class="cls-1" x="378.68" y="194.44" width="9.36" height="8.99"/>
          <rect class="cls-18" x="378.24" y="195.74" width="10.24" height="7.68"/>
          <rect class="cls-19" x="376.29" y="202.08" width="14.15" height="1.34"/>
          <rect class="cls-25" x="372.2" y="203.42" width="22.33" height="3.15"/>
          <rect class="cls-12" x="377.45" y="195.74" width="11.82" height="1.09" transform="translate(-16.2 35.54) rotate(-5.2)"/>
          <rect class="cls-12" x="377.45" y="197.9" width="11.82" height="1.09" transform="translate(-16.4 35.54) rotate(-5.2)"/>
          <rect class="cls-12" x="377.45" y="200.06" width="11.82" height="1.09" transform="translate(-16.6 35.55) rotate(-5.2)"/>
          <rect class="cls-34" x="349.56" y="212.69" width="5.3" height="25.02"/>
          <rect class="cls-4" x="349.56" y="226.8" width="5.3" height="10.91"/>
          <rect class="cls-19" x="348.5" y="214.84" width="1.11" height="20.62"/>
          <rect class="cls-34" x="411.86" y="212.69" width="5.3" height="25.02"/>
          <rect class="cls-4" x="411.86" y="226.8" width="5.3" height="10.91"/>
          <rect class="cls-19" x="417.1" y="214.84" width="1.11" height="20.62"/>
          <g>
            <circle class="cls-10" cx="383.35" cy="187.3" r="12.78" transform="translate(118.58 521.88) rotate(-77.68)"/>
            <path class="cls-19" d="M394.2,187.3c0,2.08-.58,4.01-1.59,5.66-1.91,3.11-5.34,5.18-9.25,5.18-1.28,0-2.5-.22-3.64-.63-2.62-.93-4.78-2.84-6.03-5.3-.75-1.48-1.18-3.15-1.18-4.92,0-2.24,.68-4.32,1.84-6.05,1.95-2.89,5.25-4.8,9-4.8,5.99,0,10.85,4.86,10.85,10.85Z"/>
            <path class="cls-21" d="M393.96,187.3c0,2.03-.57,3.92-1.56,5.54-1.86,3.04-5.22,5.07-9.04,5.07-1.25,0-2.45-.22-3.56-.61-2.56-.91-4.67-2.78-5.89-5.18-.74-1.44-1.15-3.08-1.15-4.81,0-2.19,.66-4.22,1.8-5.91,1.9-2.83,5.14-4.69,8.8-4.69,5.86,0,10.6,4.75,10.6,10.6Z"/>
            <path class="cls-31" d="M393.58,187.3c0,1.96-.55,3.79-1.5,5.34-1.8,2.93-5.03,4.89-8.72,4.89-1.2,0-2.36-.21-3.43-.59-2.47-.88-4.5-2.68-5.68-4.99-.71-1.39-1.11-2.97-1.11-4.64,0-2.11,.64-4.07,1.74-5.7,1.84-2.73,4.95-4.52,8.49-4.52,5.65,0,10.23,4.58,10.23,10.23Z"/>
            <path class="cls-5" d="M374.18,189.11c0-2.11,.64-4.07,1.74-5.7,1.84-2.73,4.95-4.52,8.49-4.52s6.4,1.65,8.26,4.19c-1.61-3.54-5.17-6-9.31-6-3.54,0-6.65,1.79-8.49,4.52-1.1,1.63-1.74,3.59-1.74,5.7,0,1.67,.4,3.25,1.11,4.64,.24,.47,.53,.92,.84,1.35-.57-1.28-.9-2.7-.9-4.19Z"/>
            <path class="cls-4" d="M382.58,196.84c-.24-.02-.42-.23-.4-.47h0c.02-.24,.23-.42,.47-.4h0c.24,.02,.42,.23,.4,.47h0c-.02,.23-.21,.4-.44,.4h-.03Zm2.6-.58c-.06-.23,.08-.47,.32-.53h0c.23-.06,.47,.08,.53,.31h0c.06,.24-.08,.47-.31,.53h0s-.07,.01-.11,.01h0c-.19,0-.37-.13-.42-.33Zm-5.66-.19h0c-.22-.1-.32-.35-.23-.57h0c.1-.22,.35-.32,.57-.23h0c.22,.1,.32,.35,.22,.57h0c-.07,.16-.23,.26-.4,.26h0c-.06,0-.12-.01-.17-.04Zm8.46-.88c-.13-.2-.07-.47,.13-.6h0c.2-.13,.47-.07,.61,.13h0c.13,.2,.07,.47-.13,.6h0c-.07,.05-.16,.07-.24,.07h0c-.14,0-.28-.07-.37-.2Zm-11.1-.84c-.17-.16-.19-.44-.03-.61h0c.17-.18,.44-.19,.62-.03h0c.17,.16,.19,.44,.03,.61h0c-.09,.1-.2,.14-.32,.14h0c-.1,0-.21-.04-.3-.12Zm13.41-1.1c-.19-.15-.22-.42-.08-.61h0c.15-.19,.42-.22,.61-.07h0c.19,.15,.22,.42,.07,.61h0c-.09,.11-.21,.17-.34,.17h0c-.09,0-.19-.03-.27-.09Zm-15.35-1.38c-.11-.21-.03-.47,.17-.59h0c.21-.11,.47-.03,.59,.18h0c.11,.21,.03,.47-.17,.59h0c-.07,.03-.14,.05-.21,.05h0c-.15,0-.3-.08-.38-.23Zm16.9-1.19c-.23-.08-.35-.33-.27-.55h0c.08-.23,.33-.35,.55-.27h0c.23,.08,.35,.33,.27,.55h0c-.07,.18-.24,.3-.41,.3h0s-.1,0-.14-.03Zm-17.93-1.78c-.04-.24,.12-.46,.36-.5h0c.24-.04,.46,.12,.5,.36h0c.04,.24-.12,.46-.36,.5h0s-.05,0-.07,0h0c-.21,0-.39-.15-.43-.36Zm18.13-1.59v-.02h0v-.02h0c0-.24,.19-.44,.43-.44h0c.24,0,.44,.2,.44,.44h0v.02h0v.02h0c0,.24-.2,.44-.44,.44h0c-.24,0-.44-.2-.44-.44Zm-17.77-1.05c-.24-.04-.4-.27-.36-.5h0c.04-.24,.26-.4,.5-.36h0c.24,.04,.4,.27,.36,.5h0c-.03,.21-.22,.37-.43,.37h0s-.05,0-.07,0Zm17.29-1.8h0c-.08-.23,.04-.47,.27-.55h0c.23-.08,.48,.04,.56,.27h0c.08,.23-.04,.47-.27,.55h0s-.1,.02-.14,.02h0c-.18,0-.35-.11-.41-.29Zm-16.46-1.09c-.21-.11-.29-.38-.18-.59h0c.11-.21,.38-.29,.59-.17h0c.21,.11,.29,.38,.17,.59h0c-.08,.15-.23,.23-.38,.23h0c-.07,0-.14-.02-.2-.05Zm15.09-1.42c-.15-.19-.12-.47,.07-.61h0c.19-.15,.47-.11,.61,.07h0c.15,.19,.11,.47-.07,.61h0c-.08,.06-.17,.09-.27,.09h0c-.13,0-.26-.06-.34-.17Zm-13.36-1.04c-.17-.18-.16-.45,.02-.62h0c.18-.16,.45-.15,.61,.03h0c.17,.17,.15,.45-.02,.61h0c-.08,.08-.19,.12-.3,.12h0c-.12,0-.24-.05-.32-.14Zm11.24-.89c-.2-.13-.26-.4-.13-.6h0c.13-.2,.4-.26,.61-.13h0c.2,.13,.26,.4,.13,.6h0c-.08,.13-.22,.2-.37,.2h0c-.08,0-.17-.02-.24-.07Zm-8.82-.88c-.1-.22,0-.48,.22-.57h0c.22-.1,.47,0,.57,.22h0c.1,.22,0,.48-.22,.57h0c-.06,.03-.12,.03-.18,.03h0c-.17,0-.33-.1-.4-.26Zm6.19-.26c-.23-.06-.37-.3-.32-.53h0c.06-.23,.3-.37,.53-.32h0c.24,.06,.38,.3,.32,.53h0c-.05,.2-.23,.33-.42,.33h0s-.07,0-.1-.01Zm-3.32-.62c-.02-.24,.16-.45,.4-.47h0c.24-.02,.45,.16,.47,.4h0c.02,.24-.16,.45-.4,.47h0s-.03,0-.03,0h0c-.23,0-.42-.17-.44-.4Z"/>
            <path class="cls-33" d="M390.16,187.3h-3c0-1.02-.4-1.97-1.12-2.69l2.12-2.12c1.29,1.29,1.99,3,1.99,4.81Z"/>
            <path class="cls-20" d="M386.05,184.61c-.72-.72-1.68-1.12-2.69-1.12v-3c1.82,0,3.53,.71,4.82,2l-2.12,2.12Z"/>
            <path class="cls-19" d="M380.66,184.61l-2.12-2.12c1.29-1.29,3-2,4.81-2v3c-1.02,0-1.97,.4-2.69,1.12Z"/>
            <path class="cls-32" d="M379.55,187.3h-3c0-1.82,.71-3.53,1.99-4.82l2.12,2.12c-.72,.72-1.12,1.67-1.12,2.69Z"/>
            <rect class="cls-27" x="379.02" y="182.12" width=".71" height="7.76" rx=".21" ry=".21" transform="translate(87.58 491.58) rotate(-72.44)"/>
            <path class="cls-18" d="M384.07,187.58c-.16,.4-.61,.6-1.01,.44-.4-.16-.6-.61-.44-1.01,.16-.4,.61-.6,1.01-.44,.4,.16,.6,.61,.44,1.01Z"/>
            <path class="cls-11" d="M383.82,187.48c-.1,.26-.4,.4-.67,.29-.26-.1-.4-.4-.29-.67s.4-.4,.67-.29c.26,.1,.4,.4,.29,.67Z"/>
          </g>
          <g>
            <circle class="cls-18" cx="383.35" cy="225.17" r="11.41"/>
            <polygon class="cls-15" points="378.14 234.21 372.92 225.17 378.14 216.13 388.57 216.13 393.79 225.17 388.57 234.21 378.14 234.21"/>
            <circle class="cls-19" cx="383.32" cy="225.17" r="8.86"/>
            <circle class="cls-33" cx="383.32" cy="225.17" r="6.28"/>
            <g>
              <path class="cls-2" d="M383.35,206.34c-10.4,0-18.83,8.43-18.83,18.83s8.43,18.83,18.83,18.83,18.83-8.43,18.83-18.83-8.43-18.83-18.83-18.83Zm0,33.06c-7.86,0-14.23-6.37-14.23-14.23s6.37-14.23,14.23-14.23,14.23,6.37,14.23,14.23-6.37,14.23-14.23,14.23Z"/>
              <path class="cls-2" d="M389.74,225.17c0,3.53-2.86,6.39-6.39,6.39s-6.39-2.86-6.39-6.39,2.86-6.39,6.39-6.39,6.39,2.86,6.39,6.39Z"/>
              <path class="cls-2" d="M399.99,226.46c-4.21,1.37-8.74,1.37-12.95,0v-2.59c4.21-1.37,8.74-1.37,12.95,0v2.59Z"/>
              <path class="cls-2" d="M384.65,208.53c1.37,4.21,1.37,8.74,0,12.95h-2.59c-1.37-4.21-1.37-8.74,0-12.95h2.59Z"/>
              <path class="cls-2" d="M366.72,223.88c4.21-1.37,8.74-1.37,12.95,0v2.59c-4.21,1.37-8.74,1.37-12.95,0v-2.59Z"/>
              <path class="cls-2" d="M382.06,241.81c-1.37-4.21-1.37-8.74,0-12.95h2.59c1.37,4.21,1.37,8.74,0,12.95h-2.59Z"/>
            </g>
            <path class="cls-33" d="M364.53,225.01c0,.05,0,.11,0,.16,0,10.4,8.43,18.83,18.83,18.83s18.83-8.43,18.83-18.83c0-.05,0-.11,0-.16h-37.65Zm16.89,14.24c-6.31-.86-11.29-5.84-12.15-12.15,2.64,.5,5.35,.49,7.98-.03,.62,2,2.2,3.57,4.19,4.19-.52,2.64-.53,5.34-.03,7.98Zm3.87,0c.5-2.64,.49-5.35-.03-7.98,2-.62,3.57-2.2,4.19-4.19,2.64,.52,5.34,.53,7.98,.03-.86,6.31-5.84,11.29-12.15,12.15Z"/>
            <circle class="cls-18" cx="383.32" cy="225.17" r="4.16"/>
            <path class="cls-35" d="M386.28,225.17c0,1.64-1.33,2.96-2.96,2.96s-2.96-1.33-2.96-2.96,1.33-2.96,2.96-2.96,2.96,1.33,2.96,2.96Z"/>
          </g>
        </g>
        <g>
          <path class="cls-25" d="M120.5,101.93c-2.84,0-5.49-1.43-7.04-3.81-4.36-6.7-11.91-11.12-20.49-11.12s-16.13,4.43-20.49,11.12c-1.55,2.38-4.2,3.81-7.04,3.81h-12.05v18.99h12.05c2.84,0,5.49,1.43,7.04,3.81,4.36,6.69,11.91,11.12,20.49,11.12s16.13-4.43,20.49-11.12c1.55-2.38,4.2-3.81,7.04-3.81h7.34v-18.99h-7.34Z"/>
          <rect class="cls-25" x="83.55" y="77.89" width="18.85" height="18.2"/>
          <path class="cls-25" d="M120.5,101.93c-2.85,0-5.49-1.44-7.04-3.81-4.35-6.7-11.91-11.13-20.49-11.13s-16.13,4.44-20.49,11.13c-1.55,2.38-4.21,3.81-7.04,3.81h-12.05v18.99h12.05c2.84,0,5.49,1.44,7.04,3.81,4.35,6.7,11.89,11.13,20.49,11.13s16.13-4.44,20.49-11.13c1.55-2.38,4.19-3.81,7.04-3.81h7.34v-18.99h-7.34Z"/>
          <path class="cls-29" d="M120.48,111.85c-6.01,0-11.41,3.22-14.79,8.2-2.87,4.23-7.6,6.75-12.71,6.75s-10.05-2.62-12.88-7.01c-3.23-4.97-8.71-7.93-14.65-7.93h-12.05v9.07h12.05c2.84,0,5.49,1.44,7.04,3.81,4.35,6.7,11.89,11.13,20.49,11.13s16.13-4.44,20.49-11.13c1.55-2.38,4.19-3.81,7.04-3.81h7.34v-9.07h-7.37Z"/>
          <rect class="cls-18" x="122.68" y="98.54" width="14.4" height="25.78"/>
          <rect class="cls-14" x="122.68" y="111.68" width="14.4" height="12.63"/>
          <rect class="cls-18" x="48.83" y="98.54" width="14.4" height="25.78"/>
          <rect class="cls-14" x="48.83" y="111.68" width="14.4" height="12.63"/>
          <rect class="cls-19" x="58.88" y="98.54" width="2.59" height="25.78"/>
          <rect class="cls-15" x="58.88" y="111.68" width="2.59" height="12.63"/>
          <rect class="cls-19" x="125.23" y="98.54" width="2.59" height="25.78"/>
          <rect class="cls-15" x="125.23" y="111.68" width="2.59" height="12.63"/>
          <g>
            <path class="cls-23" d="M95.15,92.54c-11.63,0-21.06,9.43-21.06,21.06s9.43,21.06,21.06,21.06,21.06-9.43,21.06-21.06-9.43-21.06-21.06-21.06Zm0,36.98c-8.79,0-15.91-7.12-15.91-15.91s7.12-15.91,15.91-15.91,15.91,7.12,15.91,15.91-7.12,15.91-15.91,15.91Z"/>
            <circle class="cls-23" cx="95.15" cy="113.61" r="7.14"/>
            <rect class="cls-23" x="99.28" y="112.16" width="14.48" height="2.89"/>
            <rect class="cls-23" x="93.7" y="94.99" width="2.89" height="14.48"/>
            <rect class="cls-23" x="76.54" y="112.16" width="14.48" height="2.89"/>
            <rect class="cls-23" x="93.7" y="117.73" width="2.89" height="14.48"/>
            <path class="cls-23" d="M100.81,113.61c0,3.13-2.53,5.66-5.66,5.66s-5.66-2.53-5.66-5.66,2.53-5.66,5.66-5.66,5.66,2.53,5.66,5.66Z"/>
            <polygon class="cls-23" points="92.71 117.83 90.27 113.61 92.71 109.38 97.59 109.38 100.03 113.61 97.59 117.83 92.71 117.83"/>
            <path class="cls-23" d="M97.33,113.61c0,1.2-.98,2.18-2.18,2.18s-2.18-.98-2.18-2.18,.98-2.18,2.18-2.18,2.18,.98,2.18,2.18Z"/>
          </g>
          <g>
            <path class="cls-33" d="M92.97,90.36c-11.63,0-21.06,9.43-21.06,21.06s9.43,21.06,21.06,21.06,21.06-9.43,21.06-21.06-9.43-21.06-21.06-21.06Zm0,36.98c-8.79,0-15.91-7.12-15.91-15.91s7.12-15.91,15.91-15.91,15.91,7.12,15.91,15.91-7.12,15.91-15.91,15.91Z"/>
            <circle class="cls-33" cx="92.97" cy="111.42" r="7.14"/>
            <rect class="cls-33" x="97.1" y="109.98" width="14.48" height="2.89"/>
            <rect class="cls-33" x="91.52" y="92.81" width="2.89" height="14.48"/>
            <rect class="cls-33" x="74.36" y="109.98" width="14.48" height="2.89"/>
            <rect class="cls-33" x="91.52" y="115.55" width="2.89" height="14.48"/>
            <path class="cls-26" d="M98.63,111.42c0,3.13-2.53,5.66-5.66,5.66s-5.66-2.53-5.66-5.66,2.53-5.66,5.66-5.66,5.66,2.53,5.66,5.66Z"/>
            <polygon class="cls-29" points="90.53 115.65 88.09 111.42 90.53 107.2 95.41 107.2 97.85 111.42 95.41 115.65 90.53 115.65"/>
            <path class="cls-35" d="M95.15,111.42c0,1.2-.98,2.18-2.18,2.18s-2.18-.98-2.18-2.18,.98-2.18,2.18-2.18,2.18,.98,2.18,2.18Z"/>
          </g>
        </g>
        <g>
          <rect class="cls-25" x="83.57" y="70.88" width="19.03" height="13.69"/>
          <rect class="cls-29" x="83.57" y="70.88" width="6.5" height="13.69"/>
          <rect class="cls-18" x="82.36" y="80.27" width="21.45" height="4.31"/>
          <rect class="cls-14" x="82.36" y="80.27" width="6.49" height="4.31"/>
          <rect class="cls-25" x="101.48" y="52.97" width="15.01" height="19.03"/>
          <rect class="cls-29" x="101.48" y="67.09" width="15.01" height="4.91"/>
          <rect class="cls-25" x="107.13" y="49.51" width="17.56" height="19.03" transform="translate(-7.79 99.24) rotate(-45)"/>
          <rect class="cls-29" x="111.36" y="59.72" width="17.56" height="7.06" transform="translate(-9.54 103.47) rotate(-45)"/>
          <rect class="cls-18" x="117.36" y="43.79" width="5.56" height="21.97" transform="translate(-3.55 101) rotate(-45)"/>
          <rect class="cls-14" x="122.55" y="56.31" width="5.56" height="7.31" transform="translate(-5.69 106.18) rotate(-45)"/>
          <path class="cls-29" d="M105.61,66.53c-1.7,5.29-6.67,9.11-12.52,9.11-7.26,0-13.15-5.89-13.15-13.15s5.89-13.15,13.15-13.15,13.15,5.89,13.15,13.15c0,1.41-.22,2.77-.63,4.04h0Z"/>
          <circle class="cls-25" cx="93.09" cy="61.19" r="8.88"/>
          <rect class="cls-25" x="84.69" y="45.7" width="16.79" height="7.28"/>
          <rect class="cls-29" x="84.69" y="45.7" width="5.38" height="7.28"/>
          <rect class="cls-29" x="96.1" y="45.7" width="5.38" height="7.28"/>
          <rect class="cls-1" x="89.46" y="33.23" width="7.24" height="12.47"/>
          <path class="cls-33" d="M93.09,36.1l-10.17,1.37c-1.58,.21-2.98-1.02-2.98-2.61h0c0-1.6,1.4-2.82,2.98-2.61l10.17,1.37v2.49Z"/>
          <path class="cls-16" d="M90.77,35.49h-7.68c-1.58,0-2.39-1.17-2.47-2.39-.42,.46-.68,1.07-.68,1.75h0c0,1.6,1.4,2.82,2.98,2.61l10.17-1.37v-2.22c-.31,.9-1.09,1.61-2.32,1.61Z"/>
          <path class="cls-33" d="M93.09,36.1l10.17,1.37c1.58,.21,2.98-1.02,2.98-2.61h0c0-1.6-1.4-2.82-2.98-2.61l-10.17,1.37v2.49Z"/>
          <path class="cls-16" d="M95.41,35.49h7.68c1.58,0,2.39-1.17,2.47-2.39,.42,.46,.68,1.07,.68,1.75h0c0,1.6-1.4,2.82-2.98,2.61l-10.17-1.37v-2.22c.31,.9,1.09,1.61,2.32,1.61Z"/>
          <rect class="cls-18" x="87.74" y="38.42" width="10.69" height="7.28"/>
          <rect class="cls-12" x="85.7" y="45.04" width="14.76" height=".65"/>
          <rect class="cls-12" x="86.92" y="38.42" width="12.33" height="1.14" transform="translate(-3.15 8.59) rotate(-5.2)"/>
          <rect class="cls-12" x="86.92" y="40.68" width="12.33" height="1.14" transform="translate(-3.35 8.6) rotate(-5.2)"/>
          <rect class="cls-12" x="86.92" y="42.93" width="12.33" height="1.14" transform="translate(-3.56 8.61) rotate(-5.2)"/>
          <path class="cls-16" d="M96.1,34.85c0,1.66-1.35,3.01-3.01,3.01s-3.01-1.35-3.01-3.01,1.35-3.01,3.01-3.01,3.01,1.35,3.01,3.01Z"/>
          <circle class="cls-33" cx="93.09" cy="33.74" r="1.9"/>
          <rect class="cls-19" x="91.11" y="30.74" width="3.95" height="1.48" rx=".71" ry=".71"/>
        </g>
      </g>
    </g>
  </g>
</svg>