<svg width="960" height="985" viewBox="0 0 960 985" fill="none" xmlns="http://www.w3.org/2000/svg">
<g style="mix-blend-mode:soft-light">
<path d="M617.833 177.869V582.223C617.833 618.427 588.37 647.889 552.166 647.889H511.278C499.217 647.889 489.389 657.717 489.389 669.778V985H445.611V669.778C445.611 633.574 475.074 604.111 511.278 604.111H552.166C564.227 604.111 574.055 594.283 574.055 582.223V177.869C574.055 165.808 564.227 155.98 552.166 155.98H511.278C475.074 155.98 445.611 126.518 445.611 90.3135V0H489.389V90.3135C489.389 102.374 499.217 112.202 511.278 112.202H552.166C588.37 112.202 617.833 141.665 617.833 177.869Z" fill="#E3E7E8"/>
<path d="M617.833 177.869V582.223C617.833 618.427 588.37 647.889 552.166 647.889H511.278C499.217 647.889 489.389 657.717 489.389 669.778V985H467.5V669.778C467.5 645.635 487.134 626 511.278 626H552.166C576.31 626 595.944 606.366 595.944 582.223V177.869C595.944 153.726 576.31 134.091 552.166 134.091H511.278C487.134 134.091 467.5 114.457 467.5 90.3135V0H489.389V90.3135C489.389 102.374 499.217 112.202 511.278 112.202H552.166C588.37 112.202 617.833 141.665 617.833 177.869Z" fill="#BDC3C7"/>
<g style="mix-blend-mode:multiply">
<path d="M511.278 155.98H530.693V112.202H511.278C499.217 112.202 489.389 102.374 489.389 90.3136V74.9695L484.748 79.6099C471.331 93.0278 453.622 86.5925 445.611 74.3128V90.3136C445.611 126.518 475.074 155.98 511.278 155.98Z" fill="#BDC3C7"/>
</g>
<g style="mix-blend-mode:multiply">
<path d="M552.166 112.202H534.677V155.98H552.166C564.227 155.98 574.055 165.808 574.055 177.869V582.223C574.055 594.283 564.227 604.111 552.166 604.111H511.278C475.074 604.111 445.611 633.574 445.611 669.778V931.788C455.724 917.407 480.962 918.239 489.389 934.196V669.778C489.389 657.717 499.217 647.889 511.278 647.889H552.166C588.37 647.889 617.833 618.427 617.833 582.223V177.869C617.833 141.665 588.37 112.202 552.166 112.202Z" fill="#BDC3C7"/>
</g>
<path d="M960 470.611V514.389H512.372C476.168 514.389 446.706 484.926 446.706 448.722V177.869C446.706 141.665 476.168 112.202 512.372 112.202H669.972C682.033 112.202 691.861 102.374 691.861 90.3136V0H735.639V90.3136C735.639 126.518 706.176 155.98 669.972 155.98H512.372C500.311 155.98 490.483 165.808 490.483 177.869V448.722C490.483 460.783 500.311 470.611 512.372 470.611H960Z" fill="#E3E7E8"/>
<path d="M960 470.611V492.5H512.372C488.229 492.5 468.594 472.866 468.594 448.722V177.869C468.594 153.726 488.229 134.091 512.372 134.091H669.972C694.116 134.091 713.75 114.457 713.75 90.3135V0H735.639V90.3135C735.639 126.518 706.176 155.98 669.972 155.98H512.372C500.311 155.98 490.483 165.808 490.483 177.869V448.722C490.483 460.783 500.311 470.611 512.372 470.611H960Z" fill="#BDC3C7"/>
<g style="mix-blend-mode:multiply">
<path d="M484.748 417.859L490.483 423.594V304.387C481.75 320.059 456.556 320.563 446.706 305.963V421.58C455.155 410.351 471.9 405.032 484.748 417.859Z" fill="#BDC3C7"/>
</g>
<path d="M960 224.361V268.139H757.528C745.467 268.139 735.639 277.967 735.639 290.028V320.103C735.639 356.307 706.176 385.77 669.972 385.77H265.028C252.967 385.77 243.139 395.598 243.139 407.659V694.972C243.139 731.176 213.676 760.639 177.472 760.639H-25V716.861H177.472C189.533 716.861 199.361 707.033 199.361 694.972V407.659C199.361 371.454 228.824 341.992 265.028 341.992H669.972C682.033 341.992 691.861 332.186 691.861 320.103V290.028C691.861 253.824 721.324 224.361 757.528 224.361H960Z" fill="#E3E7E8"/>
<path d="M960 246.25V268.139H757.528C745.467 268.139 735.639 277.967 735.639 290.028V320.103C735.639 356.307 706.176 385.77 669.972 385.77H265.028C252.967 385.77 243.139 395.598 243.139 407.659V694.972C243.139 731.176 213.676 760.639 177.472 760.639H-25V738.75H177.472C201.616 738.75 221.25 719.116 221.25 694.972V407.659C221.25 383.515 240.884 363.881 265.028 363.881H669.972C694.116 363.881 713.75 344.247 713.75 320.103V290.028C713.75 265.884 733.384 246.25 757.528 246.25H960Z" fill="#BDC3C7"/>
<g style="mix-blend-mode:multiply">
<path d="M295.453 341.992C309.331 352.674 307.886 378.087 291.207 385.77H406.452C386.971 380.604 383.775 354.162 396.843 341.992H295.453Z" fill="#BDC3C7"/>
</g>
<g style="mix-blend-mode:multiply">
<path d="M153.001 716.861H50.8013C65.2917 726.842 64.5913 752.08 48.7656 760.639H154.992C139.167 752.08 138.51 726.842 153.001 716.861Z" fill="#BDC3C7"/>
</g>
<path d="M960 716.861V760.639H646.376C634.315 760.639 624.487 770.467 624.487 782.528V834.273C624.487 870.477 595.025 899.94 558.82 899.94H140.349C104.123 899.94 74.682 870.477 74.682 834.273V537.372C74.682 525.311 64.8539 515.483 52.7931 515.483H-25V471.706H52.7931C88.9973 471.706 118.46 501.168 118.46 537.372V834.273C118.46 846.334 128.266 856.162 140.349 856.162H558.82C570.903 856.162 580.709 846.334 580.709 834.273V782.528C580.709 746.324 610.172 716.861 646.376 716.861H960Z" fill="#E3E7E8"/>
<path d="M960 738.75V760.639H646.376C634.315 760.639 624.487 770.467 624.487 782.528V834.273C624.487 870.477 595.025 899.94 558.82 899.94H140.349C104.123 899.94 74.682 870.477 74.682 834.273V537.372C74.682 525.311 64.8539 515.483 52.7931 515.483H-25V493.594H52.7931C76.9147 493.594 96.5709 513.229 96.5709 537.372V834.273C96.5709 858.417 116.205 878.051 140.349 878.051H558.82C582.964 878.051 602.598 858.417 602.598 834.273V782.528C602.598 758.384 622.233 738.75 646.376 738.75H960Z" fill="#BDC3C7"/>
<g style="mix-blend-mode:multiply">
<path d="M766.896 716.861H666.032C680.523 726.842 679.822 752.08 663.997 760.639H768.888C753.063 752.08 752.406 726.842 766.896 716.861Z" fill="#BDC3C7"/>
</g>
<path d="M735.639 669.778V985H691.861V669.778C691.861 657.717 682.033 647.889 669.972 647.889H386.708C350.504 647.889 321.041 618.427 321.041 582.223V290.028C321.041 277.967 311.213 268.139 299.153 268.139H-25V224.361H299.153C335.357 224.361 364.819 253.824 364.819 290.028V582.223C364.819 594.283 374.625 604.111 386.708 604.111H669.972C706.176 604.111 735.639 633.574 735.639 669.778Z" fill="#BDC3C7"/>
<path d="M735.639 669.778V985H713.75V669.778C713.75 645.635 694.116 626 669.972 626H386.708C362.565 626 342.93 606.366 342.93 582.223V290.028C342.93 265.884 323.296 246.25 299.153 246.25H-25V224.361H299.153C335.357 224.361 364.819 253.824 364.819 290.028V582.223C364.819 594.283 374.625 604.111 386.708 604.111H669.972C706.176 604.111 735.639 633.574 735.639 669.778Z" fill="#E3E7E8"/>
<path d="M489.28 682.036V818.272H445.546V796.077C445.546 786.402 437.709 778.566 428.034 778.566H426.655V744.2H428.034C429.413 744.2 430.749 744.047 432.04 743.741C439.789 741.924 445.546 734.985 445.546 726.689V682.036H489.28Z" fill="#E3E7E8"/>
<path d="M462.728 693.506V721.852C462.728 733.934 452.922 743.741 440.839 743.741H432.04C439.789 741.924 445.545 734.985 445.545 726.689V693.506H462.728Z" fill="#BDC3C7"/>
<path d="M492.081 818.272H443.4V840.73H492.081V818.272Z" fill="#34495E"/>
<path d="M484.092 682.036H441.365V706.486H484.092V682.036Z" fill="#34495E"/>
<path d="M494.095 682.036H471.768V706.486H494.095V682.036Z" fill="#222F3D"/>
<path d="M494.095 685.691H441.365V689.325H494.095V685.691Z" fill="#F1C40F"/>
<path d="M494.095 685.691H471.768V689.325H494.095V685.691Z" fill="#F39C12"/>
<path d="M427.75 751.073H391.983V771.715H427.75V751.073Z" fill="#202E3B"/>
<path d="M427.75 746.17H406.868V776.618H427.75V746.17Z" fill="#34495E"/>
<path d="M427.75 743.741H425.867V779.026H427.75V743.741Z" fill="#597DA1"/>
<path d="M408.531 743.741L411.749 778.741L408.488 779.026L405.27 744.047L408.531 743.741Z" fill="#597DA1"/>
<path d="M415.01 743.741L418.206 778.741L414.945 779.026L411.749 744.047L415.01 743.741Z" fill="#597DA1"/>
<path d="M421.468 743.741L424.685 778.741L421.424 779.026L418.206 744.047L421.468 743.741Z" fill="#597DA1"/>
<path d="M368.65 806.824C393.746 806.824 414.091 786.48 414.091 761.383C414.091 736.287 393.746 715.942 368.65 715.942C343.553 715.942 323.208 736.287 323.208 761.383C323.208 786.48 343.553 806.824 368.65 806.824Z" fill="#82271D"/>
<path d="M368.65 803.629C391.981 803.629 410.895 784.715 410.895 761.383C410.895 738.052 391.981 719.138 368.65 719.138C345.318 719.138 326.404 738.052 326.404 761.383C326.404 784.715 345.318 803.629 368.65 803.629Z" fill="#F1C40F"/>
<path d="M368.65 801.505C390.809 801.505 408.772 783.542 408.772 761.383C408.772 739.224 390.809 721.261 368.65 721.261C346.491 721.261 328.527 739.224 328.527 761.383C328.527 783.542 346.491 801.505 368.65 801.505Z" fill="#C0392B"/>
<path d="M368.65 796.055C387.799 796.055 403.322 780.532 403.322 761.383C403.322 742.234 387.799 726.711 368.65 726.711C349.501 726.711 333.978 742.234 333.978 761.383C333.978 780.532 349.501 796.055 368.65 796.055Z" fill="#ECF0F1"/>
<path d="M368.65 726.711C387.803 726.711 403.322 742.23 403.322 761.383C403.322 780.536 387.803 796.055 368.65 796.055V726.711Z" fill="#CED4D9"/>
<path d="M373.575 761.383C373.575 764.119 371.364 766.33 368.628 766.33C365.892 766.33 363.681 764.119 363.681 761.383C363.681 758.647 365.892 756.436 368.628 756.436C371.364 756.436 373.575 758.647 373.575 761.383Z" fill="#34495E"/>
<path d="M368.475 795.245V784.717C369.832 784.717 371.189 784.585 372.524 784.345L374.363 794.72C372.437 795.07 370.445 795.245 368.453 795.245H368.475ZM351.423 790.736C349.716 789.751 348.074 788.613 346.564 787.343L353.306 779.244C354.356 780.12 355.473 780.908 356.677 781.587L351.423 790.736ZM390.32 787.234L383.534 779.179C384.563 778.303 385.548 777.318 386.424 776.268L394.501 783.031C393.231 784.542 391.83 785.964 390.32 787.234ZM336.386 772.984C335.707 771.124 335.182 769.197 334.832 767.249L345.207 765.389C345.448 766.724 345.798 768.059 346.279 769.329L336.408 772.984H336.386ZM401.943 767.052L391.568 765.236C391.808 763.9 391.918 762.521 391.918 761.142L400.279 760.88L402.446 760.923C402.446 763.112 402.271 765.104 401.943 767.052ZM346.17 753.219L336.232 749.694C336.911 747.812 337.743 745.995 338.728 744.288L347.877 749.519C347.221 750.679 346.63 751.927 346.17 753.219ZM388.656 749.169C387.956 747.987 387.146 746.849 386.249 745.82L394.26 738.969C395.529 740.457 396.69 742.077 397.696 743.763L388.656 749.169ZM356.436 740.851L351.095 731.767C352.802 730.782 354.597 729.907 356.436 729.228L360.135 739.1C358.844 739.582 357.596 740.173 356.436 740.873V740.851ZM376.223 738.947C374.932 738.487 373.597 738.137 372.262 737.918L373.991 727.521C375.939 727.849 377.865 728.331 379.726 728.988L376.223 738.925V738.947Z" fill="#34495E"/>
<path d="M382.637 746.083L371.167 762.215L367.03 759.282L378.5 743.15C378.763 742.799 379.266 742.712 379.616 742.953L382.44 744.966C382.79 745.229 382.878 745.733 382.637 746.083Z" fill="#34495E"/>
<path d="M380.185 746.586L369.766 761.23L368.409 760.267L378.828 745.623C378.916 745.514 379.069 745.47 379.2 745.557L380.12 746.214C380.229 746.302 380.273 746.455 380.185 746.586Z" fill="#F1C40F"/>
<path d="M370.357 761.383C370.357 762.324 369.591 763.112 368.628 763.112C367.665 763.112 366.899 762.346 366.899 761.383C366.899 760.42 367.665 759.654 368.628 759.654C369.591 759.654 370.357 760.42 370.357 761.383Z" fill="#F1C40F"/>
<path d="M462.728 785.001V818.272H445.546V796.077C445.546 786.402 437.709 778.566 428.034 778.566H427.75V763.112H440.839C452.922 763.112 462.728 772.897 462.728 785.001Z" fill="#BDC3C7"/>
<path d="M829.411 171.478H812.775V201.465H829.411V171.478Z" fill="#202E3B"/>
<path d="M833.351 184.742H808.813V201.443H833.351V184.742Z" fill="#34495E"/>
<path d="M840.377 200.699H801.787V226.003H840.377V200.699Z" fill="#E3E7E8"/>
<path d="M801.787 226.003H814.505C818.138 226.003 821.071 223.07 821.071 219.436V200.699H801.787V226.003Z" fill="#BDC3C7"/>
<path d="M838.013 199.955H804.129V201.465H838.013V199.955Z" fill="#597DA1"/>
<path d="M807.159 183.476L806.921 186.092L835.107 188.657L835.345 186.041L807.159 183.476Z" fill="#597DA1"/>
<path d="M807.138 188.65L806.9 191.266L835.086 193.831L835.324 191.216L807.138 188.65Z" fill="#597DA1"/>
<path d="M807.138 193.825L806.9 196.441L835.086 199.006L835.324 196.39L807.138 193.825Z" fill="#597DA1"/>
<path d="M818.247 171.478H823.917C824.858 171.478 825.624 170.711 825.624 169.77C825.624 168.829 824.858 168.063 823.917 168.063H818.247C817.306 168.063 816.54 168.829 816.54 169.77C816.54 170.711 817.306 171.478 818.247 171.478Z" fill="#F1C40F"/>
<path d="M760.833 182.51L765.911 177.409H843.442L845.302 179.27L849.001 175.549L845.609 172.156H763.744L757.112 178.788L760.833 182.51Z" fill="#C0392B"/>
<path d="M831.709 172.156H810.477V177.409H831.709V172.156Z" fill="#E74C3C"/>
<path d="M860.143 226.003H782.021V268.467H860.143V226.003Z" fill="#E3E7E8"/>
<path d="M860.143 247.235H782.021V268.467H860.143V247.235Z" fill="#BDC3C7"/>
<path d="M871.131 226.178V268.314L868.767 277.879H851.541L849.177 268.314V226.178L849.768 223.814L851.541 216.612H868.767L870.54 223.814L871.131 226.178Z" fill="#F39C12"/>
<path d="M868.548 260.762H851.759C848.914 251.985 848.914 242.507 851.759 233.73H868.548C871.394 242.507 871.394 251.985 868.548 260.762Z" fill="#F1C40F"/>
<path d="M870.54 223.814C870.256 227.163 869.599 230.512 868.548 233.73H851.759C850.687 230.512 850.03 227.163 849.768 223.814L851.541 216.612H868.767L870.54 223.814Z" fill="#FFE372"/>
<path d="M870.54 270.678C870.256 267.329 869.599 263.98 868.548 260.762H851.759C850.687 263.98 850.03 267.329 849.768 270.678L851.541 277.879H868.767L870.54 270.678Z" fill="#D35400"/>
<path d="M792.988 226.178V268.314L790.624 277.879H773.397L771.033 268.314V226.178L771.624 223.814L773.397 216.612H790.624L792.397 223.814L792.988 226.178Z" fill="#F39C12"/>
<path d="M790.427 260.762H773.638C770.792 251.985 770.792 242.507 773.638 233.73H790.427C793.272 242.507 793.272 251.985 790.427 260.762Z" fill="#F1C40F"/>
<path d="M792.397 223.814C792.112 227.163 791.456 230.512 790.405 233.73H773.616C772.544 230.512 771.887 227.163 771.624 223.814L773.397 216.612H790.624L792.397 223.814Z" fill="#FFE372"/>
<path d="M792.397 270.678C792.112 267.329 791.456 263.98 790.405 260.762H773.616C772.544 263.98 771.887 267.329 771.624 270.678L773.397 277.879H790.624L792.397 270.678Z" fill="#D35400"/>
<path d="M801.787 218.188V226.003H793.973C798.285 226.003 801.787 222.501 801.787 218.188Z" fill="#BDC3C7"/>
<path d="M840.377 218.188V226.003H848.192C843.879 226.003 840.377 222.501 840.377 218.188Z" fill="#E3E7E8"/>
<path d="M795.417 221.297H792.922V273.195H795.417V221.297Z" fill="#34495E"/>
<path d="M849.001 221.297H846.506V273.195H849.001V221.297Z" fill="#34495E"/>
<path d="M821.093 262.229C808.835 262.229 799.248 255.64 799.248 247.235C799.248 238.83 808.835 232.241 821.093 232.241C833.351 232.241 842.938 238.83 842.938 247.235C842.938 255.64 833.351 262.229 821.093 262.229Z" fill="#ECF0F1"/>
<path d="M838.538 247.235C838.538 253.101 830.724 257.851 821.071 257.851C811.418 257.851 803.604 253.101 803.604 247.235C803.604 241.369 811.418 236.619 821.071 236.619C830.724 236.619 838.538 241.369 838.538 247.235Z" fill="#2980B9"/>
<path d="M66.9551 423.835H73.0403V382.53H66.9551C31.3638 382.53 2.38293 411.489 2.38293 447.102V454.041H43.6873V447.102C43.6873 434.276 54.1283 423.835 66.9551 423.835Z" fill="#E3E7E8"/>
<path d="M66.9551 423.835H73.0402V403.193H66.9551C42.7241 403.193 23.046 422.915 23.046 447.102V454.041H43.6872V447.102C43.6872 434.276 54.1282 423.835 66.9551 423.835Z" fill="#BDC3C7"/>
<path d="M49.8819 454.041H-3.85535V468.466H49.8819V454.041Z" fill="#3B536B"/>
<path d="M49.8818 454.041H26.4388V468.466H49.8818V454.041Z" fill="#2C3E50"/>
<path d="M166.922 376.117H152.497V429.854H166.922V376.117Z" fill="#3B536B"/>
<path d="M166.922 408.49H152.497V429.854H166.922V408.49Z" fill="#2C3E50"/>
<path d="M171.497 379.597H166.922V426.352H171.497V379.597Z" fill="#2C3E50"/>
<path d="M171.497 407.79H166.922V426.374H171.497V407.79Z" fill="#1C2833"/>
<path d="M199.099 376.489V429.482L196.122 441.521H174.452L171.475 429.482V376.489L172.219 373.512L174.452 364.45H196.122L198.354 373.512L199.099 376.489Z" fill="#F39C12"/>
<path d="M195.859 419.982C188.811 419.982 181.762 419.982 174.736 419.982C171.146 408.928 171.146 397.043 174.736 385.989H195.859C199.449 397.043 199.449 408.928 195.859 419.982Z" fill="#F1C40F"/>
<path d="M198.354 373.512C198.004 377.715 197.172 381.939 195.859 385.989H174.736C173.379 381.939 172.569 377.737 172.241 373.512L174.474 364.45H196.144L198.376 373.512H198.354Z" fill="#FFE372"/>
<path d="M198.354 432.459C198.004 428.256 197.172 424.032 195.859 419.982H174.736C173.379 424.032 172.569 428.234 172.241 432.459L174.474 441.521H196.144L198.376 432.459H198.354Z" fill="#D35400"/>
<path d="M45.2414 468.313H0.960205V471.333H45.2414V468.313Z" fill="#F1C40F"/>
<path d="M152.475 382.53H73.0183V423.988H152.475V382.53Z" fill="#E3E7E8"/>
<path d="M152.475 403.259H73.0183V423.988H152.475V403.259Z" fill="#BDC3C7"/>
<path d="M834.051 579.443H795.111V702.984H834.051V579.443Z" fill="#E3E7E8"/>
<path d="M866.275 607.076L800.665 672.686L828.2 700.221L893.81 634.611L866.275 607.076Z" fill="#E3E7E8"/>
<path d="M834.664 693.746C827.113 686.195 827.113 673.937 834.664 666.385L880.149 620.9L893.83 634.581L834.664 693.746Z" fill="#BDC3C7"/>
<path d="M814.57 579.443H795.111V702.984H814.57V579.443Z" fill="#BDC3C7"/>
<path d="M863.872 604.665L853.517 615.02L885.85 647.353L896.205 636.998L863.872 604.665Z" fill="#3B536B"/>
<path d="M881.953 622.766L871.598 633.121L885.853 647.376L896.208 637.021L881.953 622.766Z" fill="#2C3E50"/>
<path d="M837.291 605.841H791.85V618.033H837.291V605.841Z" fill="#3B536B"/>
<path d="M809.908 605.841H791.85V618.033H809.908V605.841Z" fill="#2C3E50"/>
<path d="M834.358 601.988H794.805V605.841H834.358V601.988Z" fill="#2C3E50"/>
<path d="M810.521 601.988H794.805V605.841H810.521V601.988Z" fill="#1C2833"/>
<path d="M836.984 578.633H792.156L782 581.15V599.471L792.156 601.988H836.984L839.502 601.353L847.163 599.471V581.15L839.502 579.268L836.984 578.633Z" fill="#F39C12"/>
<path d="M800.189 581.369V599.23C809.536 602.273 819.605 602.273 828.951 599.23V581.369C819.605 578.326 809.536 578.326 800.189 581.369Z" fill="#F1C40F"/>
<path d="M839.502 579.268C835.934 579.574 832.366 580.274 828.951 581.391V599.252C832.366 600.39 835.934 601.091 839.502 601.375L847.163 599.493V581.172L839.502 579.289V579.268Z" fill="#FFE372"/>
<path d="M789.639 579.268C793.207 579.574 796.753 580.274 800.189 581.391V599.252C796.775 600.39 793.207 601.091 789.639 601.375L781.978 599.493V581.172L789.639 579.289V579.268Z" fill="#D35400"/>
<path d="M837.291 702.962H791.85V715.154H837.291V702.962Z" fill="#3B536B"/>
<path d="M811.681 702.962H791.85V715.154H811.681V702.962Z" fill="#2C3E50"/>
<path d="M833.373 715.044H795.921V717.605H833.373V715.044Z" fill="#F1C40F"/>
<path d="M408.925 441.849H400.323V435.326H408.925C409.56 435.961 409.91 436.311 410.545 436.946V440.251C409.91 440.886 409.56 441.236 408.925 441.871V441.849Z" fill="#34495E"/>
<path d="M408.925 461.856H400.323V455.333H408.925C409.56 455.967 409.91 456.318 410.545 456.952V460.258C409.91 460.892 409.56 461.243 408.925 461.877V461.856Z" fill="#34495E"/>
<path d="M408.925 481.862H400.323V475.339H408.925C409.56 475.974 409.91 476.324 410.545 476.959V480.264C409.91 480.899 409.56 481.249 408.925 481.884V481.862Z" fill="#34495E"/>
<path d="M389.816 430.839V486.327H380.251V483.591C380.251 480.921 378.084 478.754 375.413 478.754H371.145C368.475 478.754 366.308 480.943 366.308 483.591V516.906H319.662V400.216H366.308V433.531C366.308 436.202 368.497 438.369 371.145 438.369H375.413C378.084 438.369 380.251 436.202 380.251 433.531V430.817H389.816V430.839Z" fill="#BDC3C7"/>
<path d="M360.441 400.238H339.647V516.928H360.441V400.238Z" fill="#E3E7E8"/>
<path d="M401.089 430.839H391.808V486.349H401.089V430.839Z" fill="#BDC3C7"/>
<path d="M399.404 430.839H393.494V486.349H399.404V430.839Z" fill="#E3E7E8"/>
<path d="M391.808 433.553H389.816V483.635H391.808V433.553Z" fill="#34495E"/>
<path d="M388.131 430.839H382.221V486.349H388.131V430.839Z" fill="#E3E7E8"/>
<path d="M408.137 434.823V442.309L407.546 444.016H403.3L402.709 442.309V434.823L402.862 434.407L403.3 433.137H407.546L407.984 434.407L408.137 434.823Z" fill="#F39C12"/>
<path d="M407.503 440.974H403.366C402.665 439.419 402.665 437.734 403.366 436.18H407.503C408.203 437.734 408.203 439.419 407.503 440.974Z" fill="#F1C40F"/>
<path d="M407.984 434.407C407.918 434.998 407.743 435.589 407.503 436.158H403.366C403.103 435.589 402.95 434.998 402.884 434.407L403.322 433.137H407.568L408.006 434.407H407.984Z" fill="#FFE372"/>
<path d="M407.984 442.747C407.918 442.156 407.743 441.565 407.503 440.995H403.366C403.103 441.565 402.95 442.156 402.884 442.747L403.322 444.016H407.568L408.006 442.747H407.984Z" fill="#D35400"/>
<path d="M408.137 454.829V462.315L407.546 464.023H403.3L402.709 462.315V454.829L402.862 454.413L403.3 453.144H407.546L407.984 454.413L408.137 454.829Z" fill="#F39C12"/>
<path d="M407.503 460.98H403.366C402.665 459.426 402.665 457.74 403.366 456.186H407.503C408.203 457.74 408.203 459.426 407.503 460.98Z" fill="#F1C40F"/>
<path d="M407.984 454.413C407.918 455.004 407.743 455.595 407.503 456.164H403.366C403.103 455.595 402.95 455.004 402.884 454.413L403.322 453.144H407.568L408.006 454.413H407.984Z" fill="#FFE372"/>
<path d="M407.984 462.753C407.918 462.162 407.743 461.571 407.503 461.002H403.366C403.103 461.571 402.95 462.162 402.884 462.753L403.322 464.023H407.568L408.006 462.753H407.984Z" fill="#D35400"/>
<path d="M408.137 474.836V482.322L407.546 484.029H403.3L402.709 482.322V474.836L402.862 474.42L403.3 473.15H407.546L407.984 474.42L408.137 474.836Z" fill="#F39C12"/>
<path d="M407.503 480.986H403.366C402.665 479.432 402.665 477.747 403.366 476.193H407.503C408.203 477.747 408.203 479.432 407.503 480.986Z" fill="#F1C40F"/>
<path d="M407.984 474.42C407.918 475.011 407.743 475.602 407.503 476.171H403.366C403.103 475.602 402.95 475.011 402.884 474.42L403.322 473.15H407.568L408.006 474.42H407.984Z" fill="#FFE372"/>
<path d="M407.984 482.759C407.918 482.168 407.743 481.577 407.503 481.008H403.366C403.103 481.577 402.95 482.168 402.884 482.759L403.322 484.029H407.568L408.006 482.759H407.984Z" fill="#D35400"/>
<path d="M380.273 471.093V483.613C380.273 480.943 378.106 478.776 375.435 478.776H371.167C368.497 478.776 366.33 480.965 366.33 483.613V471.093C366.33 468.422 368.518 466.255 371.167 466.255H375.435C378.106 466.255 380.273 468.444 380.273 471.093Z" fill="#95A5A6"/>
<path d="M369.153 399.231H316.007V408.228H369.153V399.231Z" fill="#3B536B"/>
<path d="M337.13 399.231H316.007V408.228H337.13V399.231Z" fill="#2C3E50"/>
<path d="M369.153 508.107H316.007V517.103H369.153V508.107Z" fill="#3B536B"/>
<path d="M337.13 508.107H316.007V517.103H337.13V508.107Z" fill="#2C3E50"/>
<path d="M276.016 859.248H259.468C253.164 849.223 242.023 842.525 229.305 842.525C216.588 842.525 205.446 849.223 199.142 859.248H182.594V897.072H199.142C205.446 907.097 216.588 913.795 229.305 913.795C242.023 913.795 253.164 907.097 259.468 897.072H276.016V859.248Z" fill="#E3E7E8"/>
<path d="M182.594 878.992V897.05H199.142C205.446 907.076 216.588 913.774 229.305 913.774C242.023 913.774 253.164 907.076 259.468 897.05H276.016V878.992H182.594Z" fill="#BDC3C7"/>
<path d="M187.191 857.081V899.217L183.01 908.783H152.541L148.36 899.217V857.081L149.389 854.717L152.541 847.516H183.01L186.14 854.717L187.191 857.081Z" fill="#95A5A6"/>
<path d="M182.616 891.666C172.722 891.666 162.807 891.666 152.913 891.666C147.857 882.888 147.857 873.41 152.913 864.633H182.616C187.672 873.41 187.672 882.888 182.616 891.666Z" fill="#BDC3C7"/>
<path d="M186.14 854.717C185.637 858.066 184.477 861.415 182.616 864.633H152.913C151.009 861.415 149.848 858.066 149.389 854.717L152.519 847.516H182.988L186.118 854.717H186.14Z" fill="#ECF0F1"/>
<path d="M186.14 901.582C185.637 898.233 184.477 894.883 182.616 891.666H152.913C151.009 894.883 149.848 898.233 149.389 901.582L152.519 908.783H182.988L186.118 901.582H186.14Z" fill="#7F8C8D"/>
<path d="M306.814 857.081V899.217L302.633 908.783H272.164L267.983 899.217V857.081L269.033 854.717L272.164 847.516H302.633L305.763 854.717L306.814 857.081Z" fill="#95A5A6"/>
<path d="M302.261 891.666C292.367 891.666 282.451 891.666 272.558 891.666C267.501 882.888 267.501 873.41 272.558 864.633H302.261C307.317 873.41 307.317 882.888 302.261 891.666Z" fill="#BDC3C7"/>
<path d="M305.763 854.717C305.26 858.066 304.099 861.415 302.239 864.633H272.536C270.631 861.415 269.471 858.066 269.012 854.717L272.142 847.516H302.611L305.741 854.717H305.763Z" fill="#ECF0F1"/>
<path d="M305.763 901.582C305.26 898.233 304.099 894.883 302.239 891.666H272.536C270.631 894.883 269.471 898.233 269.012 901.582L272.142 908.783H302.611L305.741 901.582H305.763Z" fill="#7F8C8D"/>
<path d="M237.645 812.537H221.009V842.525H237.645V812.537Z" fill="#202E3B"/>
<path d="M241.585 825.802H217.047V842.503H241.585V825.802Z" fill="#34495E"/>
<path d="M246.247 841.015H212.363V842.525H246.247V841.015Z" fill="#597DA1"/>
<path d="M246.247 842.503H212.363V850.055H246.247V842.503Z" fill="#E3E7E8"/>
<path d="M243.332 824.513L215.146 827.078L215.384 829.694L243.57 827.129L243.332 824.513Z" fill="#597DA1"/>
<path d="M243.32 829.702L215.135 832.267L215.373 834.883L243.559 832.317L243.32 829.702Z" fill="#597DA1"/>
<path d="M243.329 834.868L215.143 837.433L215.381 840.049L243.567 837.484L243.329 834.868Z" fill="#597DA1"/>
<path d="M232.151 812.537H226.481C225.54 812.537 224.774 811.771 224.774 810.83C224.774 809.889 225.54 809.123 226.481 809.123H232.151C233.092 809.123 233.858 809.889 233.858 810.83C233.858 811.771 233.092 812.537 232.151 812.537Z" fill="#F1C40F"/>
<path d="M246.006 813.216H210.196L206.803 816.609L210.524 820.33L212.363 818.469H246.006V813.216Z" fill="#C0392B"/>
<path d="M249.333 818.469H239.921V813.216H247.145L252.245 808.138L255.944 811.859L249.333 818.469Z" fill="#C0392B"/>
<path d="M258.855 801.505H305.763V806.759H261.044L255.944 811.859L252.245 808.138L258.855 801.505Z" fill="#C0392B"/>
<path d="M239.921 813.216H218.689V818.469H239.921V813.216Z" fill="#E74C3C"/>
<path d="M243.205 866.515H215.428C210.592 866.515 206.672 870.435 206.672 875.271V882.735C206.672 887.571 210.592 891.491 215.428 891.491H243.205C248.04 891.491 251.96 887.571 251.96 882.735V875.271C251.96 870.435 248.04 866.515 243.205 866.515Z" fill="#F1C40F"/>
<path d="M243.205 868.704H215.428C211.801 868.704 208.861 871.644 208.861 875.271V882.735C208.861 886.362 211.801 889.302 215.428 889.302H243.205C246.831 889.302 249.771 886.362 249.771 882.735V875.271C249.771 871.644 246.831 868.704 243.205 868.704Z" fill="#2980B9"/>
<path d="M490.002 190.236H447.187V308.02H490.002V190.236Z" fill="#E3E7E8"/>
<path d="M490.002 215.08V300.622C483.566 303.883 476.299 305.678 468.594 305.678C460.89 305.678 453.622 303.861 447.187 300.622V215.08C453.622 211.819 460.89 210.024 468.594 210.024C476.299 210.024 483.566 211.841 490.002 215.08Z" fill="#BDC3C7"/>
<path d="M468.616 190.236H447.187V308.02H468.616V190.236Z" fill="#BDC3C7"/>
<path d="M493.613 181.328H443.597V194.745H493.613V181.328Z" fill="#3B536B"/>
<path d="M463.472 181.328H443.597V194.745H463.472V181.328Z" fill="#2C3E50"/>
<path d="M494.817 177.081H442.393V181.328H494.817V177.081Z" fill="#2C3E50"/>
<path d="M463.232 177.081H442.393V181.328H463.232V177.081Z" fill="#1C2833"/>
<path d="M493.613 308.02H443.597V321.438H493.613V308.02Z" fill="#3B536B"/>
<path d="M465.399 308.02H443.597V321.438H465.399V308.02Z" fill="#2C3E50"/>
<path d="M495.956 321.307H441.408V324.109H495.956V321.307Z" fill="#F1C40F"/>
<path d="M468.594 296.967C495.009 296.967 516.422 275.554 516.422 249.139C516.422 222.725 495.009 201.312 468.594 201.312C442.18 201.312 420.767 222.725 420.767 249.139C420.767 275.554 442.18 296.967 468.594 296.967Z" fill="#F1C40F"/>
<path d="M468.594 294.252C493.51 294.252 513.707 274.055 513.707 249.139C513.707 224.224 493.51 204.026 468.594 204.026C443.679 204.026 423.481 224.224 423.481 249.139C423.481 274.055 443.679 294.252 468.594 294.252Z" fill="#C0392B"/>
<path d="M507.228 249.139C507.228 256.538 505.149 263.433 501.559 269.321C494.774 280.397 482.538 287.773 468.594 287.773C464.042 287.773 459.686 286.985 455.636 285.541C446.312 282.213 438.629 275.406 434.163 266.672C431.471 261.397 429.961 255.443 429.961 249.117C429.961 241.128 432.39 233.73 436.527 227.579C443.466 217.269 455.242 210.484 468.594 210.484C489.936 210.484 507.228 227.776 507.228 249.117V249.139Z" fill="#F1E8C6"/>
<path d="M438.826 271.926C436.133 266.65 434.623 260.697 434.623 254.371C434.623 246.381 437.031 238.983 441.19 232.832C448.128 222.522 459.905 215.737 473.257 215.737C483.479 215.737 492.782 219.721 499.677 226.2C492.65 216.678 481.334 210.484 468.573 210.484C455.811 210.484 443.444 217.269 436.505 227.579C432.368 233.73 429.939 241.15 429.939 249.117C429.939 255.443 431.449 261.397 434.141 266.65C436.177 270.656 438.935 274.224 442.175 277.267C440.927 275.581 439.789 273.786 438.826 271.904V271.926Z" fill="#C7BFA3"/>
<path d="M469.733 285.716L469.58 280.791L470.346 280.747L470.608 285.672C470.324 285.672 470.017 285.694 469.733 285.716ZM462.728 285.256C462.444 285.212 462.137 285.168 461.853 285.103L462.772 280.243C463.013 280.287 463.276 280.331 463.516 280.375L462.728 285.256ZM477.569 284.621L476.365 279.828C476.606 279.762 476.869 279.696 477.109 279.631L478.423 284.38C478.138 284.468 477.854 284.534 477.569 284.599V284.621ZM455.089 283.155C454.805 283.045 454.542 282.936 454.279 282.826L456.205 278.295C456.446 278.405 456.665 278.492 456.906 278.58L455.089 283.177V283.155ZM484.989 281.863L482.779 277.464C482.997 277.354 483.238 277.223 483.457 277.113L485.777 281.469C485.515 281.601 485.252 281.732 484.989 281.863ZM448.107 279.455C447.866 279.28 447.625 279.127 447.384 278.952L450.252 274.924C450.449 275.078 450.668 275.209 450.886 275.362L448.128 279.455H448.107ZM491.622 277.573L488.513 273.742C488.71 273.589 488.907 273.414 489.083 273.261L492.278 277.004C492.059 277.201 491.819 277.376 491.6 277.573H491.622ZM442.065 274.333C441.868 274.115 441.671 273.896 441.474 273.677L445.13 270.372C445.305 270.569 445.48 270.744 445.655 270.919L442.087 274.312L442.065 274.333ZM497.203 271.969L493.351 268.883C493.504 268.686 493.657 268.489 493.811 268.292L497.729 271.269C497.554 271.51 497.378 271.729 497.181 271.969H497.203ZM437.272 268.051C437.118 267.811 436.965 267.548 436.834 267.285L441.124 264.834C441.255 265.053 441.387 265.271 441.518 265.49L437.293 268.051H437.272ZM501.45 265.293L497.028 263.126C497.138 262.907 497.247 262.667 497.357 262.426L501.822 264.505C501.691 264.768 501.581 265.031 501.45 265.293ZM433.944 260.894C433.857 260.609 433.769 260.346 433.682 260.062L438.388 258.573L438.629 259.318L433.944 260.894ZM504.164 257.873L499.37 256.691C499.436 256.45 499.48 256.188 499.545 255.947L504.361 256.997C504.295 257.282 504.23 257.567 504.164 257.851V257.873ZM432.237 253.189C432.215 252.904 432.171 252.598 432.15 252.313L437.075 251.897C437.075 252.16 437.118 252.401 437.14 252.663L432.237 253.211V253.189ZM505.193 250.037L500.268 249.927C500.268 249.665 500.268 249.424 500.268 249.161L505.193 249.03V249.161C505.193 249.446 505.193 249.752 505.193 250.037ZM437.118 245.79L432.215 245.265C432.237 244.98 432.281 244.674 432.325 244.389L437.228 245.024C437.206 245.287 437.162 245.528 437.14 245.79H437.118ZM499.655 242.967C499.611 242.726 499.545 242.463 499.502 242.222L504.317 241.15C504.383 241.434 504.449 241.719 504.492 242.004L499.655 242.967ZM438.563 239.114L433.879 237.538C433.966 237.254 434.076 236.991 434.163 236.706L438.804 238.392C438.716 238.633 438.629 238.873 438.563 239.114ZM497.619 236.444C497.51 236.203 497.422 235.984 497.313 235.765L501.778 233.664C501.909 233.927 502.019 234.189 502.15 234.474L497.641 236.466L497.619 236.444ZM441.43 232.898L437.206 230.359C437.359 230.118 437.512 229.855 437.666 229.614L441.846 232.241C441.715 232.46 441.584 232.679 441.452 232.898H441.43ZM494.205 230.512C494.051 230.315 493.898 230.096 493.745 229.899L497.663 226.9C497.838 227.141 498.013 227.36 498.188 227.601L494.205 230.512ZM445.567 227.426L441.978 224.033C442.175 223.814 442.372 223.617 442.591 223.398L446.093 226.856C445.918 227.032 445.743 227.229 445.567 227.404V227.426ZM489.608 225.434C489.411 225.259 489.236 225.105 489.039 224.93L492.213 221.165C492.432 221.362 492.65 221.537 492.891 221.734L489.608 225.434ZM450.777 222.96L447.997 218.889C448.238 218.714 448.479 218.561 448.741 218.407L451.412 222.544C451.193 222.676 450.996 222.829 450.777 222.96ZM484.026 221.472C483.807 221.34 483.588 221.231 483.348 221.1L485.646 216.744C485.909 216.875 486.171 217.028 486.434 217.16L484.026 221.472ZM456.818 219.743L454.98 215.168C455.242 215.058 455.527 214.949 455.79 214.839L457.519 219.458C457.278 219.546 457.037 219.633 456.796 219.743H456.818ZM477.722 218.801C477.481 218.736 477.241 218.648 477 218.582L478.313 213.833C478.598 213.92 478.882 213.986 479.167 214.073L477.744 218.801H477.722ZM463.407 217.904L462.597 213.045C462.882 213.001 463.188 212.957 463.473 212.913L464.151 217.794C463.91 217.838 463.648 217.86 463.407 217.904ZM471.002 217.576C470.762 217.576 470.499 217.532 470.258 217.532L470.499 212.607C470.805 212.607 471.09 212.651 471.374 212.672L471.002 217.597V217.576Z" fill="#34495E"/>
<path d="M497.422 252.051C497.422 254.458 471.243 256.406 468.835 256.406C466.427 256.406 464.479 254.458 464.479 252.051C464.479 249.643 466.427 247.695 468.835 247.695C471.243 247.695 497.422 249.643 497.422 252.051Z" fill="#C7BFA3"/>
<path d="M497.181 249.139C497.181 251.547 471.002 253.495 468.595 253.495C466.187 253.495 464.239 251.547 464.239 249.139C464.239 246.732 466.187 244.783 468.595 244.783C471.002 244.783 497.181 246.732 497.181 249.139Z" fill="#2C3E50"/>
<path d="M464.26 249.139C464.26 246.732 466.209 244.783 468.616 244.783C471.024 244.783 497.203 246.732 497.203 249.139H464.282H464.26Z" fill="#34495E"/>
<path d="M490.308 249.577L475.884 250.54C474.329 250.606 472.972 249.971 472.972 249.117C472.972 248.264 474.351 247.629 475.884 247.695L490.308 248.658C490.462 248.658 490.571 248.855 490.571 249.096C490.571 249.336 490.462 249.533 490.308 249.533V249.577Z" fill="#F1C40F"/>
<path d="M468.594 253.364C470.928 253.364 472.819 251.472 472.819 249.139C472.819 246.806 470.928 244.915 468.594 244.915C466.261 244.915 464.37 246.806 464.37 249.139C464.37 251.472 466.261 253.364 468.594 253.364Z" fill="#507191"/>
<path d="M470.083 249.139C470.083 249.971 469.426 250.628 468.595 250.628C467.763 250.628 467.106 249.971 467.106 249.139C467.106 248.308 467.763 247.651 468.595 247.651C469.426 247.651 470.083 248.308 470.083 249.139Z" fill="#2C3E50"/>
<path d="M472.14 269.102L472.097 268.993C472.009 268.73 471.878 268.467 471.725 268.226L468.594 261.682L465.464 268.205C465.311 268.445 465.18 268.708 465.092 268.971L465.048 269.08C464.939 269.43 464.851 269.824 464.851 270.218C464.851 272.276 466.515 273.961 468.594 273.961C470.674 273.961 472.337 272.298 472.337 270.218C472.337 269.824 472.25 269.43 472.14 269.08V269.102Z" fill="#2C3E50"/>
<path d="M820.787 910.468H820.809L820.721 910.271C820.546 909.79 820.349 909.33 820.065 908.914L814.548 897.423L809.032 908.914C808.77 909.33 808.551 909.79 808.376 910.271L808.288 910.446H808.31C808.113 911.081 807.96 911.738 807.96 912.438C807.96 916.072 810.893 919.005 814.527 919.005C818.16 919.005 821.093 916.072 821.093 912.438C821.093 911.738 820.962 911.081 820.743 910.446L820.787 910.468Z" fill="#2980B9"/>
<path d="M820.787 910.468H820.809L820.721 910.271C820.546 909.79 820.349 909.33 820.064 908.914L814.548 897.423L814.439 897.641V919.005C814.439 919.005 814.505 919.005 814.548 919.005C818.182 919.005 821.115 916.072 821.115 912.438C821.115 911.738 820.984 911.081 820.765 910.446L820.787 910.468Z" fill="#186AA1"/>
<path d="M813.826 911.125C813.826 912.373 812.819 913.401 811.55 913.401C810.28 913.401 809.273 912.395 809.273 911.125C809.273 909.855 810.28 908.849 811.55 908.849C812.819 908.849 813.826 909.855 813.826 911.125Z" fill="#ECF0F1"/>
<path d="M774.207 810.283H762.562V831.274H774.207V810.283Z" fill="#202E3B"/>
<path d="M776.965 819.564H759.782V831.252H776.965V819.564Z" fill="#34495E"/>
<path d="M781.89 830.749H754.879V845.524H781.89V830.749Z" fill="#E3E7E8"/>
<path d="M768.385 830.749H754.879V845.524H768.385V830.749Z" fill="#BDC3C7"/>
<path d="M828.076 874.746V894.555H801.043V877.219C801.043 873.826 798.307 871.09 794.914 871.09H737.675V844.079H797.409C814.329 844.079 828.054 857.804 828.054 874.724L828.076 874.746Z" fill="#E3E7E8"/>
<path d="M813.301 877.219V894.555H801.043V877.219C801.043 873.826 798.307 871.09 794.914 871.09H737.675V858.832H794.914C805.07 858.832 813.301 867.085 813.301 877.219Z" fill="#BDC3C7"/>
<path d="M801.459 888.229H827.638C829.389 888.229 830.79 889.652 830.79 891.381C830.79 893.132 829.367 894.555 827.638 894.555H801.459C799.708 894.555 798.307 893.132 798.307 891.403C798.307 889.652 799.73 888.229 801.459 888.229Z" fill="#F39C12"/>
<path d="M804.655 888.229H824.442C825.756 888.229 826.828 888.93 826.828 889.805C826.828 890.681 825.756 891.381 824.442 891.381H804.655C803.341 891.381 802.269 890.681 802.269 889.805C802.269 888.93 803.341 888.229 804.655 888.229Z" fill="#F1C40F"/>
<path d="M780.249 830.224H756.521V831.274H780.249V830.224Z" fill="#597DA1"/>
<path d="M778.222 818.618L758.472 820.415L758.639 822.246L778.389 820.449L778.222 818.618Z" fill="#597DA1"/>
<path d="M778.223 822.258L758.473 824.056L758.64 825.887L778.39 824.089L778.223 822.258Z" fill="#597DA1"/>
<path d="M778.202 825.899L758.453 827.696L758.619 829.527L778.369 827.73L778.202 825.899Z" fill="#597DA1"/>
<path d="M770.377 810.283H766.415C765.758 810.283 765.233 809.758 765.233 809.101C765.233 808.444 765.758 807.919 766.415 807.919H770.377C771.033 807.919 771.559 808.444 771.559 809.101C771.559 809.758 771.033 810.283 770.377 810.283Z" fill="#F1C40F"/>
<path d="M810.565 817.988L807.019 814.442H752.734L751.421 815.733L748.838 813.128L751.202 810.764H808.529L813.169 815.405L810.565 817.988Z" fill="#C0392B"/>
<path d="M775.805 810.764H760.942V814.442H775.805V810.764Z" fill="#E74C3C"/>
<path d="M768.385 877.044C779.132 877.044 787.844 868.332 787.844 857.585C787.844 846.838 779.132 838.126 768.385 838.126C757.638 838.126 748.926 846.838 748.926 857.585C748.926 868.332 757.638 877.044 768.385 877.044Z" fill="#ECF0F1"/>
<path d="M768.385 871.09C775.844 871.09 781.89 865.044 781.89 857.585C781.89 850.126 775.844 844.079 768.385 844.079C760.926 844.079 754.879 850.126 754.879 857.585C754.879 865.044 760.926 871.09 768.385 871.09Z" fill="#2980B9"/>
<path d="M737.675 840.511H735.639V874.789H737.675V840.511Z" fill="#34495E"/>
<path d="M246.335 645.854H195.268V659.556H246.335V645.854Z" fill="#3B536B"/>
<path d="M215.559 645.854H195.268V659.556H215.559V645.854Z" fill="#2C3E50"/>
<path d="M243.029 659.556H198.595V663.89H243.029V659.556Z" fill="#2C3E50"/>
<path d="M216.259 659.556H198.595V663.89H216.259V659.556Z" fill="#1C2833"/>
<path d="M246.335 536.716H195.268V550.418H246.335V536.716Z" fill="#3B536B"/>
<path d="M217.551 536.716H195.268V550.418H217.551V536.716Z" fill="#2C3E50"/>
<path d="M246.335 533.979H195.443V536.847H246.335V533.979Z" fill="#F1C40F"/>
<path d="M253.212 607.39C257.264 589.541 246.08 571.788 228.231 567.736C210.383 563.684 192.629 574.868 188.577 592.717C184.525 610.565 195.71 628.319 213.558 632.371C231.407 636.423 249.16 625.238 253.212 607.39Z" fill="#E3E7E8"/>
<path d="M220.9 625.519C234.959 625.519 246.357 614.121 246.357 600.062C246.357 586.003 234.959 574.605 220.9 574.605C206.84 574.605 195.443 586.003 195.443 600.062C195.443 614.121 206.84 625.519 220.9 625.519Z" fill="#34495E"/>
<path d="M209.255 620.222L197.632 600.062L209.255 579.902H232.523L244.168 600.062L232.523 620.222H209.255Z" fill="#F39C12"/>
<path d="M220.812 619.828C231.728 619.828 240.578 610.978 240.578 600.062C240.578 589.146 231.728 580.296 220.812 580.296C209.896 580.296 201.047 589.146 201.047 600.062C201.047 610.978 209.896 619.828 220.812 619.828Z" fill="#F1C40F"/>
<path d="M307.383 589.796H197.435C194.715 589.796 192.51 592.001 192.51 594.721V605.403C192.51 608.123 194.715 610.328 197.435 610.328H307.383C310.103 610.328 312.308 608.123 312.308 605.403V594.721C312.308 592.001 310.103 589.796 307.383 589.796Z" fill="#C0392B"/>
<path d="M307.383 589.796H247.232V610.328H307.383C310.097 610.328 312.308 608.117 312.308 605.403V594.699C312.308 591.985 310.097 589.774 307.383 589.774V589.796Z" fill="#8F2A20"/>
<path d="M307.383 589.796H273.258V610.328H307.383C310.097 610.328 312.308 608.117 312.308 605.403V594.699C312.308 591.985 310.097 589.774 307.383 589.774V589.796Z" fill="#E74C3C"/>
<path d="M234.799 600.062C234.799 607.789 228.539 614.071 220.79 614.071C213.042 614.071 206.781 607.811 206.781 600.062C206.781 592.313 213.042 586.053 220.79 586.053C228.539 586.053 234.799 592.313 234.799 600.062Z" fill="#C0392B"/>
<path d="M220.812 609.321C225.926 609.321 230.071 605.176 230.071 600.062C230.071 594.948 225.926 590.803 220.812 590.803C215.699 590.803 211.553 594.948 211.553 600.062C211.553 605.176 215.699 609.321 220.812 609.321Z" fill="#34495E"/>
<path d="M220.812 606.672C224.463 606.672 227.423 603.713 227.423 600.062C227.423 596.411 224.463 593.452 220.812 593.452C217.161 593.452 214.202 596.411 214.202 600.062C214.202 603.713 217.161 606.672 220.812 606.672Z" fill="#ECF0F1"/>
<path d="M876.516 467.612H854.43C846.003 454.216 831.14 445.264 814.132 445.264C797.125 445.264 782.262 454.194 773.835 467.612H751.749V518.132H773.835C782.262 531.528 797.125 540.48 814.132 540.48C831.14 540.48 846.003 531.55 854.43 518.132H876.516V467.612Z" fill="#E3E7E8"/>
<path d="M824.376 425.608H803.888V445.286H824.376V425.608Z" fill="#202E3B"/>
<path d="M825.34 428.453H802.925V445.264H825.34V428.453Z" fill="#34495E"/>
<path d="M829.63 442.331H798.657V445.264H829.63V442.331Z" fill="#F1C40F"/>
<path d="M838.582 445.264H789.704V452.159H838.582V445.264Z" fill="#E3E7E8"/>
<path d="M826.934 427.258L801.167 429.603L801.384 431.979L827.15 429.634L826.934 427.258Z" fill="#597DA1"/>
<path d="M826.924 431.966L801.158 434.311L801.374 436.687L827.141 434.342L826.924 431.966Z" fill="#597DA1"/>
<path d="M826.915 436.697L801.149 439.042L801.365 441.418L827.131 439.073L826.915 436.697Z" fill="#597DA1"/>
<path d="M751.749 465.555H740.148V520.321H751.749V465.555Z" fill="#3B536B"/>
<path d="M751.749 496.44H740.148V520.321H751.749V496.44Z" fill="#2C3E50"/>
<path d="M740.257 470.261H737.828V515.396H740.257V470.261Z" fill="#F1C40F"/>
<path d="M888.117 465.555H876.516V520.321H888.117V465.555Z" fill="#3B536B"/>
<path d="M888.117 496.44H876.516V520.321H888.117V496.44Z" fill="#2C3E50"/>
<path d="M890.415 470.261H887.985V515.396H890.415V470.261Z" fill="#F1C40F"/>
<path d="M841.468 415.997C844.764 400.903 835.201 385.995 820.107 382.699C805.013 379.402 790.105 388.966 786.808 404.059C783.512 419.153 793.075 434.062 808.169 437.358C823.263 440.655 838.171 431.091 841.468 415.997Z" fill="#2980B9"/>
<path d="M837.86 409.979C837.86 414.532 836.59 418.756 834.379 422.368C830.199 429.175 822.691 433.706 814.132 433.706C811.33 433.706 808.66 433.225 806.165 432.327C800.43 430.292 795.702 426.111 792.966 420.726C791.324 417.487 790.383 413.831 790.383 409.957C790.383 405.054 791.871 400.501 794.41 396.714C798.679 390.388 805.902 386.208 814.11 386.208C827.222 386.208 837.86 396.846 837.86 409.957V409.979Z" fill="#F1C40F"/>
<path d="M837.334 409.979C837.334 414.422 836.087 418.559 833.92 422.105C829.848 428.76 822.494 433.203 814.132 433.203C811.396 433.203 808.769 432.721 806.34 431.868C800.736 429.876 796.118 425.783 793.447 420.529C791.827 417.377 790.93 413.788 790.93 410.001C790.93 405.207 792.375 400.764 794.87 397.064C799.029 390.87 806.121 386.799 814.132 386.799C826.959 386.799 837.334 397.196 837.334 410.001V409.979Z" fill="#FFE066"/>
<path d="M836.503 409.979C836.503 414.269 835.299 418.275 833.219 421.668C829.279 428.081 822.209 432.371 814.132 432.371C811.505 432.371 808.966 431.912 806.624 431.08C801.218 429.154 796.774 425.214 794.191 420.157C792.637 417.115 791.762 413.656 791.762 410.001C791.762 405.382 793.163 401.092 795.57 397.524C799.598 391.548 806.405 387.63 814.154 387.63C826.521 387.63 836.546 397.655 836.546 410.023L836.503 409.979Z" fill="#DEF0FF"/>
<path d="M794.038 413.941C794.038 409.322 795.439 405.032 797.847 401.464C801.875 395.488 808.682 391.57 816.431 391.57C824.179 391.57 830.44 395.182 834.511 400.742C830.987 392.993 823.194 387.608 814.132 387.608C806.384 387.608 799.576 391.527 795.549 397.502C793.141 401.07 791.74 405.36 791.74 409.979C791.74 413.634 792.616 417.093 794.17 420.135C794.695 421.164 795.33 422.149 796.008 423.09C794.761 420.289 794.038 417.18 794.038 413.919V413.941Z" fill="#ADBCC7"/>
<path d="M812.425 430.861C811.9 430.817 811.506 430.357 811.549 429.832C811.593 429.307 812.053 428.913 812.578 428.957C813.103 429 813.497 429.46 813.454 429.985C813.41 430.489 812.994 430.861 812.491 430.861H812.425ZM818.116 429.591C817.985 429.088 818.291 428.563 818.816 428.431C819.32 428.3 819.845 428.606 819.977 429.11C820.108 429.635 819.801 430.139 819.298 430.27C819.298 430.27 819.145 430.292 819.057 430.292C818.641 430.292 818.247 430.007 818.138 429.569L818.116 429.591ZM805.727 429.175C805.245 428.957 805.026 428.409 805.223 427.928C805.442 427.446 805.99 427.227 806.471 427.424C806.953 427.643 807.172 428.19 806.953 428.672C806.799 429.022 806.449 429.241 806.077 429.241C805.946 429.241 805.814 429.219 805.705 429.154L805.727 429.175ZM824.245 427.249C823.96 426.811 824.092 426.22 824.529 425.936C824.967 425.651 825.558 425.783 825.865 426.22C826.149 426.658 826.018 427.249 825.58 427.534C825.427 427.643 825.23 427.687 825.055 427.687C824.748 427.687 824.442 427.534 824.245 427.249ZM799.948 425.411C799.576 425.06 799.532 424.447 799.883 424.075C800.255 423.681 800.846 423.659 801.24 424.01C801.612 424.36 801.656 424.973 801.305 425.345C801.108 425.564 800.868 425.651 800.605 425.651C800.386 425.651 800.145 425.564 799.948 425.389V425.411ZM829.301 423.003C828.885 422.674 828.82 422.083 829.126 421.668C829.454 421.252 830.045 421.186 830.461 421.514C830.877 421.843 830.943 422.434 830.615 422.85C830.418 423.09 830.155 423.222 829.87 423.222C829.673 423.222 829.454 423.156 829.279 423.025L829.301 423.003ZM795.702 419.982C795.461 419.522 795.636 418.953 796.074 418.691C796.534 418.45 797.103 418.625 797.365 419.085C797.606 419.544 797.431 420.113 796.993 420.376C796.84 420.442 796.687 420.486 796.534 420.486C796.205 420.486 795.877 420.31 795.702 419.982ZM832.694 417.377C832.191 417.202 831.928 416.655 832.103 416.173C832.278 415.67 832.825 415.407 833.307 415.582C833.81 415.758 834.073 416.305 833.898 416.786C833.745 417.18 833.373 417.443 833 417.443C833 417.443 832.782 417.443 832.694 417.377ZM793.447 413.481C793.36 412.956 793.71 412.474 794.235 412.387C794.761 412.299 795.242 412.649 795.33 413.175C795.417 413.7 795.067 414.182 794.542 414.269C794.542 414.269 794.432 414.269 794.388 414.269C793.929 414.269 793.535 413.941 793.447 413.481ZM833.132 410.001V409.957V409.913C833.132 409.388 833.548 408.95 834.073 408.95C834.598 408.95 835.036 409.388 835.036 409.913V409.957V410.001C835.036 410.526 834.598 410.964 834.073 410.964C833.548 410.964 833.11 410.526 833.11 410.001H833.132ZM794.235 407.702C793.71 407.615 793.36 407.111 793.447 406.608C793.535 406.083 794.016 405.732 794.542 405.82C795.067 405.908 795.417 406.411 795.33 406.914C795.264 407.374 794.848 407.724 794.388 407.724C794.388 407.724 794.279 407.724 794.235 407.724V407.702ZM832.081 403.762C831.906 403.259 832.169 402.734 832.672 402.559C833.176 402.383 833.723 402.646 833.898 403.15C834.073 403.653 833.81 404.178 833.307 404.353C833.307 404.353 833.088 404.397 833 404.397C832.606 404.397 832.234 404.156 832.103 403.762H832.081ZM796.052 401.377C795.592 401.136 795.417 400.545 795.658 400.085C795.899 399.625 796.49 399.45 796.949 399.713C797.409 399.954 797.584 400.545 797.322 401.004C797.146 401.333 796.818 401.508 796.49 401.508C796.337 401.508 796.183 401.464 796.052 401.398V401.377ZM829.082 398.268C828.754 397.852 828.82 397.24 829.236 396.933C829.651 396.605 830.264 396.692 830.571 397.086C830.899 397.502 830.812 398.115 830.418 398.422C830.242 398.553 830.045 398.619 829.827 398.619C829.542 398.619 829.257 398.487 829.082 398.246V398.268ZM799.839 395.992C799.467 395.598 799.489 395.007 799.883 394.635C800.277 394.285 800.868 394.306 801.218 394.7C801.59 395.073 801.546 395.685 801.174 396.036C800.999 396.211 800.758 396.298 800.517 396.298C800.255 396.298 799.992 396.189 799.817 395.992H799.839ZM824.442 394.044C824.004 393.759 823.873 393.168 824.157 392.73C824.442 392.293 825.033 392.161 825.493 392.446C825.93 392.73 826.062 393.321 825.777 393.759C825.602 394.044 825.296 394.197 824.967 394.197C824.792 394.197 824.595 394.153 824.442 394.044ZM805.136 392.118C804.917 391.636 805.136 391.067 805.617 390.87C806.099 390.651 806.646 390.87 806.865 391.351C807.084 391.833 806.865 392.402 806.384 392.599C806.252 392.665 806.121 392.665 805.99 392.665C805.617 392.665 805.267 392.446 805.114 392.096L805.136 392.118ZM818.685 391.548C818.182 391.417 817.875 390.892 817.985 390.388C818.116 389.885 818.641 389.578 819.145 389.688C819.67 389.819 819.977 390.345 819.845 390.848C819.736 391.286 819.342 391.57 818.926 391.57C818.926 391.57 818.773 391.57 818.707 391.548H818.685ZM811.418 390.191C811.374 389.666 811.768 389.206 812.294 389.163C812.819 389.119 813.279 389.513 813.322 390.038C813.366 390.563 812.972 391.023 812.447 391.067H812.381C811.878 391.067 811.462 390.695 811.418 390.191Z" fill="#2C3E50"/>
<path d="M829.017 409.979H822.45C822.45 407.746 821.575 405.667 819.999 404.091L824.639 399.45C827.463 402.274 828.995 406.017 828.995 409.979H829.017Z" fill="#C0392B"/>
<path d="M820.02 404.091C818.444 402.515 816.343 401.639 814.132 401.639V395.073C818.116 395.073 821.859 396.627 824.683 399.45L820.042 404.091H820.02Z" fill="#E67E22"/>
<path d="M808.222 404.091L803.582 399.45C806.405 396.627 810.148 395.073 814.11 395.073V401.639C811.878 401.639 809.798 402.515 808.222 404.091Z" fill="#F1C40F"/>
<path d="M805.792 409.979H799.226C799.226 405.995 800.78 402.252 803.582 399.428L808.222 404.069C806.646 405.645 805.771 407.724 805.771 409.957L805.792 409.979Z" fill="#27AE60"/>
<path d="M797.401 404.269L797.209 404.874C797.133 405.116 797.267 405.375 797.509 405.451L812.827 410.299C813.069 410.375 813.327 410.241 813.404 409.999L813.595 409.394C813.672 409.152 813.538 408.893 813.296 408.817L797.978 403.969C797.736 403.893 797.478 404.027 797.401 404.269Z" fill="#233140"/>
<path d="M815.686 410.592C815.336 411.467 814.351 411.905 813.476 411.555C812.6 411.205 812.162 410.22 812.513 409.344C812.863 408.469 813.848 408.031 814.723 408.381C815.599 408.731 816.037 409.716 815.686 410.592Z" fill="#34495E"/>
<path d="M815.139 410.373C814.92 410.942 814.264 411.248 813.673 411.008C813.104 410.789 812.797 410.132 813.038 409.541C813.279 408.95 813.913 408.666 814.504 408.906C815.074 409.125 815.38 409.782 815.139 410.373Z" fill="#56799C"/>
<path d="M814.11 517.847C827.904 517.847 839.086 506.666 839.086 492.872C839.086 479.079 827.904 467.897 814.11 467.897C800.317 467.897 789.135 479.079 789.135 492.872C789.135 506.666 800.317 517.847 814.11 517.847Z" fill="#34495E"/>
<path d="M802.706 512.66L791.28 492.872L802.706 473.085H825.536L836.962 492.872L825.536 512.66H802.706Z" fill="#F39C12"/>
<path d="M814.045 512.266C824.755 512.266 833.438 503.583 833.438 492.872C833.438 482.161 824.755 473.479 814.045 473.479C803.334 473.479 794.651 482.161 794.651 492.872C794.651 503.583 803.334 512.266 814.045 512.266Z" fill="#F1C40F"/>
<path d="M814.045 506.618C821.637 506.618 827.791 500.464 827.791 492.872C827.791 485.28 821.637 479.126 814.045 479.126C806.453 479.126 800.299 485.28 800.299 492.872C800.299 500.464 806.453 506.618 814.045 506.618Z" fill="#C0392B"/>
<path d="M814.11 451.655C791.346 451.655 772.894 470.108 772.894 492.872C772.894 515.637 791.346 534.089 814.11 534.089C836.875 534.089 855.327 515.637 855.327 492.872C855.327 470.108 836.875 451.655 814.11 451.655ZM814.11 524.02C796.906 524.02 782.962 510.077 782.962 492.872C782.962 475.667 796.906 461.724 814.11 461.724C831.315 461.724 845.258 475.667 845.258 492.872C845.258 510.077 831.315 524.02 814.11 524.02Z" fill="#E74C3C"/>
<path d="M828.097 492.872C828.097 500.599 821.837 506.859 814.11 506.859C806.384 506.859 800.123 500.599 800.123 492.872C800.123 485.145 806.384 478.885 814.11 478.885C821.837 478.885 828.097 485.145 828.097 492.872Z" fill="#E74C3C"/>
<path d="M850.534 495.696C841.318 498.695 831.403 498.695 822.188 495.696V490.027C831.403 487.028 841.318 487.028 850.534 490.027V495.696Z" fill="#E74C3C"/>
<path d="M816.956 456.449C819.955 465.664 819.955 475.58 816.956 484.795H811.287C808.288 475.58 808.288 465.664 811.287 456.449H816.956Z" fill="#E74C3C"/>
<path d="M777.709 490.048C786.924 487.05 796.84 487.05 806.055 490.048V495.718C796.84 498.716 786.924 498.716 777.709 495.718V490.048Z" fill="#E74C3C"/>
<path d="M811.287 529.295C808.288 520.08 808.288 510.164 811.287 500.949H816.956C819.955 510.164 819.955 520.08 816.956 529.295H811.287Z" fill="#E74C3C"/>
<path d="M772.916 492.522C772.916 492.631 772.916 492.763 772.916 492.872C772.916 515.637 791.368 534.089 814.132 534.089C836.897 534.089 855.349 515.637 855.349 492.872C855.349 492.763 855.349 492.631 855.349 492.522H772.937H772.916ZM809.886 523.692C796.074 521.809 785.173 510.909 783.291 497.097C789.07 498.191 795.001 498.169 800.758 497.031C802.115 501.409 805.574 504.845 809.93 506.202C808.791 511.981 808.77 517.891 809.864 523.67L809.886 523.692ZM818.357 523.692C819.451 517.913 819.429 511.981 818.291 506.224C822.669 504.867 826.106 501.409 827.463 497.053C833.241 498.191 839.151 498.213 844.93 497.119C843.048 510.93 832.147 521.831 818.335 523.714L818.357 523.692Z" fill="#C0392B"/>
<path d="M814.045 501.978C819.074 501.978 823.151 497.901 823.151 492.872C823.151 487.843 819.074 483.766 814.045 483.766C809.016 483.766 804.939 487.843 804.939 492.872C804.939 497.901 809.016 501.978 814.045 501.978Z" fill="#34495E"/>
<path d="M820.524 492.872C820.524 496.462 817.612 499.351 814.045 499.351C810.477 499.351 807.565 496.44 807.565 492.872C807.565 489.304 810.477 486.393 814.045 486.393C817.612 486.393 820.524 489.304 820.524 492.872Z" fill="#ECF0F1"/>
<path d="M238.761 223.113C232.545 223.113 226.744 219.983 223.351 214.774C213.808 200.108 197.282 190.433 178.501 190.433C159.72 190.433 143.194 200.13 133.651 214.774C130.258 219.983 124.457 223.113 118.241 223.113H91.8649V264.68H118.241C124.457 264.68 130.258 267.811 133.651 273.02C143.194 287.664 159.72 297.361 178.501 297.361C197.282 297.361 213.808 287.664 223.351 273.02C226.744 267.811 232.545 264.68 238.761 264.68H254.828V223.113H238.761Z" fill="#E3E7E8"/>
<path d="M199.142 170.493H157.882V210.33H199.142V170.493Z" fill="#E3E7E8"/>
<path d="M238.761 223.113C232.523 223.113 226.744 219.961 223.351 214.774C213.83 200.108 197.282 190.411 178.501 190.411C159.72 190.411 143.194 200.13 133.651 214.774C130.258 219.983 124.436 223.113 118.241 223.113H91.8649V264.68H118.241C124.457 264.68 130.258 267.833 133.651 273.02C143.172 287.686 159.677 297.382 178.501 297.382C197.326 297.382 213.808 287.664 223.351 273.02C226.744 267.811 232.523 264.68 238.761 264.68H254.828V223.113H238.761Z" fill="#E3E7E8"/>
<path d="M238.718 244.827C225.562 244.827 213.742 251.875 206.344 262.776C200.062 272.035 189.708 277.551 178.523 277.551C167.338 277.551 156.525 271.816 150.33 262.207C143.26 251.328 131.265 244.849 118.263 244.849H91.8868V264.702H118.263C124.479 264.702 130.28 267.854 133.673 273.042C143.194 287.708 159.699 297.404 178.523 297.404C197.348 297.404 213.83 287.686 223.373 273.042C226.766 267.832 232.545 264.702 238.783 264.702H254.85V244.849H238.718V244.827Z" fill="#BDC3C7"/>
<path d="M275.053 215.693H243.533V272.123H275.053V215.693Z" fill="#34495E"/>
<path d="M275.053 244.455H243.533V272.101H275.053V244.455Z" fill="#222F3D"/>
<path d="M113.404 215.693H81.8835V272.123H113.404V215.693Z" fill="#34495E"/>
<path d="M113.404 244.455H81.8835V272.101H113.404V244.455Z" fill="#222F3D"/>
<path d="M109.551 215.693H103.882V272.123H109.551V215.693Z" fill="#F1C40F"/>
<path d="M109.551 244.455H103.882V272.101H109.551V244.455Z" fill="#F39C12"/>
<path d="M254.784 215.693H249.115V272.123H254.784V215.693Z" fill="#F1C40F"/>
<path d="M254.784 244.455H249.115V272.101H254.784V244.455Z" fill="#F39C12"/>
<path d="M183.273 202.56C157.816 202.56 137.175 223.201 137.175 248.658C137.175 274.115 157.816 294.756 183.273 294.756C208.73 294.756 229.371 274.115 229.371 248.658C229.371 223.201 208.73 202.56 183.273 202.56ZM183.273 283.505C164.033 283.505 148.448 267.92 148.448 248.68C148.448 229.439 164.033 213.854 183.273 213.854C202.513 213.854 218.098 229.439 218.098 248.68C218.098 267.92 202.513 283.505 183.273 283.505Z" fill="#7F8C8D"/>
<path d="M183.273 264.308C191.904 264.308 198.901 257.311 198.901 248.68C198.901 240.048 191.904 233.051 183.273 233.051C174.641 233.051 167.644 240.048 167.644 248.68C167.644 257.311 174.641 264.308 183.273 264.308Z" fill="#7F8C8D"/>
<path d="M224.008 245.506H192.313V251.832H224.008V245.506Z" fill="#7F8C8D"/>
<path d="M186.425 207.923H180.099V239.618H186.425V207.923Z" fill="#7F8C8D"/>
<path d="M174.233 245.506H142.538V251.832H174.233V245.506Z" fill="#7F8C8D"/>
<path d="M186.425 257.698H180.099V289.393H186.425V257.698Z" fill="#7F8C8D"/>
<path d="M195.662 248.68C195.662 255.531 190.124 261.069 183.273 261.069C176.422 261.069 170.884 255.531 170.884 248.68C170.884 241.828 176.422 236.291 183.273 236.291C190.124 236.291 195.662 241.828 195.662 248.68Z" fill="#7F8C8D"/>
<path d="M177.932 257.917L172.591 248.68L177.932 239.421H188.614L193.955 248.68L188.614 257.917H177.932Z" fill="#7F8C8D"/>
<path d="M188.045 248.68C188.045 251.306 185.9 253.451 183.273 253.451C180.646 253.451 178.501 251.306 178.501 248.68C178.501 246.053 180.646 243.908 183.273 243.908C185.9 243.908 188.045 246.053 188.045 248.68Z" fill="#7F8C8D"/>
<path d="M178.501 197.788C153.044 197.788 132.403 218.429 132.403 243.886C132.403 269.343 153.044 289.984 178.501 289.984C203.958 289.984 224.599 269.343 224.599 243.886C224.599 218.429 203.958 197.788 178.501 197.788ZM178.501 278.733C159.261 278.733 143.676 263.148 143.676 243.908C143.676 224.668 159.261 209.083 178.501 209.083C197.741 209.083 213.326 224.668 213.326 243.908C213.326 263.148 197.741 278.733 178.501 278.733Z" fill="#C0392B"/>
<path d="M178.501 259.515C187.132 259.515 194.13 252.518 194.13 243.886C194.13 235.255 187.132 228.257 178.501 228.257C169.87 228.257 162.872 235.255 162.872 243.886C162.872 252.518 169.87 259.515 178.501 259.515Z" fill="#C0392B"/>
<path d="M219.236 240.734H187.541V247.06H219.236V240.734Z" fill="#C0392B"/>
<path d="M181.653 203.151H175.327V234.846H181.653V203.151Z" fill="#C0392B"/>
<path d="M169.461 240.734H137.766V247.06H169.461V240.734Z" fill="#C0392B"/>
<path d="M181.653 252.926H175.327V284.621H181.653V252.926Z" fill="#C0392B"/>
<path d="M190.89 243.886C190.89 250.737 185.352 256.275 178.501 256.275C171.65 256.275 166.112 250.737 166.112 243.886C166.112 237.035 171.65 231.497 178.501 231.497C185.352 231.497 190.89 237.035 190.89 243.886Z" fill="#95A5A6"/>
<path d="M173.16 253.145L167.819 243.886L173.16 234.649H183.842L189.183 243.886L183.842 253.145H173.16Z" fill="#BDC3C7"/>
<path d="M183.273 243.886C183.273 246.513 181.128 248.658 178.501 248.658C175.874 248.658 173.729 246.513 173.729 243.886C173.729 241.259 175.874 239.114 178.501 239.114C181.128 239.114 183.273 241.259 183.273 243.886Z" fill="#ECF0F1"/>
<path d="M199.58 155.148H157.925V185.114H199.58V155.148Z" fill="#E3E7E8"/>
<path d="M172.153 155.148H157.925V185.114H172.153V155.148Z" fill="#BDC3C7"/>
<path d="M202.229 175.702H155.277V185.136H202.229V175.702Z" fill="#34495E"/>
<path d="M169.483 175.702H155.277V185.136H169.483V175.702Z" fill="#222F3D"/>
<path d="M229.984 115.945H197.128V157.6H229.984V115.945Z" fill="#E3E7E8"/>
<path d="M229.984 146.853H197.128V157.6H229.984V146.853Z" fill="#BDC3C7"/>
<path d="M227.571 100.863L200.392 128.042L229.847 157.497L257.026 130.318L227.571 100.863Z" fill="#E3E7E8"/>
<path d="M246.091 119.378L218.912 146.557L229.839 157.484L257.018 130.305L246.091 119.378Z" fill="#BDC3C7"/>
<path d="M225.26 98.6021L216.654 107.208L250.659 141.212L259.264 132.607L225.26 98.6021Z" fill="#34495E"/>
<path d="M247.987 121.286L239.381 129.891L250.695 141.206L259.301 132.6L247.987 121.286Z" fill="#222F3D"/>
<path d="M206.169 145.627C202.447 157.206 191.569 165.568 178.764 165.568C162.872 165.568 149.98 152.675 149.98 136.784C149.98 120.892 162.872 108 178.764 108C194.655 108 207.548 120.892 207.548 136.784C207.548 139.87 207.066 142.847 206.169 145.627Z" fill="#BDC3C7"/>
<path d="M178.764 153.375C189.499 153.375 198.201 144.673 198.201 133.938C198.201 123.203 189.499 114.501 178.764 114.501C168.029 114.501 159.326 123.203 159.326 133.938C159.326 144.673 168.029 153.375 178.764 153.375Z" fill="#E3E7E8"/>
<path d="M197.128 100.032H160.377V115.967H197.128V100.032Z" fill="#E3E7E8"/>
<path d="M172.153 100.032H160.377V115.967H172.153V100.032Z" fill="#BDC3C7"/>
<path d="M197.128 100.032H185.352V115.967H197.128V100.032Z" fill="#BDC3C7"/>
<path d="M186.666 72.7367H170.818V100.032H186.666V72.7367Z" fill="#202E3B"/>
<path d="M178.764 79.0189L156.503 82.0177C153.044 82.4773 149.98 79.785 149.98 76.3047C149.98 72.8025 153.044 70.132 156.503 70.5917L178.764 73.5905V79.0408V79.0189Z" fill="#C0392B"/>
<path d="M173.685 77.6836H156.875C153.416 77.6836 151.643 75.1226 151.468 72.4522C150.549 73.4591 149.98 74.7943 149.98 76.2827C149.98 79.785 153.044 82.4554 156.503 81.9957L178.764 78.997V74.1376C178.085 76.1076 176.378 77.6617 173.685 77.6617V77.6836Z" fill="#85271E"/>
<path d="M178.764 79.0189L201.025 82.0177C204.483 82.4773 207.547 79.785 207.547 76.3047C207.547 72.8025 204.483 70.132 201.025 70.5917L178.764 73.5905V79.0408V79.0189Z" fill="#C0392B"/>
<path d="M183.842 77.6836H200.652C204.111 77.6836 205.884 75.1226 206.059 72.4522C206.978 73.4591 207.547 74.7943 207.547 76.2827C207.547 79.785 204.483 82.4554 201.025 81.9957L178.764 78.997V74.1376C179.442 76.1076 181.149 77.6617 183.842 77.6617V77.6836Z" fill="#85271E"/>
<path d="M190.452 84.0971H167.053V100.032H190.452V84.0971Z" fill="#34495E"/>
<path d="M194.896 98.5875H162.588V100.01H194.896V98.5875Z" fill="#597DA1"/>
<path d="M192.08 82.8639L165.202 85.31L165.428 87.795L192.306 85.349L192.08 82.8639Z" fill="#597DA1"/>
<path d="M192.09 87.8122L165.213 90.2583L165.439 92.7434L192.317 90.2973L192.09 87.8122Z" fill="#597DA1"/>
<path d="M192.077 92.7389L165.199 95.185L165.425 97.6701L192.303 95.224L192.077 92.7389Z" fill="#597DA1"/>
<path d="M185.352 76.2828C185.352 79.9163 182.397 82.8713 178.764 82.8713C175.13 82.8713 172.175 79.9163 172.175 76.2828C172.175 72.6492 175.13 69.6942 178.764 69.6942C182.397 69.6942 185.352 72.6492 185.352 76.2828Z" fill="#85271E"/>
<path d="M178.764 78.012C181.061 78.012 182.923 76.15 182.923 73.8531C182.923 71.5562 181.061 69.6942 178.764 69.6942C176.467 69.6942 174.605 71.5562 174.605 73.8531C174.605 76.15 176.467 78.012 178.764 78.012Z" fill="#C0392B"/>
<path d="M181.522 67.2864H175.984C175.125 67.2864 174.43 67.9822 174.43 68.8405V68.9719C174.43 69.8302 175.125 70.526 175.984 70.526H181.522C182.38 70.526 183.076 69.8302 183.076 68.9719V68.8405C183.076 67.9822 182.38 67.2864 181.522 67.2864Z" fill="#F1C40F"/>
</g>
</svg>
