<svg width="507" height="584" viewBox="0 0 507 584" fill="none" xmlns="http://www.w3.org/2000/svg">
<path d="M-29.6364 429.975C-33.3709 461.914 -11.7378 493.192 -4.97455 502.031C8.3697 519.55 27.2475 532.694 49.5866 540.007C61.2457 543.834 72.8821 544.358 83.4482 541.556C92.3064 546.682 101.483 551.329 110.729 555.407C110.934 555.498 111.116 555.589 111.298 555.68C111.64 555.84 111.981 555.976 112.437 556.159C114.35 556.979 116.262 557.799 118.198 558.573L120.293 559.416C122.024 560.1 123.754 560.783 125.508 561.421L127.739 562.241C129.493 562.879 131.269 563.494 133.045 564.109L135.072 564.793C136.643 565.316 138.237 565.818 139.831 566.319C149.828 570.898 161.578 573.244 168.774 574.702C170.231 574.998 171.461 575.226 172.281 575.431C186.24 578.962 197.148 581.126 207.668 582.425C214.477 583.268 221.331 583.632 228.163 583.632C245.811 583.632 263.391 581.24 280.105 578.461C296.455 575.75 313.58 568.961 326.673 560.054C359.943 547.16 390.025 528.343 416.212 504.059C430.9 498.591 443.333 489.502 452.374 477.655C457.475 470.981 468.314 454.761 470.113 435.966C470.295 435.647 470.477 435.306 470.682 434.987L471.547 433.415C472.436 431.797 473.324 430.18 474.212 428.494L474.963 427.059C475.829 425.396 476.694 423.733 477.514 422.07L478.265 420.544C479.062 418.926 479.836 417.286 480.611 415.646L480.884 415.053C480.975 414.848 481.066 414.643 481.157 414.416C501.242 370.699 509.804 322.13 505.91 273.926C505.91 273.834 505.91 273.743 505.91 273.675C505.728 271.283 505.5 268.914 505.25 266.681C505.25 266.567 505.227 266.431 505.204 266.294C504.954 263.925 504.658 261.556 504.362 259.209C504.362 259.141 504.362 259.095 504.339 259.027C501.743 239.709 497.166 220.641 490.699 202.325C490.699 202.325 490.699 202.28 490.676 202.257C490.334 201.323 490.015 200.389 489.674 199.455C490.881 190.957 489.674 182.187 488.08 175.33C487.715 173.781 487.214 172.254 486.554 170.796C466.469 125.895 434.634 86.5524 394.533 57.0055C392.233 55.3197 389.911 53.6795 387.633 52.0848C387.155 51.7431 386.677 51.4242 386.176 51.1052L385.538 50.6724C383.853 49.5334 382.146 48.3943 380.438 47.278C379.686 46.7769 378.912 46.2985 378.183 45.8201C376.43 44.7038 374.676 43.6103 372.923 42.5396L370.965 41.355C312.601 6.54574 243.169 -6.96336 175.446 3.40197C107.586 13.7901 45.4877 47.5514 0.558987 98.444C0.490671 98.5124 0.354043 98.6718 0.262956 98.7857C-1.67264 100.995 -3.58547 103.251 -5.47553 105.506L-6.84184 107.192C-9.11901 109.994 -10.9863 112.363 -12.7397 114.641C-52.2943 166.605 -72.4245 228.295 -70.9216 293.062C-70.9216 293.449 -70.8988 293.836 -70.8761 294.223C-70.7622 295.886 -70.5117 297.618 -70.079 299.714C-69.988 300.169 -69.8741 300.625 -69.7375 301.103C-69.5097 302.06 -69.2593 303.017 -68.9405 304.042C-68.8266 304.429 -68.69 304.839 -68.5078 305.409C-68.2345 306.274 -67.9157 307.14 -67.6197 307.983C-67.4603 308.439 -67.2781 308.872 -67.1415 309.259C-66.8227 310.056 -66.5039 310.853 -66.1395 311.696C-66.0257 311.97 -65.9118 312.243 -65.7979 312.494C-65.7069 312.699 -65.6158 312.927 -65.5019 313.132C-62.8376 319.123 -59.103 325.957 -55.9605 331.174C-52.021 363.295 -42.7529 394.072 -28.3839 422.89C-28.7483 424.439 -29.0443 426.034 -29.2948 427.629C-29.4314 428.312 -29.5453 429.086 -29.6364 429.952V429.975Z" fill="white"/>
<path d="M378.798 90.3796C264.917 5.0422 103.465 28.256 18.2072 142.161C-67.0731 256.088 -43.8914 417.605 69.9675 502.919C183.849 588.234 345.278 565.043 430.558 451.116C515.839 337.188 492.657 175.694 378.775 90.3796H378.798Z" fill="#80CFDF"/>
<g style="mix-blend-mode:multiply" opacity="0.5">
<path d="M-5.56655 349.695C7.64108 351.221 20.9398 349.33 34.0108 347.326C46.0571 345.48 58.5587 342.929 70.7872 343.886C82.5602 344.797 93.9005 348.488 103.191 355.937C126.783 374.822 134.115 406.716 153.836 428.859C174.467 452.05 203.228 466.857 234.038 470.593C263.915 474.216 294.975 468.247 321.026 453.006C334.325 445.238 346.348 435.26 356.117 423.346C368.915 407.764 376.726 390.131 380.438 370.334C384.309 349.604 384.878 327.415 392.962 307.687C398.564 293.996 407.673 279.963 422.042 274.358C437.777 268.23 453.717 275.315 469.726 276.135C473.483 276.34 477.332 276.295 481.112 275.816C475.328 204.785 440.305 136.465 378.775 90.3796C264.916 5.0422 103.465 28.256 18.2072 142.161C-26.0156 201.232 -41.0677 273.105 -29.4314 340.491C-22.5543 345.503 -14.4475 348.647 -5.54377 349.672L-5.56655 349.695Z" fill="#80CFDF"/>
</g>
<g style="mix-blend-mode:multiply" opacity="0.5">
<path d="M115.01 477.405C116.604 468.657 117.515 459.294 115.67 450.501C113.416 439.725 108.406 429.633 102.394 420.452C83.0611 390.883 40.3869 351.449 3.70153 377.305C-3.19832 382.158 -8.91403 388.468 -13.4684 395.644C3.63322 436.878 31.6425 474.215 69.9674 502.919C77.8009 508.797 85.8849 514.15 94.1282 519.003C106.539 509.822 112.391 491.666 114.987 477.405H115.01Z" fill="#80CFDF"/>
</g>
<g style="mix-blend-mode:multiply" opacity="0.5">
<path d="M346.485 497.634C343.206 487.998 335.828 479.66 326.582 475.355C310.597 467.905 289.168 467.769 272.909 474.398C257.447 480.708 244.923 492.349 230.417 500.414C221.901 505.152 212.769 508.455 202.909 508.41C193.504 508.364 184.396 506.063 175.241 504.127C158.868 500.641 131.019 496.381 123.436 516.474C121.591 521.372 120.771 527.25 121.295 532.899C195.121 565.225 279.377 560.51 348.557 522.488C348.216 514.151 349.149 505.585 346.462 497.657L346.485 497.634Z" fill="#80CFDF"/>
</g>
<g style="mix-blend-mode:multiply" opacity="0.5">
<path d="M455.516 392.728C450.506 379.925 436.092 372.544 422.657 375.437C393.759 381.634 379.891 415.236 373.811 440.955C369.416 459.522 366.866 487.223 383.421 499.434C400.796 485.765 416.713 469.659 430.581 451.116C441.648 436.331 450.871 420.749 458.34 404.62C457.793 400.542 457.019 396.555 455.539 392.728H455.516Z" fill="#80CFDF"/>
</g>
<path d="M463.851 181.025C452.829 180.114 432.676 170.022 421.974 172.323C408.811 175.17 395.832 178.815 382.874 182.46C355.867 190.092 329.065 198.475 302.126 206.357C246.995 222.509 191.523 236.314 134.571 244.128C97.7263 249.185 60.9954 250.416 23.8774 251.805C10.3282 252.306 -45.4854 290.829 -46.0547 292.492C-45.4171 301.673 -32.7332 321.72 -31.8451 322.722C-17.089 339.193 12.6737 334.067 31.2555 330.149C43.8483 327.483 56.1906 323.565 68.92 321.674C83.9493 319.442 97.8629 323.11 110.661 330.992C132.544 344.455 149.828 367.464 165.427 387.352C181.117 407.376 195.258 430.431 214.272 447.493C231.374 462.848 253.189 460.16 273.388 453.918C312.783 441.775 355.48 411.796 359.556 367.829C360.763 354.935 359.784 341.949 361.014 329.033C362.312 315.592 365.864 302.402 371.056 289.963C381.667 264.563 401.365 246.68 425.162 233.808C442.81 224.263 453.535 218.522 463.805 200.115C466.925 194.511 463.805 181.07 463.805 181.07L463.851 181.025Z" fill="#B99572"/>
<g style="mix-blend-mode:multiply">
<path d="M-29.7957 312.699C-17.9999 317.209 -4.74677 317.209 7.64108 315.66C23.1259 313.747 38.0414 308.712 53.7084 307.96C71.3337 307.117 87.6611 312.061 102.053 322.312C123.185 337.393 141.995 355.413 159.347 374.663C168.137 384.413 176.562 394.437 184.874 404.597C191.728 412.958 198.537 421.614 206.871 428.563C216.458 436.559 227.594 441.639 240.141 442.55C252.984 443.484 265.85 441.092 277.783 436.262C299.78 427.378 321.049 411.636 334.348 391.794C341.475 381.178 346.781 369.309 349.719 356.848C352.77 343.954 354.455 330.81 357.666 317.938C363.017 296.547 366.274 272.992 379.14 254.471C385.151 245.814 392.666 238.524 402.025 233.558C411.407 228.569 421.586 225.47 431.287 221.188C441.717 216.586 452.51 210.458 457.884 199.91C461.004 193.805 462.166 187.312 462.006 180.774C450.711 179.043 432.107 170.136 421.996 172.3C408.834 175.147 395.854 178.792 382.897 182.437C355.89 190.069 329.087 198.452 302.148 206.335C247.018 222.486 191.546 236.291 134.594 244.105C97.749 249.163 61.0181 250.393 23.9001 251.782C10.3509 252.284 -45.4627 290.806 -46.032 292.469C-45.8498 295.157 -44.6201 298.78 -42.9578 302.584C-39.9064 306.958 -35.557 310.466 -29.7729 312.676L-29.7957 312.699Z" fill="#B99572"/>
</g>
<g style="mix-blend-mode:multiply">
<path d="M-6.27246 306.707C-4.47349 315.979 -2.2874 325.205 0.855101 334.09C3.20059 334.09 5.56886 333.976 7.91436 333.794C2.72239 325.023 -2.08246 316.025 -6.27246 306.73V306.707Z" fill="#B99572"/>
</g>
<g style="mix-blend-mode:multiply">
<path d="M54.437 286.569C54.437 299.076 55.3707 311.56 56.9874 323.975C59.3557 323.451 61.724 322.927 64.0922 322.494C60.5626 310.626 57.6251 298.552 54.437 286.592V286.569Z" fill="#B99572"/>
</g>
<g style="mix-blend-mode:multiply">
<path d="M75.5465 298.051C76.2297 305.75 77.4138 313.405 78.689 321.059C80.2147 321.082 81.7404 321.173 83.2434 321.333C80.7157 313.564 78.188 305.796 75.5465 298.073V298.051Z" fill="#B99572"/>
</g>
<g style="mix-blend-mode:multiply">
<path d="M203.091 388.217C203.137 405.69 203.524 423.391 207.031 440.477C209.376 442.914 211.79 445.261 214.295 447.493C217.278 450.182 220.421 452.3 223.654 453.94C216.139 432.253 209.968 410.11 203.091 388.217Z" fill="#B99572"/>
</g>
<g style="mix-blend-mode:multiply">
<path d="M256.218 408.174C258.882 424.143 262.093 440.523 268.902 455.216C270.427 454.806 271.93 454.373 273.433 453.895C275.528 453.257 277.623 452.551 279.741 451.799C271.133 437.72 263.915 422.799 256.218 408.174Z" fill="#B99572"/>
</g>
<g style="mix-blend-mode:multiply">
<path d="M237.773 435.83C239.071 443.575 240.961 451.184 243.01 458.77C245.151 458.861 247.314 458.816 249.477 458.679C245.72 450.979 242.259 443.12 237.773 435.807V435.83Z" fill="#B99572"/>
</g>
<g style="mix-blend-mode:multiply">
<path d="M324.806 348.146C329.93 356.711 336.488 364.275 341.589 372.84C345.278 379.037 348.557 385.939 353.248 391.543C354.933 387.853 356.322 384.003 357.393 380.039C347.692 368.034 338.333 355.117 324.829 348.146H324.806Z" fill="#B99572"/>
</g>
<g style="mix-blend-mode:multiply">
<path d="M350.037 333.566C344.868 327.597 339.585 319.806 332.139 316.412C335.145 326.322 341.999 334.842 348.648 342.564C352.428 346.961 356.368 351.244 360.216 355.595C360.285 351.882 360.307 348.191 360.353 344.478C356.755 340.924 353.271 337.279 350.037 333.566Z" fill="#B99572"/>
</g>
<g style="mix-blend-mode:multiply">
<path d="M396.014 254.471C389.774 245.905 384.332 236.77 377.66 228.523C380.87 238.205 384.537 247.773 387.338 257.546C387.77 259.027 388.157 260.576 388.567 262.171C390.935 259.482 393.395 256.931 396.014 254.493V254.471Z" fill="#B99572"/>
</g>
<g style="mix-blend-mode:multiply">
<path d="M397.403 216.609C399.93 226.108 405.373 234.446 411.362 242.214C413.571 240.711 415.848 239.23 418.148 237.841C411.635 230.346 405.327 222.623 397.403 216.609Z" fill="#B99572"/>
</g>
<g style="mix-blend-mode:multiply">
<path d="M436.115 203.692C439.394 209.524 442.901 215.196 446.635 220.755C448.708 219.137 450.689 217.406 452.579 215.492C447.159 211.483 441.739 207.451 436.138 203.715L436.115 203.692Z" fill="#B99572"/>
</g>
<g style="mix-blend-mode:multiply">
<path d="M304.585 387.58C307.363 402.729 312.874 417.149 319.705 430.909C323.713 427.97 327.539 424.826 331.137 421.5C322.415 410.087 314.422 398.082 304.585 387.58Z" fill="#B99572"/>
</g>
<g style="mix-blend-mode:multiply">
<path d="M119.337 332.905C114.213 317.893 110.592 302.014 107.336 286.341C107.199 300.579 106.881 314.817 107.381 329.033C108.497 329.648 109.613 330.286 110.706 330.969C114.395 333.247 117.948 335.799 121.386 338.555C120.68 336.664 119.997 334.773 119.359 332.905H119.337Z" fill="#B99572"/>
</g>
<path d="M-41.5459 298.529C-34.6233 305.545 -24.877 308.826 -15.1535 309.783C-4.49627 310.853 6.32032 309.874 16.7953 307.824C26.9743 305.842 36.6523 302.151 46.7858 300.01C60.0389 297.23 74.0208 297.048 86.8413 301.809C98.3183 306.069 108.156 313.45 116.513 322.198C135.755 342.314 148.598 367.305 165.814 388.969C174.467 399.836 184.213 410.201 196.077 417.742C210.583 426.945 227.594 431.592 244.877 430.59C293.996 427.765 331.228 387.283 346.644 344.045C354.797 321.173 358.987 297.185 366.843 274.244C373.356 255.222 382.282 233.535 402.367 225.083C419.104 218.044 438.665 217.474 451.44 203.031C456.632 197.177 461.209 189.34 463.805 181.025C445.952 141.158 417.761 105.096 379.755 77.1211C262.093 -9.53762 95.1985 14.0179 7.04902 129.745C-30.1145 178.542 -47.3527 235.927 -46.032 292.492C-44.8251 294.656 -43.3449 296.684 -41.5232 298.529H-41.5459Z" fill="#8CC338"/>
<g style="mix-blend-mode:multiply">
<path d="M379.8 77.1211C370.669 70.4007 361.241 64.341 351.586 58.9419C359.533 65.5028 366.98 72.4282 373.788 79.5131C384.286 90.4251 394.01 102.135 401.889 115.097C409.882 128.264 417.009 142.798 419.787 158.084C422.133 171.047 421.336 185.604 411.749 195.627C398.792 209.182 377.933 205.742 364.247 217.816C350.743 229.753 347.783 248.912 344.071 265.61C340.268 282.742 336.056 299.919 329.52 316.23C323.394 331.47 315.31 346.141 303.947 358.124C291.947 370.79 276.758 380.609 260.112 385.985C244.354 391.088 226.979 392.477 210.97 387.625C195.007 382.773 181.094 372.362 171.985 358.352C162.967 344.478 158.094 328.531 151.172 313.633C144.545 299.395 135.573 284.974 120.635 278.345C109.476 273.379 96.6787 272.946 84.678 273.128C70.9011 273.356 57.1697 274.655 43.4155 275.156C22.1467 275.93 -6.79622 276.044 -19.0702 254.949C-26.8354 241.622 -26.3799 225.038 -23.1691 210.389C-19.1385 192.005 -11.1684 174.692 -2.49236 158.084C7.75494 138.402 19.323 119.448 32.098 101.314C23.1942 110.062 14.8142 119.516 7.04902 129.722C-30.1145 178.519 -47.3527 235.904 -46.032 292.469C-44.8251 294.633 -43.3449 296.661 -41.5232 298.506C-34.6006 305.523 -24.8542 308.803 -15.1307 309.76C-4.4735 310.831 6.34309 309.851 16.8181 307.801C26.9971 305.819 36.6751 302.128 46.8085 299.987C60.0617 297.208 74.0436 297.025 86.8641 301.787C98.341 306.047 108.178 313.428 116.536 322.176C135.778 342.291 148.621 367.282 165.837 388.946C174.49 399.813 184.236 410.178 196.1 417.719C210.606 426.922 227.616 431.57 244.9 430.567C294.019 427.742 331.251 387.261 346.667 344.022C354.819 321.15 359.009 297.162 366.866 274.222C373.378 255.2 382.305 233.512 402.39 225.06C419.127 218.021 438.688 217.452 451.463 203.008C456.655 197.154 461.232 189.317 463.828 181.002C445.975 141.135 417.783 105.073 379.777 77.0983L379.8 77.1211Z" fill="#8CC338"/>
</g>
<path d="M85.0651 506.883C89.2096 503.375 92.9214 485.515 94.9708 481.05C98.6371 473.122 97.3619 464.488 93.4451 456.879C84.5641 439.68 80.1009 419.405 65.9368 405.417C55.1202 394.733 27.4298 377.032 12.0816 388.901C6.61637 393.138 2.7224 399.608 1.58381 408.789C1.40164 410.201 -4.8606 431.16 -4.88337 432.617C-5.15663 450.045 11.3757 450.182 21.2814 463.144C32.0069 477.2 47.1501 487.109 63.8191 492.577C71.2427 495.014 78.6207 509.07 85.0879 506.906L85.0651 506.883Z" fill="#B99572"/>
<g style="mix-blend-mode:multiply">
<path d="M78.7118 448.222C71.7664 433.21 59.8568 417.855 45.8521 408.789C37.4721 403.344 27.4525 399.722 17.4785 402.843C13.7439 404.027 10.5104 406.26 6.86687 407.536C5.25007 408.105 3.26893 408.424 1.78876 407.262C1.69768 407.764 1.60659 408.242 1.53828 408.766C1.3561 410.178 -4.90613 431.137 -4.92891 432.595C-5.20217 450.022 11.3301 450.159 21.2359 463.121C31.9614 477.177 47.1046 487.087 63.7735 492.554C71.1971 494.992 78.5752 509.048 85.0424 506.883C89.1185 503.421 92.7848 486.062 94.857 481.278C86.9097 472.051 83.6988 459.043 78.689 448.222H78.7118Z" fill="#B99572"/>
</g>
<g style="mix-blend-mode:multiply">
<path d="M20.8032 396.441C22.0329 392.683 23.3537 388.719 25.0388 384.96C22.1695 384.914 19.4142 385.301 16.8637 386.236C14.5182 398.173 13.5163 410.361 12.1272 422.457C15.8845 414.142 17.9795 405.053 20.826 396.419L20.8032 396.441Z" fill="#B99572"/>
</g>
<g style="mix-blend-mode:multiply">
<path d="M46.6947 451.571C51.2946 450.911 55.348 445.352 57.9667 442.072C61.4053 437.743 64.4794 433.141 67.7813 428.699C70.3546 425.236 72.9505 421.66 75.6604 418.129C72.9505 413.55 69.808 409.221 65.9368 405.394C65.6863 405.144 65.4131 404.893 65.1398 404.643C62.5894 409.814 59.9479 414.939 57.3974 420.02C52.5926 429.633 46.1254 440.454 46.6947 451.571Z" fill="#B99572"/>
</g>
<g style="mix-blend-mode:multiply">
<path d="M91.168 452.209C90.2343 450.204 89.3462 448.177 88.5037 446.149C80.6474 454.783 72.7 463.349 66.1646 473.008C75.5921 467.541 83.3345 459.795 91.1907 452.209H91.168Z" fill="#B99572"/>
</g>
<g style="mix-blend-mode:multiply">
<path d="M77.8466 491.78C84.2454 485.674 90.5077 479.41 97.0204 473.441C97.2253 471.391 97.1798 469.318 96.8838 467.29C89.1869 474.648 81.695 482.143 77.8693 491.802L77.8466 491.78Z" fill="#B99572"/>
</g>
<g style="mix-blend-mode:multiply">
<path d="M95.4719 461.64C94.9026 460.023 94.2194 458.406 93.4224 456.856C93.1947 456.424 93.0125 455.991 92.7848 455.558C85.475 463.873 78.4841 472.461 71.9031 481.414C80.693 476.038 88.0483 468.794 95.4491 461.64H95.4719Z" fill="#B99572"/>
</g>
<g style="mix-blend-mode:multiply">
<path d="M48.9719 411.91C51.8184 407.467 54.7787 402.98 58.0123 398.719C55.052 396.51 51.7045 394.323 48.1521 392.364C39.681 408.47 32.4396 425.442 29.4792 443.325C38.4513 435.283 42.573 421.842 48.9719 411.91Z" fill="#B99572"/>
</g>
<path d="M78.6663 517.021C82.8108 513.513 86.4315 509.344 88.5038 504.856C92.1472 496.905 90.8948 488.294 86.978 480.662C78.0971 463.463 73.6338 443.188 59.4697 429.2C48.6531 418.516 20.9627 400.815 5.6145 412.684C0.149271 416.921 -3.7447 423.391 -4.88329 432.572C-7.18324 450.979 4.11156 472.871 14.8143 486.927C25.5398 500.983 40.683 510.87 57.352 516.36C64.7756 518.798 72.2447 519.185 78.6891 517.021H78.6663Z" fill="#8CC338"/>
<g style="mix-blend-mode:multiply">
<path d="M86.978 480.685C78.097 463.486 73.6337 443.211 59.4697 429.223C59.2647 429.018 59.037 428.813 58.8321 428.608C60.54 431.137 62.134 433.734 63.5458 436.354C70.4229 449.293 74.3396 464.83 72.1536 479.523C70.514 490.618 64.3884 501.12 52.1827 502.099C35.6504 503.443 21.4408 491.392 12.6509 478.544C5.02238 467.404 -0.306219 454.032 -3.28932 440.864C-3.92693 438.085 -4.49622 434.941 -4.76948 431.775C-4.81503 432.048 -4.86057 432.299 -4.90611 432.595C-7.20606 451.002 4.08873 472.894 14.7915 486.95C25.517 501.006 40.6602 510.893 57.3291 516.383C64.7527 518.821 72.2219 519.208 78.6663 517.044C82.8107 513.535 86.4315 509.366 88.5037 504.879C92.1472 496.928 90.8947 488.317 86.978 480.685Z" fill="#8CC338"/>
</g>
<path d="M387.155 475.491C384.468 473.213 382.077 461.663 380.734 458.77C378.366 453.644 379.185 448.04 381.736 443.12C387.497 432.002 390.366 418.881 399.521 409.814C406.511 402.911 424.433 391.452 434.361 399.13C437.891 401.863 440.419 406.055 441.17 412.001C441.284 412.912 445.337 426.467 445.337 427.401C445.52 438.677 434.817 438.768 428.418 447.152C421.495 456.241 411.681 462.643 400.887 466.197C396.082 467.769 391.3 476.858 387.133 475.468L387.155 475.491Z" fill="#B99572"/>
<g style="mix-blend-mode:multiply">
<path d="M433.724 409.13C425.366 406.465 416.394 408.356 409.153 413.14C399.475 419.541 392.53 429.383 388.294 440.09C385.63 446.833 382.988 454.738 381.941 462.347C383.307 466.926 385.152 473.805 387.155 475.491C391.323 476.881 396.105 467.791 400.91 466.219C411.703 462.688 421.495 456.287 428.441 447.175C434.84 438.791 445.542 438.7 445.36 427.423C445.36 426.672 442.65 417.491 441.603 413.641C439.348 411.659 436.73 410.087 433.724 409.13Z" fill="#B99572"/>
</g>
<g style="mix-blend-mode:multiply">
<path d="M393.304 467.791C390.617 458.155 386.814 448.86 383.512 439.406C382.943 440.659 382.351 441.912 381.713 443.12C381.189 444.145 380.757 445.215 380.392 446.286C383.876 453.918 387.816 461.549 393.304 467.791Z" fill="#B99572"/>
</g>
<g style="mix-blend-mode:multiply">
<path d="M379.686 448.906C379.026 452.186 379.276 455.581 380.757 458.77C382.1 461.663 384.491 473.213 387.178 475.491C389.41 476.243 391.824 473.965 394.329 471.459C387.975 465.149 383.512 457.107 379.709 448.883L379.686 448.906Z" fill="#B99572"/>
</g>
<g style="mix-blend-mode:multiply">
<path d="M398.541 410.93C400.91 419.359 403.483 427.742 409.176 434.349C410.474 426.922 406.876 418.698 404.963 411.727C404.462 409.928 404.052 408.105 403.642 406.283C402.048 407.513 400.659 408.72 399.566 409.837C399.202 410.201 398.906 410.588 398.564 410.953L398.541 410.93Z" fill="#B99572"/>
</g>
<g style="mix-blend-mode:multiply">
<path d="M402.185 443.803C400.477 434.098 397.425 424.667 395.171 415.099C393.714 417.195 392.438 419.405 391.277 421.705C393.896 429.702 396.674 437.766 402.185 443.826V443.803Z" fill="#B99572"/>
</g>
<g style="mix-blend-mode:multiply">
<path d="M421.882 397.102C424.456 405.098 426.46 413.299 428.896 421.364C428.623 413.117 427.894 404.87 427.12 396.646C425.435 396.555 423.681 396.715 421.882 397.102Z" fill="#B99572"/>
</g>
<g style="mix-blend-mode:multiply">
<path d="M389.387 425.669C388.727 427.15 388.089 428.654 387.452 430.157C390.617 437.174 394.192 443.985 398.382 450.455C395.718 442.094 392.256 433.984 389.387 425.692V425.669Z" fill="#B99572"/>
</g>
<path d="M391.3 482.052C388.613 479.774 386.267 477.086 384.947 474.193C382.578 469.067 383.398 463.463 385.949 458.542C391.71 447.425 394.579 434.303 403.733 425.236C410.724 418.311 428.646 406.875 438.574 414.552C442.126 417.286 444.631 421.478 445.383 427.423C446.863 439.338 439.576 453.508 432.653 462.597C425.708 471.687 415.916 478.088 405.122 481.642C400.318 483.214 395.49 483.465 391.323 482.075L391.3 482.052Z" fill="#8CC338"/>
<g style="mix-blend-mode:multiply">
<path d="M445.36 427.423C444.631 421.478 442.104 417.286 438.551 414.552C432.335 409.746 422.998 412.434 415.165 416.808C420.63 416.238 425.594 418.106 428.008 424.781C430.536 431.82 428.213 439.725 425.275 446.263C422.338 452.824 418.535 459.362 413.548 464.625C409.54 468.839 403.915 473.874 397.767 474.193C391.391 474.534 386.973 469.181 385.857 463.258C385.63 462.051 385.493 460.843 385.425 459.636C383.307 464.283 382.738 469.432 384.947 474.193C386.29 477.086 388.636 479.797 391.3 482.052C395.467 483.442 400.295 483.214 405.1 481.619C415.893 478.088 425.685 471.687 432.631 462.574C439.553 453.485 446.863 439.315 445.36 427.401V427.423Z" fill="#8CC338"/>
</g>
<path d="M305.974 487.246C295.658 483.419 284.273 481.437 273.547 484.421C261.091 487.884 256.058 496.814 248.749 506.428C244.08 512.556 238.479 516.11 230.918 517.636C215.16 520.871 198.036 519.481 182.483 515.882C174.148 513.968 166.042 511.804 157.57 510.528C153.335 509.89 148.371 510.938 146.799 515.426C145.911 517.978 140.127 530.348 141.425 532.261C147.095 540.645 175.879 533.491 181.891 535.018C191.865 537.546 201.998 539.779 212.223 541.032C232.285 543.515 253.69 540.736 273.57 537.455C290.489 534.653 321.14 536.157 329.588 519.914C334.462 510.574 318.18 492.395 310.506 489.069C309.025 488.431 307.5 487.816 305.951 487.246H305.974Z" fill="#B99572"/>
<g style="mix-blend-mode:multiply">
<path d="M297.457 492.304C286.231 490.641 275.073 493.01 265.736 499.525C257.265 505.403 250.889 513.558 242.782 519.8C227.161 531.828 204.936 534.22 186.172 529.414C173.488 526.156 154.337 517.408 142.655 525.883C141.607 528.844 140.901 531.487 141.448 532.284C147.118 540.667 175.902 533.514 181.913 535.041C191.887 537.569 202.021 539.802 212.245 541.055C232.307 543.538 253.713 540.759 273.593 537.478C290.512 534.676 321.163 536.18 329.611 519.937C329.793 519.595 329.93 519.208 330.067 518.843C324.305 505.311 312.806 494.582 297.48 492.326L297.457 492.304Z" fill="#B99572"/>
</g>
<g style="mix-blend-mode:multiply">
<path d="M157.957 510.597C157.753 516.793 156.978 522.944 156.432 529.14C158.345 523.217 159.984 517.203 161.988 511.303C160.645 511.052 159.301 510.802 157.957 510.597Z" fill="#B99572"/>
</g>
<g style="mix-blend-mode:multiply">
<path d="M167.112 512.351C166.132 520.21 164.63 528.047 165.313 535.952C165.472 535.952 165.632 535.929 165.791 535.906C169.913 529.3 170.755 521.258 172.531 513.558C170.732 513.148 168.933 512.738 167.112 512.351Z" fill="#B99572"/>
</g>
<g style="mix-blend-mode:multiply">
<path d="M178.816 530.826C180.98 526.156 182.278 521.144 183.462 516.11C183.12 516.041 182.801 515.973 182.46 515.882C181.367 515.631 180.274 515.381 179.204 515.107C178.839 520.347 178.11 525.609 178.816 530.826Z" fill="#B99572"/>
</g>
<g style="mix-blend-mode:multiply">
<path d="M222.402 539.984C223.153 532.968 222.72 525.951 222.014 518.934C220.124 519.117 218.234 519.253 216.344 519.322C217.437 526.475 219.213 533.537 222.402 539.984Z" fill="#B99572"/>
</g>
<g style="mix-blend-mode:multiply">
<path d="M243.557 511.827C244.604 515.403 245.72 518.957 246.927 522.488C246.449 518.16 246.244 513.832 246.084 509.48C245.264 510.323 244.422 511.098 243.557 511.827Z" fill="#B99572"/>
</g>
<g style="mix-blend-mode:multiply">
<path d="M235.791 516.246C237.499 523.605 239.845 530.803 243.329 537.455C243.557 529.505 242.259 521.645 240.801 513.809C239.23 514.788 237.568 515.586 235.791 516.246Z" fill="#B99572"/>
</g>
<g style="mix-blend-mode:multiply">
<path d="M243.511 541.351C243.511 541.351 243.352 541.191 243.283 541.1C240.141 535.77 237.818 530.029 236.042 524.106C236.543 530.006 236.702 535.929 236.201 541.829C238.638 541.715 241.097 541.556 243.534 541.374L243.511 541.351Z" fill="#B99572"/>
</g>
<g style="mix-blend-mode:multiply">
<path d="M262.594 503.147C263.892 509.048 265.486 515.654 269.562 520.324C270.199 516.588 269.357 512.305 268.879 508.706C268.127 502.965 267.148 497.247 266.465 491.506C266.351 490.504 266.146 489.183 265.941 487.679C263.983 488.864 262.229 490.23 260.613 491.757C261.182 495.584 261.774 499.388 262.594 503.147Z" fill="#B99572"/>
</g>
<g style="mix-blend-mode:multiply">
<path d="M305.815 511.645C310.118 505.289 310.187 497.27 312.122 489.912C311.553 489.57 311.007 489.296 310.506 489.069C309.025 488.431 307.5 487.816 305.951 487.246C305.314 486.996 304.653 486.768 304.016 486.563C304.129 495.083 301.943 503.922 305.815 511.645Z" fill="#B99572"/>
</g>
<g style="mix-blend-mode:multiply">
<path d="M297.685 484.695C296.387 484.376 295.066 484.102 293.745 483.852C292.903 492.827 290.762 502.168 294.565 509.913C297.366 501.894 295.704 492.827 297.685 484.695Z" fill="#B99572"/>
</g>
<g style="mix-blend-mode:multiply">
<path d="M283.111 500.163C283.407 496.974 283.726 493.807 284.25 490.641C284.66 488.135 285.138 485.538 285.798 482.986C284.455 482.941 283.088 482.986 281.745 483.054C282.177 488.75 282.724 494.445 283.111 500.163Z" fill="#B99572"/>
</g>
<g style="mix-blend-mode:multiply">
<path d="M226.91 518.342C225.863 518.502 224.793 518.638 223.745 518.775C224.497 526.475 224.929 534.198 223.927 541.92C227.07 542.012 230.235 541.989 233.4 541.898C228.914 535.633 227.024 526.543 226.933 518.342H226.91Z" fill="#B99572"/>
</g>
<path d="M310.62 500.436C299.644 496.359 287.506 494.24 276.052 497.406C262.799 501.097 257.425 510.619 249.637 520.848C244.672 527.386 238.706 531.145 230.645 532.808C213.84 536.248 195.622 534.767 179.044 530.94C170.163 528.89 161.533 526.612 152.515 525.222C148.006 524.539 142.723 525.655 141.038 530.439C135.937 544.927 170.55 549.324 178.452 551.306C189.064 553.994 199.88 556.386 210.765 557.708C232.148 560.35 254.943 557.389 276.12 553.88C294.133 550.896 319.478 540.212 328.495 522.898C333.687 512.943 323.645 505.858 315.493 502.327C313.921 501.644 312.305 500.983 310.665 500.391L310.62 500.436Z" fill="#8CC338"/>
<g style="mix-blend-mode:multiply">
<path d="M315.447 502.373C313.876 501.689 312.259 501.029 310.619 500.436C299.643 496.359 287.506 494.24 276.052 497.406C273.684 498.067 271.566 498.91 269.63 499.935C276.621 498.614 283.999 498.113 290.694 500.117C296.364 501.803 303.765 506.519 302.945 513.421C302.194 519.891 296.25 524.561 291.172 527.887C266.397 544.085 234.607 548.823 205.619 547.889C195.918 547.57 186.172 546.659 176.676 544.631C169.161 543.037 160.576 541.237 154.109 536.817C150.42 534.289 146.708 529.277 149.441 525.085C145.82 525.245 142.336 526.748 141.015 530.462C135.914 544.95 170.528 549.347 178.429 551.329C189.041 554.017 199.858 556.409 210.742 557.73C232.125 560.373 254.92 557.411 276.097 553.903C294.11 550.919 319.455 540.235 328.473 522.921C333.664 512.966 323.622 505.881 315.47 502.35L315.447 502.373Z" fill="#8CC338"/>
</g>
<g style="mix-blend-mode:screen" opacity="0.5">
<path d="M23.1486 224.947C39.8403 230.072 57.4201 228.432 74.5673 227.179C92.6481 225.858 111.093 224.195 129.037 227.726C138.283 229.548 147.3 232.555 155.726 236.815C165.017 241.531 173.374 247.75 182.164 253.286C199.288 264.061 218.553 272.923 239.184 267.911C248.68 265.61 257.88 261.555 265.076 254.79C271.179 249.049 275.824 242.078 279.559 234.628C287.643 218.5 292.607 200.981 302.08 185.536C312.077 169.27 325.33 155.556 339.426 142.821C346.28 136.625 353.43 129.859 357.643 121.498C362.038 112.728 362.266 103.137 358.782 93.9789C347.054 63.0424 313.284 49.5334 283.134 43.4508C253.394 37.4595 222.629 37.8012 192.707 42.3346C161.533 47.0502 130.791 56.1398 102.463 70.059C77.0949 82.5201 51.545 98.0112 32.189 118.856C10.1915 142.571 -29.1809 208.909 23.1259 224.969L23.1486 224.947Z" fill="#8CC338"/>
</g>
<path d="M19.8011 173.758C19.8922 171.297 19.4823 168.86 17.2279 170.136C14.8368 171.48 14.0626 174.646 14.5863 177.266C12.4686 177.426 10.3052 178.382 10.4191 180.934C10.533 183.28 12.2636 183.531 14.0398 183.03C12.8785 185.034 11.8993 187.449 12.924 188.93C14.2903 190.935 16.1348 188.36 17.3417 185.946C17.5011 187.495 18.0476 188.93 19.3001 189.408C21.9188 190.411 22.0327 183.986 21.8733 180.979C24.2871 181.663 27.4524 181.116 27.293 177.972C27.2247 176.059 26.2227 175.671 24.993 175.671C26.7237 174.008 27.9761 171.913 26.3138 169.543C24.3327 166.65 21.5317 170.773 19.7783 173.781L19.8011 173.758Z" fill="#9ACA3C"/>
<path d="M18.617 173.53C18.7308 171.07 18.3209 168.632 16.0665 169.908C13.6755 171.252 12.9013 174.418 13.4478 177.038C11.33 177.198 9.1667 178.155 9.25778 180.706C9.37164 183.052 11.1023 183.303 12.8785 182.825C11.7171 184.829 10.7379 187.244 11.7399 188.725C13.129 190.707 14.9507 188.133 16.1804 185.718C16.3398 187.29 16.8863 188.702 18.1388 189.18C20.7348 190.16 20.8714 183.759 20.6892 180.729C23.1258 181.412 26.2455 180.888 26.1089 177.722C26.0178 175.831 25.0158 175.421 23.8089 175.421C25.5396 173.758 26.792 171.662 25.1297 169.316C23.1258 166.422 20.3476 170.546 18.5714 173.53H18.617Z" fill="white"/>
<path d="M20.4387 175.649C21.1902 176.309 20.6437 178.177 19.2318 179.772C17.82 181.389 16.0438 182.118 15.2923 181.458C14.518 180.774 15.0646 178.929 16.4764 177.334C17.8883 175.74 19.6645 174.965 20.4159 175.649H20.4387Z" fill="#B2D237"/>
<path d="M59.8566 231.735C59.9477 229.275 59.5378 226.837 57.2834 228.113C54.8924 229.457 54.1409 232.624 54.6419 235.244C52.5241 235.38 50.3608 236.36 50.4746 238.889C50.5657 241.235 52.3192 241.486 54.0954 240.984C52.934 242.989 51.9548 245.404 52.9795 246.885C54.3458 248.889 56.1904 246.315 57.3973 243.9C57.5567 245.472 58.1032 246.885 59.3556 247.363C61.9744 248.343 62.0882 241.941 61.9288 238.911C64.3426 239.595 67.5079 239.048 67.3485 235.904C67.2574 233.991 66.2555 233.603 65.0486 233.603C66.7792 231.918 68.0317 229.822 66.3693 227.475C64.3882 224.582 61.5873 228.705 59.8338 231.713L59.8566 231.735Z" fill="#9ACA3C"/>
<path d="M58.6725 231.507C58.7864 229.047 58.3765 226.61 56.1221 227.885C53.731 229.229 52.9568 232.396 53.5033 235.016C51.3855 235.175 49.2222 236.132 49.3133 238.661C49.4272 241.007 51.1578 241.258 52.934 240.779C51.7727 242.784 50.7935 245.199 51.7954 246.68C53.1845 248.661 55.0063 246.087 56.2587 243.672C56.4181 245.244 56.9646 246.657 58.2171 247.135C60.8131 248.115 60.9497 241.713 60.7675 238.683C63.2041 239.367 66.3238 238.843 66.1872 235.676C66.0961 233.786 65.0942 233.398 63.8873 233.375C65.6179 231.712 66.8704 229.617 65.208 227.27C63.2041 224.377 60.4259 228.5 58.6497 231.485L58.6725 231.507Z" fill="white"/>
<path d="M60.4943 233.626C61.2457 234.287 60.6992 236.155 59.2873 237.727C57.8527 239.344 56.0993 240.073 55.3478 239.412C54.5736 238.729 55.1201 236.884 56.532 235.289C57.9438 233.694 59.72 232.92 60.4715 233.603L60.4943 233.626Z" fill="#B2D237"/>
<path d="M8.93897 283.926C9.00728 282.286 8.73403 280.646 7.20832 281.489C5.61429 282.377 5.09054 284.519 5.43212 286.25C4.02027 286.341 2.56288 287.002 2.65396 288.688C2.72228 290.259 3.88364 290.419 5.06777 290.1C4.29353 291.444 3.63315 293.062 4.3163 294.041C5.22717 295.385 6.45685 293.654 7.27663 292.036C7.36772 293.084 7.75484 294.018 8.5974 294.36C10.3508 295.021 10.4191 290.738 10.328 288.71C11.9448 289.166 14.0626 288.801 13.9488 286.706C13.9032 285.43 13.2201 285.157 12.4003 285.179C13.5616 284.063 14.3814 282.651 13.2884 281.079C11.9676 279.142 10.1003 281.899 8.9162 283.904L8.93897 283.926Z" fill="#9ACA3C"/>
<path d="M8.14199 283.79C8.21031 282.149 7.93704 280.509 6.43411 281.352C4.84008 282.263 4.31633 284.382 4.68068 286.136C3.26883 286.227 1.81144 286.888 1.87975 288.574C1.94807 290.146 3.10943 290.305 4.31633 289.986C3.54209 291.33 2.88171 292.948 3.54209 293.927C4.47573 295.248 5.70541 293.54 6.5252 291.922C6.61628 292.97 7.0034 293.904 7.84595 294.246C9.57661 294.907 9.6677 290.601 9.55384 288.596C11.1706 289.052 13.2656 288.71 13.1745 286.592C13.1062 285.316 12.4459 285.065 11.6488 285.065C12.8102 283.949 13.6528 282.559 12.5369 280.988C11.1934 279.051 9.32612 281.808 8.16476 283.812L8.14199 283.79Z" fill="white"/>
<path d="M9.37165 285.202C9.87263 285.635 9.50827 286.888 8.57463 287.959C7.61822 289.029 6.43409 289.53 5.93311 289.098C5.40936 288.642 5.77371 287.412 6.73012 286.341C7.66377 285.27 8.8479 284.769 9.37165 285.225V285.202Z" fill="#B2D237"/>
<path d="M69.0336 101.428C69.5346 99.8564 69.694 98.2162 68.0089 98.6262C66.2327 99.0591 65.1624 100.973 65.0486 102.75C63.6595 102.476 62.0882 102.704 61.7011 104.367C61.3595 105.893 62.4298 106.372 63.6595 106.372C62.5664 107.465 61.4962 108.832 61.8833 109.971C62.407 111.497 64.0466 110.176 65.2763 108.832C65.0941 109.857 65.208 110.882 65.9139 111.406C67.4168 112.523 68.6465 108.399 69.0792 106.417C70.5138 107.283 72.6543 107.511 73.1098 105.438C73.4058 104.185 72.8137 103.752 72.0395 103.547C73.4514 102.772 74.6355 101.656 73.9979 99.8336C73.2464 97.6239 70.696 99.7653 69.0336 101.406V101.428Z" fill="#9ACA3C"/>
<path d="M68.3277 101.064C68.8287 99.4919 69.0109 97.8517 67.3258 98.2618C65.5496 98.7174 64.4793 100.608 64.3655 102.408C62.9764 102.135 61.4051 102.362 61.018 104.025C60.6764 105.552 61.7467 106.03 62.9764 106.03C61.8833 107.124 60.8131 108.49 61.1774 109.629C61.7239 111.156 63.3635 109.834 64.5932 108.49C64.411 109.538 64.5249 110.541 65.2536 111.065C66.7565 112.158 67.9862 108.035 68.4188 106.076C69.8535 106.941 71.9712 107.169 72.4494 105.096C72.7227 103.866 72.1534 103.433 71.3792 103.205C72.791 102.453 73.9751 101.314 73.3148 99.4919C72.5405 97.2822 70.0129 99.4236 68.3277 101.041V101.064Z" fill="white"/>
<path d="M69.1019 102.75C69.4663 103.319 68.7831 104.413 67.599 105.187C66.3921 105.962 65.1168 106.144 64.7525 105.574C64.3881 105.005 65.0485 103.911 66.2554 103.137C67.4396 102.362 68.7148 102.18 69.1019 102.75Z" fill="#B2D237"/>
<path d="M405.464 158.882C407.103 159.018 408.743 158.836 407.969 157.287C407.149 155.647 405.054 155.032 403.278 155.282C403.255 153.87 402.686 152.389 400.978 152.389C399.407 152.389 399.179 153.551 399.452 154.736C398.154 153.893 396.583 153.164 395.558 153.802C394.169 154.667 395.831 155.966 397.403 156.854C396.355 156.9 395.399 157.219 395.034 158.062C394.283 159.77 398.564 160.066 400.591 160.044C400.044 161.638 400.317 163.757 402.412 163.757C403.688 163.757 403.984 163.119 404.029 162.299C405.1 163.506 406.443 164.418 408.083 163.392C410.064 162.162 407.422 160.158 405.464 158.882Z" fill="#9ACA3C"/>
<path d="M405.646 158.107C407.286 158.267 408.925 158.062 408.151 156.513C407.331 154.872 405.236 154.257 403.46 154.531C403.437 153.118 402.845 151.637 401.16 151.615C399.589 151.615 399.361 152.777 399.634 153.984C398.336 153.141 396.765 152.412 395.718 153.027C394.351 153.893 396.014 155.191 397.585 156.103C396.537 156.148 395.581 156.49 395.217 157.31C394.488 159.019 398.746 159.315 400.773 159.292C400.226 160.887 400.477 163.005 402.617 163.028C403.893 163.028 404.189 162.367 404.234 161.57C405.282 162.777 406.648 163.689 408.265 162.663C410.246 161.433 407.604 159.429 405.669 158.153L405.646 158.107Z" fill="white"/>
<path d="M404.166 159.246C403.688 159.725 402.481 159.315 401.456 158.312C400.431 157.31 399.999 156.103 400.454 155.624C400.932 155.123 402.139 155.556 403.187 156.558C404.211 157.561 404.667 158.768 404.166 159.246Z" fill="#B2D237"/>
<path d="M358.304 115.347C360.991 115.598 363.655 115.256 362.38 112.728C361.036 110.062 357.62 109.06 354.751 109.47C354.706 107.169 353.772 104.754 350.994 104.732C348.443 104.732 348.079 106.622 348.512 108.559C346.371 107.192 343.821 106.007 342.158 107.032C339.904 108.422 342.614 110.563 345.164 111.999C343.456 112.09 341.885 112.614 341.293 113.958C340.086 116.76 347.054 117.216 350.333 117.216C349.445 119.813 349.878 123.275 353.317 123.275C355.412 123.275 355.89 122.227 355.935 120.883C357.666 122.842 359.875 124.323 362.539 122.66C365.773 120.655 361.469 117.398 358.281 115.325L358.304 115.347Z" fill="#9ACA3C"/>
<path d="M358.622 114.072C361.287 114.322 363.974 114.003 362.698 111.475C361.355 108.809 357.939 107.807 355.07 108.24C355.024 105.916 354.091 103.501 351.313 103.479C348.762 103.479 348.398 105.369 348.83 107.329C346.69 105.962 344.14 104.777 342.454 105.757C340.223 107.169 342.933 109.288 345.483 110.768C343.775 110.86 342.204 111.384 341.612 112.728C340.405 115.507 347.373 115.985 350.675 115.963C349.81 118.56 350.22 122.022 353.681 122.045C355.753 122.045 356.231 120.974 356.3 119.676C358.008 121.635 360.239 123.116 362.881 121.453C366.114 119.425 361.788 116.168 358.622 114.095V114.072Z" fill="white"/>
<path d="M356.208 115.94C355.457 116.714 353.453 116.031 351.791 114.413C350.106 112.773 349.4 110.814 350.151 110.04C350.925 109.242 352.907 109.926 354.592 111.566C356.254 113.183 356.983 115.165 356.208 115.963V115.94Z" fill="#B2D237"/>
<path d="M368.05 188.975C369.667 188.634 371.169 187.973 369.985 186.72C368.733 185.399 366.57 185.422 364.953 186.173C364.52 184.829 363.541 183.599 361.924 184.078C360.421 184.533 360.558 185.695 361.15 186.743C359.67 186.333 357.962 186.082 357.165 186.971C356.095 188.178 358.053 188.953 359.806 189.34C358.827 189.704 358.007 190.274 357.894 191.162C357.689 193.008 361.833 192.051 363.746 191.459C363.7 193.144 364.566 195.081 366.57 194.466C367.799 194.101 367.89 193.395 367.663 192.62C369.029 193.463 370.577 193.919 371.83 192.484C373.356 190.752 370.259 189.591 368.027 188.953L368.05 188.975Z" fill="#9ACA3C"/>
<path d="M368.004 188.178C369.598 187.859 371.101 187.176 369.917 185.946C368.665 184.624 366.501 184.647 364.885 185.422C364.429 184.078 363.473 182.847 361.856 183.326C360.353 183.781 360.49 184.943 361.082 186.014C359.601 185.604 357.894 185.353 357.097 186.242C356.049 187.472 357.985 188.224 359.761 188.634C358.782 188.998 357.962 189.568 357.848 190.456C357.643 192.279 361.788 191.322 363.7 190.73C363.655 192.415 364.497 194.352 366.524 193.737C367.731 193.372 367.822 192.666 367.64 191.891C368.983 192.734 370.555 193.213 371.784 191.755C373.31 190.001 370.213 188.862 368.004 188.224V188.178Z" fill="white"/>
<path d="M366.934 189.704C366.638 190.297 365.34 190.251 364.088 189.591C362.812 188.93 362.061 187.905 362.357 187.335C362.676 186.72 363.951 186.766 365.203 187.426C366.456 188.087 367.23 189.089 366.934 189.704Z" fill="#B2D237"/>
<path d="M314.878 68.8516C316.449 68.3732 317.906 67.5758 316.608 66.4368C315.242 65.2294 313.056 65.4344 311.53 66.3457C310.961 65.0472 309.891 63.8853 308.297 64.5232C306.839 65.0927 307.067 66.2545 307.773 67.2797C306.247 67.0063 304.517 66.8924 303.811 67.872C302.854 69.1933 304.881 69.7628 306.68 70.0134C305.723 70.4462 304.949 71.1069 304.926 72.0181C304.881 73.8862 308.957 72.5421 310.824 71.7903C310.915 73.4761 311.963 75.3441 313.921 74.5468C315.105 74.0684 315.128 73.3622 314.855 72.5876C316.29 73.3166 317.884 73.6356 319.022 72.0637C320.411 70.1729 317.2 69.3072 314.9 68.8744L314.878 68.8516Z" fill="#9ACA3C"/>
<path d="M314.764 68.0542C316.335 67.5758 317.793 66.7785 316.495 65.6395C315.105 64.4321 312.942 64.6371 311.416 65.5483C310.847 64.2498 309.754 63.088 308.183 63.7031C306.725 64.2954 306.953 65.4344 307.659 66.4596C306.133 66.1862 304.403 66.0951 303.674 67.0291C302.74 68.3504 304.744 68.9427 306.543 69.1933C305.587 69.6261 304.813 70.3096 304.79 71.198C304.744 73.0433 308.82 71.722 310.688 70.9474C310.802 72.6332 311.826 74.5012 313.785 73.7039C314.969 73.2255 314.992 72.4965 314.718 71.7448C316.13 72.4737 317.747 72.7927 318.863 71.2436C320.252 69.3528 317.041 68.4871 314.741 68.0315L314.764 68.0542Z" fill="white"/>
<path d="M313.83 69.6717C313.58 70.2868 312.282 70.3551 310.961 69.8084C309.64 69.2616 308.775 68.3048 309.025 67.6897C309.276 67.0519 310.574 66.9835 311.895 67.5303C313.215 68.077 314.081 69.011 313.83 69.6489V69.6717Z" fill="#B2D237"/>
<path d="M-2.35582 234.492C-1.6499 233.216 -1.21724 231.826 -2.74294 231.918C-4.33697 232.009 -5.58941 233.467 -6.02208 234.97C-7.16066 234.492 -8.57252 234.446 -9.16458 235.79C-9.73388 237.043 -8.86855 237.636 -7.82105 237.863C-8.95964 238.615 -10.0982 239.617 -9.96159 240.665C-9.75665 242.078 -8.13985 241.212 -6.84186 240.278C-7.16067 241.144 -7.25175 242.032 -6.728 242.625C-5.61219 243.832 -3.85876 240.483 -3.15283 238.866C-2.05979 239.868 -0.260821 240.415 0.490647 238.706C0.968854 237.681 0.53619 237.203 -0.10142 236.907C1.26489 236.474 2.44902 235.699 2.22131 234.013C1.92527 231.963 -0.625169 233.398 -2.35582 234.515V234.492Z" fill="#9ACA3C"/>
<path d="M-2.92511 234.082C-2.21919 232.806 -1.78652 231.416 -3.31223 231.485C-4.92903 231.576 -6.1587 233.034 -6.56859 234.56C-7.70718 234.082 -9.11903 234.013 -9.73387 235.38C-10.3032 236.633 -9.43784 237.225 -8.36756 237.43C-9.50615 238.182 -10.6675 239.207 -10.5309 240.233C-10.3259 241.645 -8.68637 240.779 -7.41115 239.822C-7.75273 240.688 -7.84381 241.577 -7.29729 242.169C-6.20425 243.376 -4.42805 240.028 -3.72212 238.41C-2.62908 239.412 -0.830109 239.959 -0.0786404 238.251C0.376795 237.225 -0.0558691 236.747 -0.670707 236.428C0.672827 236.018 1.87973 235.244 1.65201 233.558C1.35598 231.507 -1.21723 232.943 -2.92511 234.036V234.082Z" fill="white"/>
<path d="M295.795 359.217C296.774 356.939 297.252 354.525 294.679 354.912C291.969 355.299 290.125 358.01 289.669 360.63C287.643 360.015 285.274 360.151 284.477 362.566C283.726 364.799 285.297 365.642 287.119 365.824C285.32 367.305 283.544 369.195 283.976 370.95C284.546 373.296 287.164 371.565 289.168 369.742C288.758 371.269 288.781 372.772 289.76 373.683C291.855 375.551 294.246 369.583 295.18 366.712C297.207 368.216 300.327 368.831 301.306 365.847C301.921 364.024 301.124 363.295 299.962 362.885C302.171 361.928 304.084 360.425 303.401 357.623C302.581 354.228 298.505 357.053 295.795 359.263V359.217Z" fill="#9ACA3C"/>
<path d="M294.793 358.58C295.772 356.324 296.25 353.887 293.7 354.274C290.99 354.684 289.146 357.372 288.713 360.015C286.686 359.4 284.318 359.536 283.498 361.928C282.747 364.161 284.318 365.004 286.14 365.186C284.341 366.644 282.565 368.558 282.974 370.289C283.567 372.635 286.185 370.881 288.212 369.082C287.802 370.585 287.825 372.111 288.804 373.023C290.876 374.845 293.29 368.922 294.201 366.052C296.228 367.555 299.347 368.17 300.349 365.163C300.941 363.363 300.144 362.635 299.029 362.202C301.237 361.268 303.15 359.741 302.444 356.962C301.602 353.545 297.526 356.393 294.816 358.58H294.793Z" fill="white"/>
<path d="M295.727 361.199C296.182 362.088 295.021 363.614 293.131 364.616C291.218 365.619 289.305 365.687 288.85 364.799C288.371 363.887 289.533 362.361 291.423 361.359C293.313 360.379 295.226 360.288 295.704 361.199H295.727Z" fill="#B2D237"/>
<path d="M245.652 405.485C246.289 403.959 246.631 402.342 244.9 402.592C243.078 402.866 241.849 404.665 241.553 406.419C240.209 406.009 238.615 406.101 238.069 407.718C237.568 409.222 238.615 409.768 239.822 409.882C238.615 410.862 237.431 412.138 237.727 413.299C238.114 414.871 239.868 413.709 241.211 412.479C240.938 413.482 240.938 414.507 241.621 415.122C243.033 416.352 244.627 412.388 245.242 410.452C246.585 411.454 248.68 411.864 249.341 409.859C249.75 408.652 249.204 408.151 248.452 407.877C249.933 407.24 251.208 406.237 250.752 404.369C250.206 402.091 247.473 403.982 245.652 405.463V405.485Z" fill="#9ACA3C"/>
<path d="M244.968 405.053C245.629 403.549 245.948 401.909 244.217 402.182C242.418 402.456 241.166 404.255 240.869 406.032C239.503 405.622 237.932 405.713 237.385 407.331C236.884 408.834 237.932 409.381 239.162 409.518C237.955 410.497 236.771 411.773 237.044 412.935C237.454 414.507 239.207 413.345 240.551 412.115C240.277 413.117 240.277 414.142 240.961 414.757C242.35 415.987 243.966 412.001 244.581 410.087C245.925 411.09 248.02 411.5 248.703 409.495C249.09 408.288 248.566 407.809 247.815 407.513C249.295 406.898 250.57 405.873 250.092 404.005C249.523 401.727 246.813 403.64 244.991 405.075L244.968 405.053Z" fill="white"/>
<path d="M245.583 406.807C245.902 407.399 245.105 408.424 243.853 409.085C242.577 409.746 241.302 409.791 240.983 409.199C240.665 408.584 241.439 407.581 242.714 406.898C243.967 406.237 245.265 406.192 245.583 406.784V406.807Z" fill="#B2D237"/>
<path d="M236.679 339.626C237.795 338.692 238.683 337.553 237.226 337.074C235.7 336.573 234.015 337.507 233.081 338.76C232.193 337.917 230.895 337.348 229.848 338.418C228.869 339.398 229.461 340.264 230.349 340.81C229.028 341.129 227.571 341.653 227.343 342.678C227.024 344.068 228.846 343.84 230.394 343.407C229.78 344.091 229.392 344.888 229.666 345.64C230.281 347.166 233.104 344.66 234.357 343.407C235.017 344.729 236.497 345.891 237.818 344.569C238.615 343.772 238.387 343.18 237.909 342.656C239.321 342.747 240.733 342.451 241.12 340.788C241.575 338.76 238.661 339.193 236.679 339.626Z" fill="#9ACA3C"/>
<path d="M236.315 339.033C237.431 338.099 238.319 336.938 236.884 336.459C235.359 335.958 233.674 336.892 232.74 338.168C231.829 337.302 230.554 336.755 229.484 337.803C228.504 338.783 229.119 339.626 230.03 340.218C228.687 340.514 227.252 341.061 227.024 342.063C226.705 343.453 228.55 343.225 230.076 342.792C229.461 343.476 229.051 344.273 229.347 345.025C229.939 346.551 232.785 344.045 234.015 342.792C234.676 344.114 236.156 345.253 237.476 343.954C238.273 343.157 238.046 342.565 237.568 342.041C238.979 342.132 240.391 341.836 240.756 340.195C241.211 338.168 238.296 338.601 236.292 339.033H236.315Z" fill="white"/>
<path d="M236.11 340.651C236.11 341.243 235.108 341.767 233.833 341.767C232.581 341.79 231.556 341.334 231.533 340.719C231.533 340.127 232.535 339.626 233.787 339.603C235.04 339.603 236.065 340.059 236.087 340.651H236.11Z" fill="#B2D237"/>
</svg>
