<svg width="960" height="179" viewBox="0 0 960 179" fill="none" xmlns="http://www.w3.org/2000/svg">
<path d="M1022.42 74.1717C998.2 75.8972 811.131 -20.5154 722.031 3.992C632.931 28.4994 590.806 45.3927 489.82 54.865C388.834 64.3373 360.055 9.80815 287.764 14.4176C215.473 19.0271 155.2 66.7507 62.4918 50.0987C-30.2163 33.4467 -54.6392 5.09008 -75.5145 16.0707C-96.3899 27.0514 -109.796 61.0311 -116.927 90.0393C-124.059 119.048 395.338 229.469 614.565 248.668C833.792 267.866 995.401 179.61 1009.72 152.87C1024.05 126.131 1022.42 74.1717 1022.42 74.1717Z" fill="white"/>
<path d="M705.331 67.6436C655.544 69.6708 607.591 89.255 557.816 90.51C496.372 92.0545 437.149 65.6888 375.609 64.5908C316.06 63.541 258.43 86.2384 198.942 89.424C148.648 92.0907 98.6676 80.7601 48.2773 78.3347C-2.11303 75.9093 -56.5819 84.187 -93.0232 119.011C-92.1906 142.481 -64.5821 153.908 -41.8244 159.7C99.7657 195.695 242.032 231.81 387.471 245.337C538.304 259.298 691.164 248.571 839.427 217.403C869.594 211.056 900.702 203.381 924.968 184.328C949.234 165.275 978.508 108.441 932.208 96.7122C910.934 91.3063 886.246 95.0108 864.224 91.608C838.884 87.6743 813.846 81.5323 788.663 76.5005C761.284 70.9499 733.398 66.4973 705.331 67.6436Z" fill="#25B1DD"/>
<path fill-rule="evenodd" clip-rule="evenodd" d="M306.854 34.8585C302.027 31.8901 296.307 29.4526 290.793 30.7799C285.278 32.1073 280.934 38.7439 283.794 43.643C286.847 48.8437 296.211 50.2072 295.728 56.2285C295.438 59.7278 291.36 61.8274 287.861 61.4654C284.361 61.1034 281.32 59.0521 278.207 57.4231C267.051 51.5905 254.046 50.3854 242.007 54.0686C237.82 55.3717 233.018 58.8952 234.393 63.0461C235.226 65.5681 238.11 66.8713 240.764 66.992C243.419 67.1126 246.038 66.4007 248.692 66.28C255.112 66.0025 261.169 69.2846 266.249 73.2183C271.329 77.1521 275.903 81.846 281.357 85.1523C290.72 90.7753 302.003 91.8975 312.875 92.8991C341.002 95.4693 370.324 97.8946 396.642 87.638C414.319 80.7479 430.561 68.2107 449.53 67.8728C456.166 67.7642 464.492 68.3434 467.63 62.479C469.693 58.5573 467.883 53.4531 464.492 50.5934C461.102 47.7336 456.577 46.6596 452.184 46.1287C438.443 44.4863 424.527 47.0708 412.292 53.5376C409.879 48.3852 413.269 42.5691 415.719 37.4287C418.168 32.2883 418.929 24.6863 413.8 22.2247C410.325 20.5595 406.198 22.4539 403.182 24.8311C394.506 31.6849 389.812 42.2795 385.444 52.4275C385.278 49.0263 384.514 45.6808 383.187 42.5449C381.667 39.5041 378.759 36.9219 375.356 36.7771C369.226 36.5357 365.703 43.4379 363.06 48.9644C359.211 56.9284 343.922 83.6319 335.572 69.4777C327.367 55.6614 321.165 43.643 306.854 34.8585Z" fill="#25B1DD"/>
</svg>
