<svg width="960" height="713" viewBox="0 0 960 713" fill="none" xmlns="http://www.w3.org/2000/svg">
<path d="M1065.93 546.8C1041.72 548.526 854.647 452.113 765.547 476.621C676.447 501.128 634.322 518.021 533.336 527.494C432.35 536.966 403.571 482.437 331.28 487.046C258.989 491.656 198.716 539.379 106.008 522.727C13.2995 506.075 -11.1234 477.719 -31.9987 488.699C-52.874 499.68 -66.28 533.66 -73.4114 562.668C-80.5428 591.676 438.854 702.098 658.081 721.296C877.308 740.494 1038.92 652.239 1053.24 625.499C1067.56 598.759 1065.93 546.8 1065.93 546.8Z" fill="#6CE4FF"/>
<path fill-rule="evenodd" clip-rule="evenodd" d="M245.74 481.459C247.972 478.648 250.566 475.076 249.661 471.263C249.377 470.034 248.665 468.947 247.653 468.195C246.64 467.443 245.393 467.077 244.135 467.16C241.83 467.378 239.754 468.958 237.896 470.684C232.243 476.087 227.865 482.683 225.081 489.991C224.152 492.332 222.596 495.228 220.653 494.383C218.3 493.369 219.205 488.844 218.24 485.936C216.852 481.496 211.193 482.22 209.069 486.153C206.945 490.087 207.307 495.312 207.754 500.054C201.093 489.93 193.129 478.962 182.752 478.576C179.421 478.455 175.319 480.615 175.319 484.85C175.319 488.555 178.408 490.799 180.954 492.585C183.5 494.371 186.239 497.762 185.129 501.188C183.838 505.17 179.228 504.157 176.127 502.395C173.026 500.633 168.465 499.547 167.077 503.481C165.786 507.101 168.887 510.721 171.566 512.748L188.351 525.623C192.272 528.64 196.435 531.753 201.021 531.946C207.331 532.212 213.534 527.24 219.253 524.417C223.018 522.559 226.131 520.954 228.508 516.634C234.976 504.881 237.365 491.861 245.74 481.459Z" fill="#6CE4FF"/>
<path fill-rule="evenodd" clip-rule="evenodd" d="M206.837 493.526C205.304 490.715 203.494 487.143 204.146 483.33C204.628 480.542 206.366 479.01 207.935 479.227C209.503 479.444 210.915 481.025 212.194 482.751C216.24 488.577 219.192 495.09 220.906 501.973C221.534 504.314 222.596 507.21 223.923 506.365C225.54 505.351 224.912 500.826 225.54 497.918C226.481 493.478 230.367 494.202 231.802 498.136C233.238 502.069 233.009 507.294 232.695 512.036C237.257 501.912 242.699 490.944 249.782 490.558C252.05 490.437 254.85 492.597 254.85 496.832C254.85 500.537 252.75 502.781 251.013 504.567C249.275 506.353 247.393 509.744 248.153 513.171C249.034 517.153 252.183 516.139 254.307 514.377C256.43 512.616 259.532 511.53 260.485 515.463C261.366 519.083 259.278 522.703 257.42 524.73L245.957 537.606C243.278 540.622 240.43 543.735 237.305 543.929C232.997 544.194 228.75 539.223 224.852 536.399C221.913 534.608 219.68 531.86 218.529 528.616C214.185 516.948 212.544 503.928 206.837 493.526Z" fill="#6CE4FF"/>
<path d="M408.519 299.555L413.973 308.906L423.626 569.546C423.626 569.546 365.586 570.922 364.5 568.339C363.414 565.757 372.826 299.555 372.826 299.555H408.519Z" fill="#98E8FF"/>
<path d="M230.367 91.7066L233.914 106.814L240.213 527.94C240.213 527.94 202.36 530.16 201.66 525.997C200.96 521.834 207.078 91.7066 207.078 91.7066H230.367Z" fill="#6CE4FF"/>
<path d="M144.947 451.293L148.506 456.047L154.805 588.672C154.805 588.672 116.952 589.359 116.192 588.056C115.432 586.753 121.67 451.293 121.67 451.293H144.947Z" fill="#98E8FF"/>
<path d="M420.006 265.623V332.171H381.139V271.186C381.141 268.533 380.62 265.905 379.605 263.454C378.59 261.003 377.103 258.775 375.227 256.899C373.351 255.023 371.123 253.535 368.672 252.521C366.22 251.506 363.593 250.985 360.94 250.986H27.8398V213.242H367.625C381.515 213.248 394.835 218.769 404.657 228.591C414.479 238.413 420 251.733 420.006 265.623Z" fill="#09AEFE"/>
<path d="M302.561 152.04H284.461V224.44H302.561V152.04Z" fill="#D47F08"/>
<path d="M423.626 320.768V333.245C423.626 333.83 423.393 334.392 422.979 334.806C422.565 335.22 422.004 335.453 421.418 335.453H381.139V318.56H421.418C422.004 318.56 422.565 318.792 422.979 319.206C423.393 319.62 423.626 320.182 423.626 320.768Z" fill="#FF9D14"/>
<path d="M326.091 202.72H260.931V219.613H326.091V202.72Z" fill="#EB9012"/>
<path d="M354.846 214.943V250.986H231.766V214.943C231.77 213.623 232.296 212.357 233.23 211.423C234.163 210.489 235.429 209.963 236.75 209.96H349.863C351.183 209.963 352.449 210.489 353.383 211.423C354.317 212.357 354.843 213.623 354.846 214.943Z" fill="#FF9D14"/>
<path d="M231.766 250.986H27.8398V265.623H231.766V250.986Z" fill="#089FE8"/>
<path d="M231.766 250.986V266.516C231.766 267.838 232.291 269.105 233.226 270.04C234.161 270.975 235.428 271.5 236.75 271.5H349.863C351.184 271.5 352.452 270.975 353.387 270.04C354.321 269.105 354.846 267.838 354.846 266.516V250.986H231.766Z" fill="#EB9012"/>
<path d="M381.139 267.747V318.56H367.625V276.544C367.625 273.658 366.483 270.889 364.448 268.843C362.413 266.797 359.651 265.639 356.765 265.623H354.846V250.986H364.379C368.824 250.986 373.087 252.752 376.23 255.895C379.374 259.039 381.139 263.302 381.139 267.747Z" fill="#089FE8"/>
<path d="M367.625 318.56H366.708C366.122 318.56 365.56 318.792 365.146 319.206C364.732 319.62 364.5 320.182 364.5 320.768V333.245C364.5 333.83 364.732 334.392 365.146 334.806C365.56 335.22 366.122 335.453 366.708 335.453H381.188V318.56H367.625Z" fill="#EB9012"/>
<path d="M272.105 143.593H258.663V160.486H272.105V143.593Z" fill="#FF9D14"/>
<path d="M290.712 143.593H277.27V160.486H290.712V143.593Z" fill="#FF9D14"/>
<path d="M327.95 143.593H314.507V160.486H327.95V143.593Z" fill="#FF9D14"/>
<path d="M309.331 143.593H295.889V160.486H309.331V143.593Z" fill="#FF9D14"/>
<path d="M252.183 143.593C251.668 143.592 251.157 143.692 250.68 143.888C250.204 144.085 249.771 144.374 249.406 144.738C249.042 145.103 248.753 145.536 248.557 146.012C248.36 146.489 248.26 146.999 248.261 147.515V156.565C248.26 157.08 248.36 157.591 248.557 158.067C248.753 158.544 249.042 158.977 249.406 159.341C249.771 159.706 250.204 159.995 250.68 160.191C251.157 160.388 251.668 160.488 252.183 160.486H253.486V143.593H252.183Z" fill="#FF9D14"/>
<path d="M334.84 143.593H333.126V160.486H334.84C335.88 160.486 336.877 160.073 337.613 159.338C338.348 158.602 338.761 157.605 338.761 156.565V147.515C338.761 146.475 338.348 145.477 337.613 144.742C336.877 144.006 335.88 143.593 334.84 143.593Z" fill="#FF9D14"/>
<path d="M258.663 143.593H253.486V160.486H258.663V143.593Z" fill="#E88F12"/>
<path d="M277.282 143.593H272.105V160.486H277.282V143.593Z" fill="#E88F12"/>
<path d="M295.9 143.593H290.724V160.486H295.9V143.593Z" fill="#E88F12"/>
<path d="M314.519 143.593H309.343V160.486H314.519V143.593Z" fill="#E88F12"/>
<path d="M333.126 143.593H327.95V160.486H333.126V143.593Z" fill="#E88F12"/>
<path d="M217.841 331.676V383.563H187.53V336.008C187.514 331.842 185.848 327.852 182.896 324.912C179.945 321.972 175.949 320.321 171.783 320.321H-88V290.806H176.984C187.819 290.81 198.209 295.115 205.871 302.777C213.533 310.438 217.838 320.829 217.841 331.664V331.676Z" fill="#09AEFE"/>
<path d="M126.243 243.095H112.125V299.555H126.243V243.095Z" fill="#D47F08"/>
<path d="M220.665 374.682V384.407C220.665 384.865 220.483 385.304 220.16 385.628C219.836 385.951 219.397 386.133 218.939 386.133H187.566V372.956H218.939C219.397 372.956 219.836 373.138 220.16 373.462C220.483 373.785 220.665 374.224 220.665 374.682Z" fill="#FF9D14"/>
<path d="M144.597 282.613H93.7842V295.79H144.597V282.613Z" fill="#EB9012"/>
<path d="M167.029 292.146V320.261H71.0386V292.146C71.0437 291.689 71.1252 291.236 71.2799 290.806C71.549 290.061 72.0405 289.416 72.6878 288.958C73.3351 288.501 74.1072 288.253 74.8999 288.248H163.107C163.9 288.251 164.673 288.498 165.321 288.956C165.968 289.414 166.459 290.06 166.727 290.806C166.908 291.231 167.01 291.685 167.029 292.146Z" fill="#FF9D14"/>
<path d="M71.0385 320.261H-88V331.676H71.0385V320.261Z" fill="#089FE8"/>
<path d="M71.0386 320.261V332.328C71.0386 333.358 71.4479 334.346 72.1766 335.075C72.9053 335.804 73.8935 336.213 74.924 336.213H163.131C164.163 336.213 165.152 335.804 165.883 335.076C166.614 334.348 167.026 333.359 167.029 332.328V320.261H71.0386Z" fill="#EB9012"/>
<path d="M187.53 333.329V372.956H176.984V340.195C176.987 337.947 176.1 335.789 174.518 334.193C172.935 332.597 170.785 331.692 168.537 331.676H167.089V320.261H174.522C177.978 320.277 181.286 321.661 183.724 324.11C186.162 326.559 187.53 329.874 187.53 333.329Z" fill="#089FE8"/>
<path d="M176.984 372.956H176.26C175.802 372.956 175.363 373.138 175.04 373.462C174.716 373.785 174.534 374.224 174.534 374.682V384.407C174.534 384.865 174.716 385.304 175.04 385.628C175.363 385.951 175.802 386.133 176.26 386.133H187.518V372.956H176.984Z" fill="#EB9012"/>
<path d="M102.496 236.506H92.0103V249.683H102.496V236.506Z" fill="#FF9D14"/>
<path d="M117.012 236.506H106.526V249.683H117.012V236.506Z" fill="#FF9D14"/>
<path d="M146.057 236.506H135.571V249.683H146.057V236.506Z" fill="#FF9D14"/>
<path d="M131.529 236.506H121.043V249.683H131.529V236.506Z" fill="#FF9D14"/>
<path d="M86.9664 236.506C86.1568 236.506 85.3803 236.828 84.8077 237.401C84.2352 237.973 83.9136 238.75 83.9136 239.559V246.618C83.9136 247.429 84.2348 248.207 84.807 248.781C85.3792 249.356 86.1557 249.68 86.9664 249.683H87.9921V236.506H86.9664Z" fill="#FF9D14"/>
<path d="M151.414 236.506H150.087V249.683H151.414C152.227 249.683 153.007 249.36 153.582 248.785C154.157 248.211 154.479 247.431 154.479 246.618V239.559C154.476 238.748 154.152 237.972 153.577 237.4C153.003 236.828 152.225 236.506 151.414 236.506Z" fill="#FF9D14"/>
<path d="M92.0102 236.506H87.98V249.683H92.0102V236.506Z" fill="#E88F12"/>
<path d="M106.526 236.506H102.496V249.683H106.526V236.506Z" fill="#E88F12"/>
<path d="M121.043 236.506H117.012V249.683H121.043V236.506Z" fill="#E88F12"/>
<path d="M135.559 236.506H131.529V249.683H135.559V236.506Z" fill="#E88F12"/>
<path d="M150.087 236.506H146.057V249.683H150.087V236.506Z" fill="#E88F12"/>
<path d="M150.063 420.716V458.653H127.909V423.877C127.905 420.823 126.69 417.895 124.529 415.737C122.368 413.578 119.439 412.366 116.385 412.366H-73.52V390.851H120.198C128.119 390.851 135.715 393.997 141.316 399.598C146.917 405.199 150.063 412.795 150.063 420.716Z" fill="#09AEFE"/>
<path d="M83.1051 355.954H72.7881V397.234H83.1051V355.954Z" fill="#D47F08"/>
<path d="M152.126 452.15V459.269C152.126 459.589 151.999 459.896 151.773 460.122C151.547 460.348 151.24 460.476 150.92 460.476H127.993V450.822H150.92C151.089 450.821 151.256 450.856 151.411 450.924C151.566 450.992 151.705 451.092 151.819 451.217C151.932 451.342 152.019 451.49 152.072 451.651C152.125 451.811 152.143 451.981 152.126 452.15Z" fill="#FF9D14"/>
<path d="M96.5232 384.854H59.37V394.483H96.5232V384.854Z" fill="#EB9012"/>
<path d="M112.91 391.816V412.33H42.7422V391.816C42.7422 391.443 42.8159 391.073 42.9592 390.728C43.1025 390.384 43.3124 390.07 43.577 389.807C43.8416 389.543 44.1556 389.335 44.5011 389.193C44.8465 389.051 45.2165 388.979 45.5899 388.981H110.074C110.658 388.977 111.228 389.155 111.706 389.49C112.184 389.825 112.545 390.301 112.741 390.851C112.853 391.161 112.91 391.487 112.91 391.816Z" fill="#FF9D14"/>
<path d="M42.7422 412.366H-73.52V420.716H42.7422V412.366Z" fill="#089FE8"/>
<path d="M42.7422 412.366V421.223C42.7454 421.976 43.0468 422.697 43.5805 423.229C44.1142 423.76 44.8367 424.058 45.5899 424.058H110.074C110.446 424.058 110.815 423.985 111.159 423.843C111.503 423.7 111.816 423.491 112.079 423.228C112.343 422.965 112.551 422.652 112.694 422.308C112.836 421.964 112.91 421.595 112.91 421.223V412.366H42.7422Z" fill="#EB9012"/>
<path d="M127.909 421.923V450.883H120.198V426.942C120.198 426.125 120.037 425.315 119.724 424.56C119.411 423.804 118.953 423.118 118.374 422.54C117.796 421.961 117.11 421.503 116.354 421.19C115.599 420.877 114.789 420.716 113.972 420.716H112.91V412.366H118.34C120.876 412.366 123.308 413.372 125.102 415.164C126.896 416.956 127.905 419.387 127.909 421.923Z" fill="#089FE8"/>
<path d="M120.198 450.895H119.679C119.516 450.886 119.352 450.912 119.199 450.969C119.045 451.026 118.905 451.113 118.787 451.226C118.668 451.339 118.574 451.475 118.51 451.625C118.445 451.776 118.412 451.938 118.412 452.101V459.221C118.412 459.384 118.445 459.546 118.51 459.697C118.574 459.847 118.668 459.983 118.787 460.096C118.905 460.209 119.045 460.296 119.199 460.353C119.352 460.41 119.516 460.435 119.679 460.427H127.909V450.774L120.198 450.895Z" fill="#EB9012"/>
<path d="M65.7413 351.14H58.079V360.769H65.7413V351.14Z" fill="#FF9D14"/>
<path d="M76.3477 351.14H68.6854V360.769H76.3477V351.14Z" fill="#FF9D14"/>
<path d="M97.573 351.14H89.9106V360.769H97.573V351.14Z" fill="#FF9D14"/>
<path d="M86.9665 351.14H79.3042V360.769H86.9665V351.14Z" fill="#FF9D14"/>
<path d="M54.3865 351.14C53.7945 351.14 53.2267 351.375 52.808 351.793C52.3894 352.212 52.1542 352.78 52.1542 353.372V358.536C52.151 358.832 52.2064 359.125 52.3171 359.398C52.4279 359.672 52.5918 359.921 52.7994 360.131C53.007 360.34 53.2542 360.507 53.5266 360.621C53.799 360.734 54.0913 360.793 54.3865 360.793H55.1346V351.14H54.3865Z" fill="#FF9D14"/>
<path d="M101.507 351.14H100.529V360.793H101.507C102.099 360.793 102.667 360.558 103.085 360.139C103.504 359.72 103.739 359.153 103.739 358.561V353.396C103.742 353.101 103.687 352.808 103.576 352.534C103.465 352.261 103.302 352.012 103.094 351.802C102.886 351.592 102.639 351.425 102.367 351.312C102.094 351.198 101.802 351.14 101.507 351.14Z" fill="#FF9D14"/>
<path d="M58.0668 351.14H55.1226V360.769H58.0668V351.14Z" fill="#E88F12"/>
<path d="M68.6855 351.14H65.7412V360.769H68.6855V351.14Z" fill="#E88F12"/>
<path d="M79.3041 351.14H76.3599V360.769H79.3041V351.14Z" fill="#E88F12"/>
<path d="M89.9107 351.14H86.9664V360.769H89.9107V351.14Z" fill="#E88F12"/>
<path d="M100.529 351.14H97.5852V360.769H100.529V351.14Z" fill="#E88F12"/>
<path d="M235.447 70.614V109.119H212.954V73.8238C212.954 70.7259 211.724 67.7549 209.533 65.5644C207.343 63.3739 204.372 62.1433 201.274 62.1433H8.5332V40.3026H205.135C213.173 40.3058 220.881 43.5004 226.565 49.1842C232.249 54.868 235.443 62.5759 235.447 70.614Z" fill="#09AEFE"/>
<path d="M167.487 4.887H157.013V46.7824H167.487V4.887Z" fill="#D47F08"/>
<path d="M237.546 102.567V109.807C237.528 110.133 237.385 110.44 237.147 110.665C236.909 110.889 236.594 111.014 236.267 111.013H212.954V101.239H236.267C236.439 101.239 236.61 101.274 236.768 101.341C236.927 101.408 237.07 101.507 237.189 101.631C237.309 101.755 237.402 101.901 237.463 102.062C237.525 102.223 237.553 102.395 237.546 102.567Z" fill="#FF9D14"/>
<path d="M181.111 34.209H143.402V43.983H181.111V34.209Z" fill="#EB9012"/>
<path d="M197.751 41.28V62.1433H126.557V41.28C126.557 40.947 126.615 40.6164 126.726 40.3026C126.927 39.744 127.296 39.2611 127.782 38.9199C128.268 38.5787 128.847 38.3957 129.441 38.3961H194.891C195.483 38.3965 196.06 38.5799 196.544 38.9212C197.028 39.2625 197.395 39.745 197.594 40.3026C197.701 40.6171 197.754 40.9477 197.751 41.28Z" fill="#FF9D14"/>
<path d="M126.533 62.1433H8.5332V70.6141H126.533V62.1433Z" fill="#089FE8"/>
<path d="M126.533 62.1433V71.1209C126.533 71.8857 126.837 72.6193 127.378 73.1601C127.919 73.7009 128.652 74.0048 129.417 74.0048H194.867C195.63 74.0016 196.362 73.6967 196.902 73.1566C197.442 72.6164 197.747 71.8847 197.75 71.1209V62.1433H126.533Z" fill="#EB9012"/>
<path d="M212.954 71.8328V101.239H205.135V76.9249C205.135 75.2512 204.47 73.646 203.287 72.4625C202.103 71.2789 200.498 70.6141 198.824 70.6141H197.75V62.1674H203.265C204.537 62.1626 205.797 62.4092 206.973 62.8929C208.149 63.3767 209.218 64.0881 210.119 64.9862C211.019 65.8844 211.733 66.9516 212.22 68.1265C212.706 69.3015 212.956 70.561 212.954 71.8328Z" fill="#089FE8"/>
<path d="M205.135 101.239H204.604C204.432 101.239 204.262 101.274 204.103 101.341C203.945 101.408 203.802 101.507 203.682 101.631C203.563 101.755 203.47 101.901 203.408 102.062C203.347 102.223 203.319 102.395 203.325 102.567V109.807C203.344 110.133 203.487 110.44 203.724 110.665C203.962 110.889 204.277 111.014 204.604 111.013H212.954V101.239H205.135Z" fill="#EB9012"/>
<path d="M149.87 0H142.087V9.77399H149.87V0Z" fill="#FF9D14"/>
<path d="M160.645 0H152.862V9.77399H160.645V0Z" fill="#FF9D14"/>
<path d="M182.184 0H174.401V9.77399H182.184V0Z" fill="#FF9D14"/>
<path d="M171.421 0H163.638V9.77399H171.421V0Z" fill="#FF9D14"/>
<path d="M138.334 0C137.732 0 137.155 0.239005 136.73 0.664437C136.305 1.08987 136.066 1.66688 136.066 2.26853V7.50546C136.066 7.80337 136.124 8.09836 136.238 8.37359C136.352 8.64882 136.519 8.8989 136.73 9.10955C137.155 9.53498 137.732 9.77399 138.334 9.77399H139.094V0H138.334Z" fill="#FF9D14"/>
<path d="M186.166 0H185.177V9.77399H186.166C186.464 9.77399 186.759 9.71531 187.035 9.60131C187.31 9.4873 187.56 9.3202 187.771 9.10955C187.981 8.8989 188.148 8.64882 188.262 8.37359C188.376 8.09836 188.435 7.80337 188.435 7.50546V2.26853C188.435 1.66688 188.196 1.08987 187.771 0.664437C187.345 0.239005 186.768 0 186.166 0Z" fill="#FF9D14"/>
<path d="M142.087 0H139.094V9.77399H142.087V0Z" fill="#E88F12"/>
<path d="M152.862 0H149.87V9.77399H152.862V0Z" fill="#E88F12"/>
<path d="M163.638 0H160.646V9.77399H163.638V0Z" fill="#E88F12"/>
<path d="M174.401 0H171.409V9.77399H174.401V0Z" fill="#E88F12"/>
<path d="M185.177 0H182.184V9.77399H185.177V0Z" fill="#E88F12"/>
<path d="M145.55 133.24V161.814H128.862V135.629C128.862 133.328 127.948 131.121 126.321 129.494C124.694 127.867 122.487 126.953 120.186 126.953H-22.8401V110.748H123.058C129.021 110.754 134.738 113.126 138.955 117.343C143.172 121.559 145.544 127.277 145.55 133.24Z" fill="#09AEFE"/>
<path d="M95.1115 84.4786H87.3406V115.562H95.1115V84.4786Z" fill="#D47F08"/>
<path d="M147.095 156.866V162.224C147.096 162.349 147.073 162.472 147.026 162.588C146.98 162.704 146.911 162.809 146.823 162.897C146.736 162.986 146.631 163.056 146.516 163.105C146.401 163.153 146.278 163.177 146.153 163.177H128.862V155.937H146.153C146.401 155.937 146.638 156.035 146.815 156.209C146.991 156.383 147.091 156.619 147.095 156.866Z" fill="#FF9D14"/>
<path d="M105.223 106.235H77.2407V113.487H105.223V106.235Z" fill="#EB9012"/>
<path d="M117.568 111.484V126.953H64.7156V111.484C64.7188 110.916 64.9465 110.373 65.3489 109.973C65.7514 109.573 66.2959 109.348 66.8634 109.348H115.432C115.869 109.347 116.296 109.48 116.655 109.731C117.013 109.981 117.286 110.337 117.435 110.748C117.522 110.983 117.567 111.233 117.568 111.484Z" fill="#FF9D14"/>
<path d="M64.7155 126.953H-22.8401V133.24H64.7155V126.953Z" fill="#089FE8"/>
<path d="M64.7156 126.953V133.626C64.7188 134.194 64.9465 134.737 65.3489 135.137C65.7514 135.537 66.2959 135.762 66.8634 135.762H115.432C115.712 135.762 115.99 135.707 116.249 135.599C116.508 135.492 116.744 135.335 116.942 135.136C117.14 134.938 117.298 134.703 117.405 134.443C117.512 134.184 117.568 133.907 117.568 133.626V126.953H64.7156Z" fill="#EB9012"/>
<path d="M128.862 134.157V155.974H123.058V137.934C123.058 136.689 122.563 135.495 121.683 134.615C120.803 133.735 119.609 133.24 118.364 133.24H117.568V126.953H121.658C123.566 126.963 125.393 127.725 126.741 129.074C128.09 130.423 128.852 132.249 128.862 134.157Z" fill="#089FE8"/>
<path d="M123.058 155.974H122.66C122.409 155.974 122.168 156.072 121.99 156.249C121.811 156.425 121.71 156.664 121.706 156.915V162.272C121.706 162.525 121.807 162.768 121.986 162.946C122.164 163.125 122.407 163.226 122.66 163.226H128.862V155.986L123.058 155.974Z" fill="#EB9012"/>
<path d="M82.0312 80.8466H76.2633V88.0986H82.0312V80.8466Z" fill="#FF9D14"/>
<path d="M90.0314 80.8466H84.2635V88.0986H90.0314V80.8466Z" fill="#FF9D14"/>
<path d="M106.02 80.8466H100.252V88.0986H106.02V80.8466Z" fill="#FF9D14"/>
<path d="M98.0196 80.8466H92.2517V88.0986H98.0196V80.8466Z" fill="#FF9D14"/>
<path d="M73.4879 80.8466C73.0399 80.8466 72.6102 81.0246 72.2934 81.3414C71.9766 81.6582 71.7986 82.0879 71.7986 82.5359V86.4214C71.8018 86.8673 71.9812 87.2939 72.2976 87.6081C72.6141 87.9223 73.042 88.0986 73.4879 88.0986H74.043V80.8466H73.4879Z" fill="#FF9D14"/>
<path d="M108.976 80.8466H108.24V88.0866H108.976C109.421 88.0866 109.848 87.9099 110.162 87.5953C110.477 87.2808 110.653 86.8541 110.653 86.4093V82.5359C110.655 82.3146 110.613 82.0952 110.529 81.8903C110.446 81.6854 110.322 81.4991 110.166 81.3421C110.01 81.1851 109.825 81.0604 109.621 80.9754C109.416 80.8904 109.197 80.8466 108.976 80.8466Z" fill="#FF9D14"/>
<path d="M76.2634 80.8466H74.0431V88.0986H76.2634V80.8466Z" fill="#E88F12"/>
<path d="M84.2636 80.8466H82.0433V88.0986H84.2636V80.8466Z" fill="#E88F12"/>
<path d="M92.2518 80.8466H90.0315V88.0986H92.2518V80.8466Z" fill="#E88F12"/>
<path d="M100.252 80.8466H98.0316V88.0986H100.252V80.8466Z" fill="#E88F12"/>
<path d="M108.24 80.8466H106.02V88.0986H108.24V80.8466Z" fill="#E88F12"/>
<path d="M748.847 540.272C699.06 542.3 651.107 561.884 601.332 563.139C539.888 564.683 480.665 538.318 419.125 537.219C359.576 536.17 301.946 558.867 242.457 562.053C192.164 564.719 142.184 553.389 91.7932 550.963C41.4028 548.538 -13.066 556.816 -49.5073 591.64C-48.6747 615.11 -21.0662 626.537 1.69148 632.329C143.282 668.324 285.547 704.439 430.987 717.966C581.82 731.927 734.68 721.2 882.943 690.032C913.11 683.685 944.218 676.01 968.484 656.957C992.75 637.904 1022.02 581.07 975.724 569.341C954.45 563.935 929.762 567.64 907.74 564.237C882.4 560.303 857.362 554.161 832.179 549.129C804.8 543.579 776.914 539.126 748.847 540.272Z" fill="#98E8FF"/>
<path fill-rule="evenodd" clip-rule="evenodd" d="M181.376 436.946C181.847 425.144 193.443 416.553 196.918 400.613C200.417 416.553 211.977 425.12 212.448 436.946C213.28 458.038 180.543 458.05 181.376 436.946Z" fill="#09B1E4"/>
<path fill-rule="evenodd" clip-rule="evenodd" d="M124.373 194.804C124.687 186.912 132.421 181.169 134.762 170.49C137.115 181.169 144.85 186.9 145.164 194.804C145.719 208.934 123.806 208.934 124.373 194.804Z" fill="#09B1E4"/>
<path fill-rule="evenodd" clip-rule="evenodd" d="M181.376 522.245C181.847 510.444 193.443 501.852 196.918 485.912C200.393 501.852 211.977 510.419 212.46 522.245C213.292 543.349 180.555 543.349 181.388 522.245H181.376Z" fill="#09B1E4"/>
<path fill-rule="evenodd" clip-rule="evenodd" d="M350.369 507.487C345.543 504.519 339.823 502.081 334.309 503.409C328.794 504.736 324.45 511.373 327.31 516.272C330.363 521.472 339.727 522.836 339.244 528.857C338.954 532.357 334.876 534.456 331.376 534.094C327.877 533.732 324.836 531.681 321.723 530.052C310.566 524.219 297.562 523.014 285.523 526.697C281.336 528 276.534 531.524 277.909 535.675C278.742 538.197 281.626 539.5 284.28 539.621C286.935 539.741 289.553 539.029 292.208 538.909C298.628 538.631 304.685 541.913 309.765 545.847C314.845 549.781 319.418 554.475 324.873 557.781C334.236 563.404 345.519 564.526 356.391 565.528C384.518 568.098 413.84 570.523 440.157 560.267C457.835 553.377 474.077 540.839 493.046 540.502C499.682 540.393 508.008 540.972 511.145 535.108C513.209 531.186 511.399 526.082 508.008 523.222C504.617 520.362 500.092 519.288 495.7 518.757C481.959 517.115 468.043 519.699 455.808 526.166C453.395 521.014 456.785 515.198 459.235 510.057C461.684 504.917 462.444 497.315 457.316 494.853C453.841 493.188 449.714 495.083 446.697 497.46C438.022 504.314 433.328 514.908 428.96 525.056C428.794 521.655 428.03 518.31 426.703 515.174C425.183 512.133 422.275 509.551 418.872 509.406C412.742 509.164 409.218 516.067 406.576 521.593C402.727 529.557 387.438 556.261 379.088 542.106C370.883 528.29 364.68 516.272 350.369 507.487Z" fill="#98E8FF"/>
<path fill-rule="evenodd" clip-rule="evenodd" d="M104.632 534.167C101.99 533.829 98.9608 533.986 97.1991 535.977C94.1221 539.44 97.3198 544.737 100.433 548.152C91.5278 544.29 82.4657 540.381 72.8124 539.271C68.6494 538.8 64.0279 538.993 60.7457 541.684C57.4636 544.375 56.9809 550.324 60.6251 552.423C61.8438 553.031 63.1748 553.38 64.5347 553.449L135.849 562.306C144.959 563.428 154.214 564.562 163.264 563.03C178.335 560.484 191.741 550.734 207.006 549.817C201.956 546.27 195.921 544.395 189.75 544.455C183.579 544.516 177.583 546.509 172.604 550.155C170.987 546.837 172.085 542.915 172.447 539.295C172.809 535.675 171.674 531.053 168.115 530.124C164.555 529.195 161.587 532.344 159.053 534.951C152.464 541.575 139.819 549.334 129.876 548.14C124.964 547.549 123.999 544.158 120.222 541.032C115.775 537.323 110.371 534.943 104.632 534.167Z" fill="#98E8FF"/>
<path d="M318.96 27.2948C319.164 26.717 319.27 26.1094 319.274 25.4968C319.271 24.2821 318.857 23.104 318.099 22.155C317.341 21.206 316.283 20.5422 315.099 20.272C314.903 19.1261 314.463 18.0355 313.811 17.0734C313.158 16.1113 312.307 15.3001 311.315 14.6943C310.323 14.0884 309.212 13.702 308.058 13.561C306.904 13.42 305.734 13.5276 304.625 13.8766C303.359 11.8829 301.519 10.3192 299.347 9.39145C297.176 8.46365 294.774 8.21523 292.458 8.67888C290.142 9.14254 288.021 10.2965 286.374 11.989C284.727 13.6814 283.631 15.8329 283.231 18.1603C282.11 17.4246 280.811 17.0058 279.471 16.9483C278.131 16.8908 276.801 17.1967 275.621 17.8336C274.441 18.4706 273.456 19.4148 272.769 20.5664C272.082 21.7179 271.719 23.0338 271.719 24.3746C271.718 25.3598 271.911 26.3355 272.286 27.2465C264.901 27.874 260.219 28.791 260.219 29.8167C260.219 31.6991 275.906 33.2195 295.358 33.2195C314.809 33.2195 330.484 31.6991 330.484 29.8167C330.484 28.8152 326.043 27.9222 318.96 27.2948Z" fill="white"/>
<path d="M855.926 45.3947C856.13 44.817 856.236 44.2094 856.24 43.5968C856.237 42.3821 855.823 41.204 855.065 40.255C854.307 39.306 853.249 38.6422 852.065 38.372C851.869 37.2261 851.429 36.1354 850.777 35.1734C850.124 34.2113 849.273 33.4001 848.281 32.7942C847.289 32.1884 846.178 31.802 845.024 31.661C843.87 31.5199 842.7 31.6276 841.591 31.9766C840.325 29.9829 838.485 28.4192 836.313 27.4914C834.142 26.5636 831.74 26.3152 829.424 26.7789C827.108 27.2425 824.987 28.3965 823.34 30.0889C821.693 31.7814 820.597 33.9329 820.197 36.2603C819.076 35.5246 817.777 35.1058 816.437 35.0482C815.097 34.9907 813.767 35.2967 812.587 35.9336C811.407 36.5706 810.422 37.5148 809.735 38.6663C809.048 39.8179 808.685 41.1338 808.685 42.4746C808.684 43.4598 808.877 44.4355 809.252 45.3465C801.867 45.9739 797.186 46.891 797.186 47.9167C797.186 49.7991 812.872 51.3195 832.324 51.3195C851.775 51.3195 867.45 49.7991 867.45 47.9167C867.45 46.9151 863.009 46.0222 855.926 45.3947Z" fill="white"/>
<path d="M551.882 81.2568C552.438 80.3869 552.743 79.3807 552.763 78.3488C552.763 74.1978 547.768 70.7468 541.083 69.9021C539.237 63.6637 529.873 58.9215 518.603 58.9215C516.312 58.915 514.026 59.117 511.773 59.5248C505.981 54.2275 495.785 50.7161 484.176 50.7161C468.007 50.7161 454.589 57.5338 451.959 66.4752C448.3 65.1106 444.424 64.4236 440.519 64.448C429.032 64.448 419.716 69.8539 419.716 76.5146C419.738 78.1954 420.301 79.8245 421.321 81.1603C400.639 82.1739 387.535 83.6702 387.535 85.3354C387.535 88.3882 431.53 90.8619 485.793 90.8619C540.057 90.8619 584.052 88.4486 584.052 85.3354C584.113 83.7184 571.684 82.2584 551.882 81.2568Z" fill="white"/>
</svg>
